G75*
G70*
%OFA0B0*%
%FSLAX24Y24*%
%IPPOS*%
%LPD*%
%AMOC8*
5,1,8,0,0,1.08239X$1,22.5*
%
%ADD10C,0.0040*%
%ADD11C,0.0050*%
%ADD12C,0.0030*%
%ADD13C,0.0110*%
%ADD14C,0.0020*%
%ADD15C,0.0010*%
D10*
X000721Y008776D02*
X000995Y008776D01*
X001132Y008912D01*
X000995Y009049D01*
X000721Y009049D01*
X000858Y009190D02*
X000858Y009258D01*
X001132Y009258D01*
X001132Y009190D02*
X001132Y009327D01*
X001132Y009466D02*
X000858Y009466D01*
X000858Y009671D01*
X000926Y009740D01*
X001132Y009740D01*
X000721Y009258D02*
X000653Y009258D01*
X001671Y009190D02*
X002082Y009190D01*
X002082Y009395D01*
X002013Y009464D01*
X001876Y009464D01*
X001808Y009395D01*
X001808Y009190D01*
X001945Y009049D02*
X001671Y009049D01*
X001671Y008776D02*
X001945Y008776D01*
X002082Y008912D01*
X001945Y009049D01*
X002013Y009604D02*
X001808Y009604D01*
X002013Y009604D02*
X002082Y009673D01*
X002082Y009878D01*
X001808Y009878D01*
X001876Y010019D02*
X001808Y010087D01*
X001808Y010292D01*
X001945Y010224D02*
X001945Y010087D01*
X001876Y010019D01*
X002082Y010019D02*
X002082Y010224D01*
X002013Y010292D01*
X001945Y010224D01*
X001963Y011476D02*
X001826Y011476D01*
X001758Y011544D01*
X001758Y011749D01*
X001621Y011749D02*
X002032Y011749D01*
X002032Y011544D01*
X001963Y011476D01*
X001963Y011890D02*
X001895Y011958D01*
X001895Y012164D01*
X001826Y012164D02*
X002032Y012164D01*
X002032Y011958D01*
X001963Y011890D01*
X001758Y011958D02*
X001758Y012095D01*
X001826Y012164D01*
X001758Y012304D02*
X001758Y012441D01*
X001690Y012373D02*
X001963Y012373D01*
X002032Y012441D01*
X001963Y012581D02*
X001895Y012649D01*
X001895Y012854D01*
X001826Y012854D02*
X002032Y012854D01*
X002032Y012649D01*
X001963Y012581D01*
X001758Y012649D02*
X001758Y012786D01*
X001826Y012854D01*
X001132Y012509D02*
X001132Y012304D01*
X000721Y012304D01*
X000721Y012509D01*
X000790Y012578D01*
X000858Y012578D01*
X000926Y012509D01*
X000926Y012304D01*
X000995Y012164D02*
X001063Y012164D01*
X001132Y012095D01*
X001132Y011958D01*
X001063Y011890D01*
X001063Y011749D02*
X000721Y011749D01*
X000790Y011890D02*
X000858Y011890D01*
X000926Y011958D01*
X000926Y012095D01*
X000995Y012164D01*
X000790Y012164D02*
X000721Y012095D01*
X000721Y011958D01*
X000790Y011890D01*
X001063Y011749D02*
X001132Y011681D01*
X001132Y011544D01*
X001063Y011476D01*
X000721Y011476D01*
X000926Y012509D02*
X000995Y012578D01*
X001063Y012578D01*
X001132Y012509D01*
X002721Y012166D02*
X003132Y012166D01*
X003132Y012027D02*
X003063Y011958D01*
X002790Y011958D01*
X002858Y011890D02*
X002858Y012027D01*
X002926Y012166D02*
X002858Y012235D01*
X002858Y012371D01*
X002926Y012440D01*
X003132Y012440D01*
X003063Y012581D02*
X003132Y012649D01*
X003132Y012786D01*
X002995Y012854D02*
X002995Y012581D01*
X003063Y012581D02*
X002926Y012581D01*
X002858Y012649D01*
X002858Y012786D01*
X002926Y012854D01*
X002995Y012854D01*
X002995Y012995D02*
X002858Y013132D01*
X002858Y013200D01*
X002858Y012995D02*
X003132Y012995D01*
X003063Y011749D02*
X002926Y011749D01*
X002858Y011681D01*
X002858Y011544D01*
X002926Y011476D01*
X003063Y011476D01*
X003132Y011544D01*
X003132Y011681D01*
X003063Y011749D01*
X003032Y009878D02*
X003032Y009673D01*
X002963Y009604D01*
X002826Y009604D01*
X002758Y009673D01*
X002758Y009878D01*
X002758Y009464D02*
X002758Y009258D01*
X002826Y009190D01*
X002963Y009190D01*
X003032Y009258D01*
X003032Y009464D01*
X002895Y009049D02*
X002621Y009049D01*
X002621Y008776D02*
X002895Y008776D01*
X003032Y008912D01*
X002895Y009049D01*
X002215Y023886D02*
X001908Y023886D01*
X001831Y023962D01*
X001831Y024116D01*
X001908Y024193D01*
X002061Y024346D02*
X001908Y024499D01*
X001831Y024653D01*
X002061Y024576D02*
X002061Y024346D01*
X002215Y024346D01*
X002292Y024423D01*
X002292Y024576D01*
X002215Y024653D01*
X002138Y024653D01*
X002061Y024576D01*
X002215Y024193D02*
X002292Y024116D01*
X002292Y023962D01*
X002215Y023886D01*
X004611Y023992D02*
X004688Y023916D01*
X004995Y023916D01*
X005072Y023992D01*
X005072Y024146D01*
X004995Y024223D01*
X005072Y024376D02*
X005072Y024683D01*
X005072Y024529D02*
X004611Y024529D01*
X004765Y024376D01*
X004688Y024223D02*
X004611Y024146D01*
X004611Y023992D01*
X009268Y026776D02*
X009344Y026699D01*
X009498Y026699D01*
X009574Y026776D01*
X009728Y026776D02*
X009728Y027083D01*
X009805Y027159D01*
X009958Y027159D01*
X010035Y027083D01*
X010035Y026776D01*
X009958Y026699D01*
X009805Y026699D01*
X009728Y026776D01*
X009574Y027083D02*
X009498Y027159D01*
X009344Y027159D01*
X009268Y027083D01*
X009268Y026776D01*
X010188Y026699D02*
X010188Y027159D01*
X010342Y027006D01*
X010495Y027159D01*
X010495Y026699D01*
X010649Y026699D02*
X010649Y027159D01*
X010802Y027006D01*
X010956Y027159D01*
X010956Y026699D01*
X010755Y024543D02*
X010678Y024543D01*
X010601Y024466D01*
X010601Y024389D01*
X010601Y024466D02*
X010525Y024543D01*
X010448Y024543D01*
X010371Y024466D01*
X010371Y024313D01*
X010448Y024236D01*
X010448Y024083D02*
X010371Y024006D01*
X010371Y023852D01*
X010448Y023776D01*
X010755Y023776D01*
X010832Y023852D01*
X010832Y024006D01*
X010755Y024083D01*
X010755Y024236D02*
X010832Y024313D01*
X010832Y024466D01*
X010755Y024543D01*
X013121Y024543D02*
X013121Y024236D01*
X013351Y024236D01*
X013275Y024389D01*
X013275Y024466D01*
X013351Y024543D01*
X013505Y024543D01*
X013582Y024466D01*
X013582Y024313D01*
X013505Y024236D01*
X013505Y024083D02*
X013582Y024006D01*
X013582Y023852D01*
X013505Y023776D01*
X013198Y023776D01*
X013121Y023852D01*
X013121Y024006D01*
X013198Y024083D01*
X013251Y020172D02*
X013251Y019865D01*
X013021Y020095D01*
X013482Y020095D01*
X013405Y019712D02*
X013482Y019635D01*
X013482Y019482D01*
X013405Y019405D01*
X013098Y019405D01*
X013021Y019482D01*
X013021Y019635D01*
X013098Y019712D01*
X012382Y016043D02*
X012382Y015736D01*
X012075Y016043D01*
X011998Y016043D01*
X011921Y015966D01*
X011921Y015813D01*
X011998Y015736D01*
X011998Y015583D02*
X011921Y015506D01*
X011921Y015352D01*
X011998Y015276D01*
X012305Y015276D01*
X012382Y015352D01*
X012382Y015506D01*
X012305Y015583D01*
X014448Y006836D02*
X014372Y006759D01*
X014372Y006452D01*
X014448Y006376D01*
X014602Y006376D01*
X014679Y006452D01*
X014679Y006606D01*
X014525Y006606D01*
X014679Y006759D02*
X014602Y006836D01*
X014448Y006836D01*
X014832Y006836D02*
X014832Y006376D01*
X015139Y006376D02*
X014832Y006836D01*
X015139Y006836D02*
X015139Y006376D01*
X015292Y006376D02*
X015292Y006836D01*
X015523Y006836D01*
X015599Y006759D01*
X015599Y006452D01*
X015523Y006376D01*
X015292Y006376D01*
X014959Y003063D02*
X014959Y002986D01*
X014959Y002833D02*
X014959Y002526D01*
X015035Y002526D02*
X014882Y002526D01*
X014729Y002679D02*
X014729Y002986D01*
X014882Y002833D02*
X014959Y002833D01*
X014729Y002679D02*
X014575Y002526D01*
X014422Y002679D01*
X014422Y002986D01*
X015189Y002833D02*
X015189Y002526D01*
X015189Y002833D02*
X015419Y002833D01*
X015496Y002756D01*
X015496Y002526D01*
D11*
X011307Y006931D02*
X011399Y007022D01*
X011399Y007389D01*
X011307Y007481D01*
X011032Y007481D01*
X011032Y006931D01*
X011307Y006931D01*
X010846Y006931D02*
X010846Y007481D01*
X010479Y007481D02*
X010479Y006931D01*
X010294Y007022D02*
X010294Y007206D01*
X010110Y007206D01*
X009927Y007389D02*
X009927Y007022D01*
X010018Y006931D01*
X010202Y006931D01*
X010294Y007022D01*
X010294Y007389D02*
X010202Y007481D01*
X010018Y007481D01*
X009927Y007389D01*
X010479Y007481D02*
X010846Y006931D01*
X006899Y007022D02*
X006807Y006931D01*
X006623Y006931D01*
X006532Y007022D01*
X006532Y007389D01*
X006623Y007481D01*
X006807Y007481D01*
X006899Y007389D01*
X006346Y007389D02*
X006254Y007481D01*
X006071Y007481D01*
X005979Y007389D01*
X005979Y007022D01*
X006071Y006931D01*
X006254Y006931D01*
X006346Y007022D01*
X005794Y007114D02*
X005794Y007481D01*
X005794Y007114D02*
X005610Y006931D01*
X005427Y007114D01*
X005427Y007481D01*
X004427Y009131D02*
X004427Y009356D01*
X004352Y009431D01*
X004051Y009431D01*
X003976Y009356D01*
X003976Y009131D01*
X004427Y009131D01*
X004427Y009591D02*
X004427Y009891D01*
X004427Y009741D02*
X003976Y009741D01*
X004126Y009591D01*
X004224Y017159D02*
X004224Y017384D01*
X004299Y017459D01*
X004449Y017459D01*
X004524Y017384D01*
X004524Y017159D01*
X004524Y017309D02*
X004674Y017459D01*
X004599Y017619D02*
X004674Y017694D01*
X004674Y017844D01*
X004599Y017919D01*
X004524Y017919D01*
X004449Y017844D01*
X004449Y017694D01*
X004374Y017619D01*
X004299Y017619D01*
X004224Y017694D01*
X004224Y017844D01*
X004299Y017919D01*
X004449Y018079D02*
X004224Y018304D01*
X004674Y018304D01*
X004449Y018380D02*
X004449Y018079D01*
X004524Y018540D02*
X004449Y018615D01*
X004449Y018765D01*
X004524Y018840D01*
X004599Y018840D01*
X004674Y018765D01*
X004674Y018615D01*
X004599Y018540D01*
X004524Y018540D01*
X004449Y018615D02*
X004374Y018540D01*
X004299Y018540D01*
X004224Y018615D01*
X004224Y018765D01*
X004299Y018840D01*
X004374Y018840D01*
X004449Y018765D01*
X004449Y019000D02*
X004374Y019150D01*
X004374Y019225D01*
X004449Y019300D01*
X004599Y019300D01*
X004674Y019225D01*
X004674Y019075D01*
X004599Y019000D01*
X004449Y019000D02*
X004224Y019000D01*
X004224Y019300D01*
X004224Y017159D02*
X004674Y017159D01*
X015460Y021260D02*
X015526Y021260D01*
X015660Y021260D02*
X015927Y021260D01*
X015927Y021194D02*
X015927Y021327D01*
X015927Y021470D02*
X015660Y021470D01*
X015660Y021670D01*
X015726Y021737D01*
X015927Y021737D01*
X015927Y021884D02*
X015927Y022017D01*
X015927Y021951D02*
X015660Y021951D01*
X015660Y021884D01*
X015526Y021951D02*
X015460Y021951D01*
X015660Y021260D02*
X015660Y021194D01*
X015726Y021046D02*
X015927Y021046D01*
X015927Y020913D02*
X015726Y020913D01*
X015660Y020979D01*
X015726Y021046D01*
X015726Y020913D02*
X015660Y020846D01*
X015660Y020779D01*
X015927Y020779D01*
X015860Y020632D02*
X015726Y020632D01*
X015660Y020565D01*
X015660Y020365D01*
X015526Y020365D02*
X015927Y020365D01*
X015927Y020565D01*
X015860Y020632D01*
X015927Y020217D02*
X015927Y020017D01*
X015860Y019951D01*
X015726Y019951D01*
X015660Y020017D01*
X015660Y020217D01*
X015726Y019803D02*
X015927Y019803D01*
X015927Y019670D02*
X015726Y019670D01*
X015660Y019736D01*
X015726Y019803D01*
X015726Y019670D02*
X015660Y019603D01*
X015660Y019536D01*
X015927Y019536D01*
X015927Y019122D02*
X015526Y019389D01*
X015726Y018974D02*
X015860Y018974D01*
X015927Y018908D01*
X015927Y018708D01*
X016060Y018708D02*
X015660Y018708D01*
X015660Y018908D01*
X015726Y018974D01*
X015526Y018560D02*
X015927Y018293D01*
X015927Y018146D02*
X015726Y018146D01*
X015660Y018079D01*
X015726Y018012D01*
X015927Y018012D01*
X015927Y017879D02*
X015660Y017879D01*
X015660Y017946D01*
X015726Y018012D01*
X015726Y017731D02*
X015660Y017665D01*
X015660Y017531D01*
X015726Y017465D01*
X015860Y017465D01*
X015927Y017531D01*
X015927Y017665D01*
X015860Y017731D01*
X015726Y017731D01*
X015660Y017317D02*
X015660Y017117D01*
X015726Y017050D01*
X015860Y017050D01*
X015927Y017117D01*
X015927Y017317D01*
X015927Y016910D02*
X015927Y016843D01*
X015860Y016843D01*
X015860Y016910D01*
X015927Y016910D01*
X015793Y016696D02*
X015793Y016429D01*
X015726Y016429D02*
X015660Y016495D01*
X015660Y016629D01*
X015726Y016696D01*
X015793Y016696D01*
X015927Y016629D02*
X015927Y016495D01*
X015860Y016429D01*
X015726Y016429D01*
X015927Y016286D02*
X015927Y016152D01*
X015927Y016219D02*
X015526Y016219D01*
X015526Y016152D01*
X015660Y016005D02*
X015660Y015805D01*
X015726Y015738D01*
X015860Y015738D01*
X015927Y015805D01*
X015927Y016005D01*
X015993Y016005D02*
X015660Y016005D01*
X015993Y016005D02*
X016060Y015938D01*
X016060Y015872D01*
X015860Y015591D02*
X015726Y015591D01*
X015660Y015524D01*
X015660Y015391D01*
X015726Y015324D01*
X015860Y015324D01*
X015927Y015391D01*
X015927Y015524D01*
X015860Y015591D01*
X015860Y015176D02*
X015726Y015176D01*
X015660Y015110D01*
X015660Y014976D01*
X015726Y014909D01*
X015860Y014909D01*
X015927Y014976D01*
X015927Y015110D01*
X015860Y015176D01*
X015927Y014762D02*
X015927Y014562D01*
X015860Y014495D01*
X015726Y014495D01*
X015660Y014562D01*
X015660Y014762D01*
X015993Y014762D01*
X016060Y014695D01*
X016060Y014629D01*
X015927Y014355D02*
X015927Y014288D01*
X015860Y014288D01*
X015860Y014355D01*
X015927Y014355D01*
X015793Y014141D02*
X015793Y013874D01*
X015726Y013874D02*
X015660Y013940D01*
X015660Y014074D01*
X015726Y014141D01*
X015793Y014141D01*
X015927Y014074D02*
X015927Y013940D01*
X015860Y013874D01*
X015726Y013874D01*
X015660Y013726D02*
X015660Y013526D01*
X015726Y013459D01*
X015860Y013459D01*
X015927Y013526D01*
X015927Y013726D01*
X015526Y013726D01*
X015726Y013312D02*
X015660Y013245D01*
X015660Y013112D01*
X015726Y013045D01*
X015860Y013045D01*
X015927Y013112D01*
X015927Y013245D01*
X015860Y013312D01*
X015726Y013312D01*
X015660Y012898D02*
X015660Y012697D01*
X015726Y012631D01*
X015860Y012631D01*
X015927Y012697D01*
X015927Y012898D01*
D12*
X003261Y003543D02*
X003201Y003603D01*
X003201Y003725D01*
X003261Y003785D01*
X003322Y003905D02*
X003201Y004026D01*
X003565Y004026D01*
X003565Y003905D02*
X003565Y004148D01*
X003504Y004268D02*
X003261Y004510D01*
X003504Y004510D01*
X003565Y004450D01*
X003565Y004328D01*
X003504Y004268D01*
X003261Y004268D01*
X003201Y004328D01*
X003201Y004450D01*
X003261Y004510D01*
X003504Y003785D02*
X003565Y003725D01*
X003565Y003603D01*
X003504Y003543D01*
X003261Y003543D01*
X003177Y016121D02*
X003300Y016244D01*
X003300Y016491D01*
X003053Y016491D02*
X003053Y016244D01*
X003177Y016121D01*
X002932Y016182D02*
X002870Y016121D01*
X002747Y016121D01*
X002685Y016182D01*
X002685Y016306D02*
X002808Y016368D01*
X002870Y016368D01*
X002932Y016306D01*
X002932Y016182D01*
X002932Y016491D02*
X002685Y016491D01*
X002685Y016306D01*
X002564Y016306D02*
X002317Y016306D01*
X002440Y016429D02*
X002440Y016182D01*
X002378Y017121D02*
X002502Y017121D01*
X002564Y017182D01*
X002564Y017306D01*
X002440Y017306D01*
X002317Y017429D02*
X002317Y017182D01*
X002378Y017121D01*
X002317Y017429D02*
X002378Y017491D01*
X002502Y017491D01*
X002564Y017429D01*
X002685Y017491D02*
X002932Y017121D01*
X002932Y017491D01*
X003053Y017491D02*
X003238Y017491D01*
X003300Y017429D01*
X003300Y017182D01*
X003238Y017121D01*
X003053Y017121D01*
X003053Y017491D01*
X002685Y017491D02*
X002685Y017121D01*
X002685Y018171D02*
X002932Y018541D01*
X002685Y018541D02*
X002932Y018171D01*
X002564Y018541D02*
X002317Y018541D01*
X002440Y018541D02*
X002440Y018171D01*
X002317Y019171D02*
X002317Y019541D01*
X002502Y019541D01*
X002564Y019479D01*
X002564Y019356D01*
X002502Y019294D01*
X002317Y019294D01*
X002440Y019294D02*
X002564Y019171D01*
X002685Y019171D02*
X002932Y019541D01*
X002685Y019541D02*
X002932Y019171D01*
D13*
X014558Y016361D02*
X014656Y016361D01*
X014853Y016361D02*
X015247Y016361D01*
X015247Y016263D02*
X015247Y016460D01*
X015148Y016693D02*
X015247Y016791D01*
X015247Y016988D01*
X015148Y017086D01*
X015148Y017337D02*
X015247Y017436D01*
X015247Y017632D01*
X015148Y017731D01*
X014951Y017731D01*
X014853Y017632D01*
X014853Y017436D01*
X014951Y017337D01*
X015148Y017337D01*
X015247Y017982D02*
X014853Y017982D01*
X014853Y018080D01*
X014951Y018179D01*
X014853Y018277D01*
X014951Y018375D01*
X015247Y018375D01*
X015247Y018179D02*
X014951Y018179D01*
X014755Y017086D02*
X014656Y016988D01*
X014656Y016791D01*
X014755Y016693D01*
X015148Y016693D01*
X014853Y016361D02*
X014853Y016263D01*
X014951Y016012D02*
X015247Y016012D01*
X015247Y015618D02*
X014853Y015618D01*
X014853Y015914D01*
X014951Y016012D01*
X015247Y015386D02*
X015247Y015189D01*
X015247Y015287D02*
X014853Y015287D01*
X014853Y015189D01*
X014656Y015287D02*
X014558Y015287D01*
X014656Y014938D02*
X015247Y014938D01*
X015247Y014544D02*
X014656Y014544D01*
X014853Y014741D01*
X014656Y014938D01*
X014755Y014293D02*
X014853Y014293D01*
X014951Y014195D01*
X014951Y013900D01*
X014656Y013900D02*
X014656Y014195D01*
X014755Y014293D01*
X014951Y014195D02*
X015050Y014293D01*
X015148Y014293D01*
X015247Y014195D01*
X015247Y013900D01*
X014656Y013900D01*
X014755Y013649D02*
X014656Y013550D01*
X014656Y013354D01*
X014755Y013255D01*
X015148Y013255D01*
X015247Y013354D01*
X015247Y013550D01*
X015148Y013649D01*
X015247Y013004D02*
X014656Y013004D01*
X014853Y012807D01*
X014656Y012611D01*
X015247Y012611D01*
X015050Y019271D02*
X014656Y019271D01*
X014656Y019664D02*
X015050Y019664D01*
X015247Y019468D01*
X015050Y019271D01*
X015247Y019915D02*
X015247Y020309D01*
X015247Y020112D02*
X014656Y020112D01*
X014853Y019915D01*
X015148Y020560D02*
X015148Y020658D01*
X015247Y020658D01*
X015247Y020560D01*
X015148Y020560D01*
X014951Y020882D02*
X014951Y021276D01*
X014656Y021177D02*
X014951Y020882D01*
X015247Y021177D02*
X014656Y021177D01*
D14*
X007210Y019540D02*
X006980Y019540D01*
X007095Y019425D01*
X007095Y019579D01*
X007095Y019349D02*
X007133Y019310D01*
X007133Y019195D01*
X007133Y019272D02*
X007210Y019349D01*
X007095Y019349D02*
X007018Y019349D01*
X006980Y019310D01*
X006980Y019195D01*
X007210Y019195D01*
X006473Y019030D02*
X006243Y019030D01*
X006320Y018953D01*
X006243Y018877D01*
X006473Y018877D01*
X006473Y018800D02*
X006396Y018723D01*
X006396Y018762D02*
X006396Y018647D01*
X006473Y018647D02*
X006243Y018647D01*
X006243Y018762D01*
X006281Y018800D01*
X006358Y018800D01*
X006396Y018762D01*
X006473Y018570D02*
X006473Y018416D01*
X006243Y018416D01*
X006243Y018570D01*
X006358Y018493D02*
X006358Y018416D01*
X006243Y018340D02*
X006243Y018186D01*
X006243Y018263D02*
X006473Y018263D01*
X006511Y018109D02*
X006511Y017956D01*
X006473Y017879D02*
X006396Y017803D01*
X006396Y017841D02*
X006396Y017726D01*
X006473Y017726D02*
X006243Y017726D01*
X006243Y017841D01*
X006281Y017879D01*
X006358Y017879D01*
X006396Y017841D01*
X007018Y017129D02*
X007057Y017129D01*
X007095Y017090D01*
X007133Y017129D01*
X007172Y017129D01*
X007210Y017090D01*
X007210Y017014D01*
X007172Y016975D01*
X007210Y016899D02*
X007133Y016822D01*
X007133Y016860D02*
X007133Y016745D01*
X007210Y016745D02*
X006980Y016745D01*
X006980Y016860D01*
X007018Y016899D01*
X007095Y016899D01*
X007133Y016860D01*
X007018Y016975D02*
X006980Y017014D01*
X006980Y017090D01*
X007018Y017129D01*
X007095Y017090D02*
X007095Y017052D01*
X006698Y014627D02*
X006621Y014551D01*
X006544Y014589D02*
X006544Y014512D01*
X006506Y014474D01*
X006391Y014474D01*
X006468Y014474D02*
X006544Y014397D01*
X006621Y014397D02*
X006775Y014397D01*
X006698Y014397D02*
X006698Y014627D01*
X006544Y014589D02*
X006506Y014627D01*
X006391Y014627D01*
X006391Y014397D01*
X005725Y014397D02*
X005571Y014397D01*
X005725Y014551D01*
X005725Y014589D01*
X005686Y014627D01*
X005610Y014627D01*
X005571Y014589D01*
X005494Y014589D02*
X005494Y014512D01*
X005456Y014474D01*
X005341Y014474D01*
X005418Y014474D02*
X005494Y014397D01*
X005341Y014397D02*
X005341Y014627D01*
X005456Y014627D01*
X005494Y014589D01*
D15*
X010997Y014605D02*
X010997Y014505D01*
X011147Y014505D01*
X011147Y014605D01*
X011147Y014653D02*
X011147Y014753D01*
X011072Y014703D02*
X011072Y014653D01*
X010997Y014653D02*
X011147Y014653D01*
X011072Y014555D02*
X011072Y014505D01*
X011097Y014458D02*
X011122Y014458D01*
X011147Y014433D01*
X011147Y014358D01*
X010997Y014358D01*
X010997Y014433D01*
X011022Y014458D01*
X011047Y014458D01*
X011072Y014433D01*
X011072Y014358D01*
X011072Y014433D02*
X011097Y014458D01*
X011147Y014311D02*
X010997Y014211D01*
X010997Y014311D02*
X011147Y014211D01*
X010997Y014653D02*
X010997Y014753D01*
M02*
