%
M48
M72
T01C0.0236
T02C0.0350
T03C0.0394
T04C0.0400
T05C0.0433
T06C0.0440
T07C0.0730
T08C0.1285
%
T01
X3902Y14256
X4602Y14806
X5602Y15506
X5702Y16606
X6202Y16456
X7002Y15606
X4602Y17306
X6752Y20056
X9002Y20406
X9852Y17306
X13052Y14006
X12302Y9956
X12002Y23156
X4352Y22906
T02
X1752Y19306
X1752Y18306
X1752Y17306
X1752Y16306
X1852Y11086
X852Y11086
X872Y8306
X1862Y8306
X2852Y8306
X2852Y11086
T03
X7432Y24506
X7432Y25506
X8432Y25506
X8432Y24506
X9432Y24506
X9432Y25506
T04
X14372Y9985
X14372Y8607
T05
X14932Y5456
X14932Y3956
T06
X5102Y7906
X5102Y11906
T07
X4782Y4006
X4782Y5976
X7732Y5976
X7732Y4006
X9282Y3996
X9282Y5966
X12232Y5966
X12232Y3996
T08
X8432Y8793
X14732Y26616
X2132Y26616
M30
