G75*
G70*
%OFA0B0*%
%FSLAX24Y24*%
%IPPOS*%
%LPD*%
%AMOC8*
5,1,8,0,0,1.08239X$1,22.5*
%
%ADD10C,0.0594*%
%ADD11C,0.0660*%
%ADD12C,0.1095*%
%ADD13C,0.0650*%
%ADD14C,0.0160*%
%ADD15C,0.0396*%
%ADD16C,0.0200*%
%ADD17C,0.0150*%
%ADD18C,0.0100*%
%ADD19C,0.0700*%
%ADD20C,0.0800*%
D10*
X007432Y024506D03*
X007432Y025506D03*
X008432Y025506D03*
X008432Y024506D03*
X009432Y024506D03*
X009432Y025506D03*
D11*
X001752Y019306D03*
X001752Y018306D03*
X001752Y017306D03*
X001752Y016306D03*
X001852Y011086D03*
X000852Y011086D03*
X000872Y008306D03*
X001862Y008306D03*
X002852Y008306D03*
X002852Y011086D03*
X005102Y011906D03*
X005102Y007906D03*
D12*
X004782Y005976D03*
X004782Y004006D03*
X007732Y004006D03*
X007732Y005976D03*
X009282Y005966D03*
X009282Y003996D03*
X012232Y003996D03*
X012232Y005966D03*
D13*
X014932Y005456D03*
X014932Y003956D03*
D14*
X015103Y004426D02*
X016279Y004426D01*
X016279Y004584D02*
X012659Y004584D01*
X012637Y004602D02*
X012554Y004650D01*
X012466Y004686D01*
X012374Y004711D01*
X012312Y004719D01*
X012312Y004076D01*
X012152Y004076D01*
X012152Y004719D01*
X012089Y004711D01*
X011997Y004686D01*
X011909Y004650D01*
X011827Y004602D01*
X011751Y004544D01*
X011684Y004476D01*
X011625Y004401D01*
X011578Y004318D01*
X011541Y004230D01*
X011517Y004138D01*
X011508Y004076D01*
X012151Y004076D01*
X012151Y003916D01*
X011508Y003916D01*
X011517Y003853D01*
X011541Y003761D01*
X011578Y003673D01*
X011625Y003591D01*
X011684Y003515D01*
X011751Y003448D01*
X011827Y003389D01*
X011909Y003342D01*
X011996Y003306D01*
X009517Y003306D01*
X009604Y003342D01*
X009687Y003389D01*
X009762Y003448D01*
X009830Y003515D01*
X009888Y003591D01*
X009936Y003673D01*
X009972Y003761D01*
X009997Y003853D01*
X010005Y003916D01*
X009362Y003916D01*
X009362Y004076D01*
X009202Y004076D01*
X009202Y004719D01*
X009139Y004711D01*
X009047Y004686D01*
X008959Y004650D01*
X008877Y004602D01*
X008852Y004583D01*
X008852Y005379D01*
X008877Y005359D01*
X008959Y005312D01*
X009047Y005275D01*
X009139Y005251D01*
X009202Y005242D01*
X009202Y005885D01*
X009362Y005885D01*
X009362Y005242D01*
X009424Y005251D01*
X009516Y005275D01*
X009604Y005312D01*
X009687Y005359D01*
X009762Y005418D01*
X009830Y005485D01*
X009888Y005561D01*
X009936Y005643D01*
X009972Y005731D01*
X009997Y005823D01*
X010005Y005886D01*
X009362Y005886D01*
X009362Y006046D01*
X009202Y006046D01*
X009202Y006689D01*
X009139Y006681D01*
X009047Y006656D01*
X008959Y006620D01*
X008877Y006572D01*
X008852Y006553D01*
X008852Y007969D01*
X008954Y008011D01*
X009214Y008270D01*
X009354Y008609D01*
X009354Y008976D01*
X009214Y009316D01*
X008954Y009575D01*
X008852Y009617D01*
X008852Y011406D01*
X007302Y011501D01*
X007302Y012015D01*
X007218Y012217D01*
X007063Y012372D01*
X006861Y012456D01*
X006642Y012456D01*
X004992Y012456D01*
X004790Y012372D01*
X004635Y012217D01*
X004552Y012015D01*
X004552Y011796D01*
X004606Y011666D01*
X004252Y011688D01*
X004252Y011956D01*
X004252Y012155D01*
X004176Y012339D01*
X004035Y012480D01*
X003851Y012556D01*
X001452Y012556D01*
X001452Y015927D01*
X001480Y015899D01*
X001656Y015826D01*
X001847Y015826D01*
X002024Y015899D01*
X002159Y016034D01*
X002232Y016210D01*
X002232Y016401D01*
X002159Y016578D01*
X002024Y016713D01*
X001847Y016786D01*
X001656Y016786D01*
X001480Y016713D01*
X001452Y016684D01*
X001452Y016893D01*
X001484Y016869D01*
X001556Y016833D01*
X001632Y016808D01*
X001711Y016796D01*
X001744Y016796D01*
X001744Y017298D01*
X001759Y017298D01*
X001759Y016796D01*
X001792Y016796D01*
X001871Y016808D01*
X001947Y016833D01*
X002019Y016869D01*
X002084Y016917D01*
X002141Y016973D01*
X002188Y017038D01*
X002224Y017110D01*
X002249Y017186D01*
X002262Y017266D01*
X002262Y017292D01*
X003652Y015902D01*
X003652Y014498D01*
X003607Y014453D01*
X003554Y014325D01*
X003554Y014186D01*
X003607Y014058D01*
X003704Y013961D01*
X003832Y013908D01*
X003971Y013908D01*
X004099Y013961D01*
X004197Y014058D01*
X004250Y014186D01*
X004250Y014325D01*
X004197Y014453D01*
X004152Y014498D01*
X004152Y015956D01*
X004152Y016055D01*
X004114Y016147D01*
X002179Y018082D01*
X002232Y018210D01*
X002232Y018401D01*
X002159Y018578D01*
X002024Y018713D01*
X001847Y018786D01*
X001656Y018786D01*
X001480Y018713D01*
X001452Y018684D01*
X001452Y018927D01*
X001480Y018899D01*
X001656Y018826D01*
X001847Y018826D01*
X002024Y018899D01*
X002159Y019034D01*
X002232Y019210D01*
X002232Y019401D01*
X002159Y019578D01*
X002024Y019713D01*
X001847Y019786D01*
X001656Y019786D01*
X001480Y019713D01*
X001452Y019684D01*
X001452Y022499D01*
X005459Y026506D01*
X008932Y026506D01*
X008932Y025406D01*
X009008Y025222D01*
X009148Y025082D01*
X009332Y025006D01*
X009531Y025006D01*
X009715Y025082D01*
X009856Y025222D01*
X009932Y025406D01*
X009932Y026906D01*
X009932Y027105D01*
X009856Y027289D01*
X009715Y027430D01*
X009531Y027506D01*
X005152Y027506D01*
X004968Y027430D01*
X004828Y027289D01*
X000666Y023128D01*
X000652Y027866D01*
X016232Y027866D01*
X016282Y003276D01*
X015432Y003268D01*
X015432Y004055D01*
X015356Y004239D01*
X015215Y004380D01*
X015031Y004456D01*
X014832Y004456D01*
X014648Y004380D01*
X014508Y004239D01*
X014432Y004055D01*
X014432Y003306D01*
X012467Y003306D01*
X012554Y003342D01*
X012637Y003389D01*
X012712Y003448D01*
X012780Y003515D01*
X012838Y003591D01*
X012886Y003673D01*
X012922Y003761D01*
X012947Y003853D01*
X012955Y003916D01*
X012312Y003916D01*
X012312Y004076D01*
X012955Y004076D01*
X012947Y004138D01*
X012922Y004230D01*
X012886Y004318D01*
X012838Y004401D01*
X012780Y004476D01*
X012712Y004544D01*
X012637Y004602D01*
X012819Y004426D02*
X014760Y004426D01*
X014536Y004267D02*
X012907Y004267D01*
X012951Y004109D02*
X014454Y004109D01*
X014432Y003950D02*
X012312Y003950D01*
X012312Y004109D02*
X012152Y004109D01*
X012152Y004267D02*
X012312Y004267D01*
X012312Y004426D02*
X012152Y004426D01*
X012152Y004584D02*
X012312Y004584D01*
X012151Y003950D02*
X009362Y003950D01*
X009362Y004076D02*
X010005Y004076D01*
X009997Y004138D01*
X009972Y004230D01*
X009936Y004318D01*
X009888Y004401D01*
X009830Y004476D01*
X009762Y004544D01*
X009687Y004602D01*
X009604Y004650D01*
X009516Y004686D01*
X009424Y004711D01*
X009362Y004719D01*
X009362Y004076D01*
X009362Y004109D02*
X009202Y004109D01*
X009202Y004267D02*
X009362Y004267D01*
X009362Y004426D02*
X009202Y004426D01*
X009202Y004584D02*
X009362Y004584D01*
X009709Y004584D02*
X011804Y004584D01*
X011645Y004426D02*
X009869Y004426D01*
X009957Y004267D02*
X011557Y004267D01*
X011513Y004109D02*
X010001Y004109D01*
X009980Y003792D02*
X011533Y003792D01*
X011601Y003633D02*
X009912Y003633D01*
X009789Y003475D02*
X011724Y003475D01*
X011971Y003316D02*
X009542Y003316D01*
X008854Y004584D02*
X008852Y004584D01*
X008852Y004743D02*
X016279Y004743D01*
X016278Y004901D02*
X008852Y004901D01*
X008852Y005060D02*
X014617Y005060D01*
X014603Y005071D02*
X014667Y005024D01*
X014738Y004988D01*
X014813Y004963D01*
X014892Y004951D01*
X014903Y004951D01*
X014903Y005427D01*
X014427Y005427D01*
X014427Y005416D01*
X014439Y005337D01*
X014464Y005262D01*
X014500Y005191D01*
X014547Y005127D01*
X014603Y005071D01*
X014486Y005219D02*
X008852Y005219D01*
X008852Y005377D02*
X008854Y005377D01*
X009202Y005377D02*
X009362Y005377D01*
X009362Y005536D02*
X009202Y005536D01*
X009202Y005694D02*
X009362Y005694D01*
X009362Y005853D02*
X009202Y005853D01*
X009362Y006011D02*
X012151Y006011D01*
X012151Y006046D02*
X012151Y005886D01*
X011508Y005886D01*
X011517Y005823D01*
X011541Y005731D01*
X011578Y005643D01*
X011625Y005561D01*
X011684Y005485D01*
X011751Y005418D01*
X011827Y005359D01*
X011909Y005312D01*
X011997Y005275D01*
X012089Y005251D01*
X012152Y005242D01*
X012152Y005885D01*
X012312Y005885D01*
X012312Y005242D01*
X012374Y005251D01*
X012466Y005275D01*
X012554Y005312D01*
X012637Y005359D01*
X012712Y005418D01*
X012780Y005485D01*
X012838Y005561D01*
X012886Y005643D01*
X012922Y005731D01*
X012947Y005823D01*
X012955Y005886D01*
X012312Y005886D01*
X012312Y006046D01*
X012955Y006046D01*
X012947Y006108D01*
X012922Y006200D01*
X012886Y006288D01*
X012838Y006371D01*
X012780Y006446D01*
X012712Y006514D01*
X012637Y006572D01*
X012554Y006620D01*
X012466Y006656D01*
X012374Y006681D01*
X012312Y006689D01*
X012312Y006046D01*
X012152Y006046D01*
X012152Y006689D01*
X012089Y006681D01*
X011997Y006656D01*
X011909Y006620D01*
X011827Y006572D01*
X011751Y006514D01*
X011684Y006446D01*
X011625Y006371D01*
X011578Y006288D01*
X011541Y006200D01*
X011517Y006108D01*
X011508Y006046D01*
X012151Y006046D01*
X012152Y006170D02*
X012312Y006170D01*
X012312Y006328D02*
X012152Y006328D01*
X012152Y006487D02*
X012312Y006487D01*
X012312Y006645D02*
X012152Y006645D01*
X011972Y006645D02*
X009542Y006645D01*
X009516Y006656D02*
X009604Y006620D01*
X009687Y006572D01*
X009762Y006514D01*
X009830Y006446D01*
X009888Y006371D01*
X009936Y006288D01*
X009972Y006200D01*
X009997Y006108D01*
X010005Y006046D01*
X009362Y006046D01*
X009362Y006689D01*
X009424Y006681D01*
X009516Y006656D01*
X009362Y006645D02*
X009202Y006645D01*
X009202Y006487D02*
X009362Y006487D01*
X009362Y006328D02*
X009202Y006328D01*
X009202Y006170D02*
X009362Y006170D01*
X009789Y006487D02*
X011724Y006487D01*
X011601Y006328D02*
X009912Y006328D01*
X009980Y006170D02*
X011533Y006170D01*
X011513Y005853D02*
X010001Y005853D01*
X009957Y005694D02*
X011557Y005694D01*
X011645Y005536D02*
X009869Y005536D01*
X009710Y005377D02*
X011804Y005377D01*
X012152Y005377D02*
X012312Y005377D01*
X012312Y005536D02*
X012152Y005536D01*
X012152Y005694D02*
X012312Y005694D01*
X012312Y005853D02*
X012152Y005853D01*
X012312Y006011D02*
X016276Y006011D01*
X016276Y005853D02*
X015244Y005853D01*
X015260Y005841D02*
X015196Y005887D01*
X015125Y005923D01*
X015050Y005948D01*
X014971Y005960D01*
X014960Y005960D01*
X014960Y005484D01*
X014903Y005484D01*
X014903Y005427D01*
X014960Y005427D01*
X014960Y004951D01*
X014971Y004951D01*
X015050Y004963D01*
X015125Y004988D01*
X015196Y005024D01*
X015260Y005071D01*
X015317Y005127D01*
X015363Y005191D01*
X015399Y005262D01*
X015424Y005337D01*
X015436Y005416D01*
X015436Y005427D01*
X014960Y005427D01*
X014960Y005484D01*
X015436Y005484D01*
X015436Y005495D01*
X015424Y005574D01*
X015399Y005649D01*
X015363Y005720D01*
X015317Y005784D01*
X015260Y005841D01*
X015377Y005694D02*
X016277Y005694D01*
X016277Y005536D02*
X015430Y005536D01*
X015430Y005377D02*
X016277Y005377D01*
X016278Y005219D02*
X015377Y005219D01*
X015246Y005060D02*
X016278Y005060D01*
X016280Y004267D02*
X015327Y004267D01*
X015409Y004109D02*
X016280Y004109D01*
X016280Y003950D02*
X015432Y003950D01*
X015432Y003792D02*
X016281Y003792D01*
X016281Y003633D02*
X015432Y003633D01*
X015432Y003475D02*
X016281Y003475D01*
X016282Y003316D02*
X015432Y003316D01*
X014432Y003316D02*
X012492Y003316D01*
X012739Y003475D02*
X014432Y003475D01*
X014432Y003633D02*
X012862Y003633D01*
X012930Y003792D02*
X014432Y003792D01*
X014903Y005060D02*
X014960Y005060D01*
X014960Y005219D02*
X014903Y005219D01*
X014903Y005377D02*
X014960Y005377D01*
X014903Y005484D02*
X014427Y005484D01*
X014427Y005495D01*
X014439Y005574D01*
X014464Y005649D01*
X014500Y005720D01*
X014547Y005784D01*
X014603Y005841D01*
X014667Y005887D01*
X014738Y005923D01*
X014813Y005948D01*
X014892Y005960D01*
X014903Y005960D01*
X014903Y005484D01*
X014903Y005536D02*
X014960Y005536D01*
X014960Y005694D02*
X014903Y005694D01*
X014903Y005853D02*
X014960Y005853D01*
X014619Y005853D02*
X012951Y005853D01*
X012907Y005694D02*
X014487Y005694D01*
X014433Y005536D02*
X012819Y005536D01*
X012660Y005377D02*
X014433Y005377D01*
X012930Y006170D02*
X016276Y006170D01*
X016275Y006328D02*
X012862Y006328D01*
X012739Y006487D02*
X016275Y006487D01*
X016275Y006645D02*
X012492Y006645D01*
X013965Y008335D02*
X013892Y008511D01*
X013892Y008702D01*
X013965Y008879D01*
X014100Y009014D01*
X014276Y009087D01*
X014467Y009087D01*
X014644Y009014D01*
X014779Y008879D01*
X014852Y008702D01*
X014852Y008511D01*
X014779Y008335D01*
X014644Y008200D01*
X014467Y008127D01*
X014276Y008127D01*
X014100Y008200D01*
X013965Y008335D01*
X013942Y008389D02*
X009263Y008389D01*
X009329Y008548D02*
X013892Y008548D01*
X013893Y008706D02*
X009354Y008706D01*
X009354Y008865D02*
X013959Y008865D01*
X014124Y009024D02*
X009335Y009024D01*
X009269Y009182D02*
X016270Y009182D01*
X016270Y009024D02*
X014619Y009024D01*
X014784Y008865D02*
X016270Y008865D01*
X016271Y008706D02*
X014850Y008706D01*
X014852Y008548D02*
X016271Y008548D01*
X016271Y008389D02*
X014801Y008389D01*
X014675Y008231D02*
X016272Y008231D01*
X016272Y008072D02*
X009016Y008072D01*
X009174Y008231D02*
X014069Y008231D01*
X014276Y009505D02*
X014467Y009505D01*
X014644Y009578D01*
X014779Y009713D01*
X014852Y009889D01*
X014852Y010080D01*
X014779Y010257D01*
X014644Y010392D01*
X014467Y010465D01*
X014276Y010465D01*
X014100Y010392D01*
X013965Y010257D01*
X013892Y010080D01*
X013892Y009889D01*
X013965Y009713D01*
X014100Y009578D01*
X014276Y009505D01*
X014020Y009658D02*
X008852Y009658D01*
X008852Y009816D02*
X013922Y009816D01*
X013892Y009975D02*
X008852Y009975D01*
X008852Y010133D02*
X013914Y010133D01*
X014000Y010292D02*
X008852Y010292D01*
X008852Y010450D02*
X014242Y010450D01*
X014501Y010450D02*
X016267Y010450D01*
X016267Y010292D02*
X014743Y010292D01*
X014830Y010133D02*
X016268Y010133D01*
X016268Y009975D02*
X014852Y009975D01*
X014821Y009816D02*
X016268Y009816D01*
X016269Y009658D02*
X014724Y009658D01*
X016269Y009499D02*
X009030Y009499D01*
X009189Y009341D02*
X016269Y009341D01*
X016267Y010609D02*
X008852Y010609D01*
X008852Y010768D02*
X016266Y010768D01*
X016266Y010926D02*
X008852Y010926D01*
X008852Y011085D02*
X016266Y011085D01*
X016265Y011243D02*
X008852Y011243D01*
X008852Y011402D02*
X016265Y011402D01*
X016265Y011560D02*
X007302Y011560D01*
X007302Y011719D02*
X016264Y011719D01*
X016264Y011877D02*
X007302Y011877D01*
X007293Y012036D02*
X016264Y012036D01*
X016264Y012194D02*
X007227Y012194D01*
X007082Y012353D02*
X016263Y012353D01*
X016263Y012512D02*
X003958Y012512D01*
X004161Y012353D02*
X004771Y012353D01*
X004626Y012194D02*
X004235Y012194D01*
X004252Y012036D02*
X004560Y012036D01*
X004552Y011877D02*
X004252Y011877D01*
X004252Y011719D02*
X004584Y011719D01*
X004045Y013938D02*
X016260Y013938D01*
X016260Y013780D02*
X001452Y013780D01*
X001452Y013938D02*
X003758Y013938D01*
X003591Y014097D02*
X001452Y014097D01*
X001452Y014256D02*
X003554Y014256D01*
X003590Y014414D02*
X001452Y014414D01*
X001452Y014573D02*
X003652Y014573D01*
X003652Y014731D02*
X001452Y014731D01*
X001452Y014890D02*
X003652Y014890D01*
X003652Y015048D02*
X001452Y015048D01*
X001452Y015207D02*
X003652Y015207D01*
X003652Y015365D02*
X001452Y015365D01*
X001452Y015524D02*
X003652Y015524D01*
X003652Y015682D02*
X001452Y015682D01*
X001452Y015841D02*
X001619Y015841D01*
X001884Y015841D02*
X003652Y015841D01*
X003554Y015999D02*
X002124Y015999D01*
X002210Y016158D02*
X003396Y016158D01*
X003237Y016317D02*
X002232Y016317D01*
X002201Y016475D02*
X003079Y016475D01*
X002920Y016634D02*
X002102Y016634D01*
X002118Y016951D02*
X002603Y016951D01*
X002444Y017109D02*
X002224Y017109D01*
X002262Y017268D02*
X002286Y017268D01*
X002676Y017585D02*
X004389Y017585D01*
X004404Y017601D02*
X004307Y017503D01*
X004254Y017375D01*
X004254Y017236D01*
X004307Y017108D01*
X004352Y017063D01*
X004352Y015048D01*
X004307Y015003D01*
X004254Y014875D01*
X004254Y014736D01*
X004307Y014608D01*
X004404Y014511D01*
X004532Y014458D01*
X004671Y014458D01*
X004799Y014511D01*
X004897Y014608D01*
X004950Y014736D01*
X004950Y014875D01*
X004897Y015003D01*
X004852Y015048D01*
X004852Y017063D01*
X004894Y017106D01*
X009559Y017106D01*
X009654Y017011D01*
X009782Y016958D01*
X009921Y016958D01*
X010049Y017011D01*
X010147Y017108D01*
X010200Y017236D01*
X010200Y017375D01*
X010147Y017503D01*
X010049Y017601D01*
X009921Y017654D01*
X009782Y017654D01*
X009654Y017601D01*
X009559Y017506D01*
X004894Y017506D01*
X004799Y017601D01*
X004671Y017654D01*
X004532Y017654D01*
X004404Y017601D01*
X004275Y017426D02*
X002834Y017426D01*
X002993Y017268D02*
X004254Y017268D01*
X004306Y017109D02*
X003151Y017109D01*
X003310Y016951D02*
X004352Y016951D01*
X004352Y016792D02*
X003469Y016792D01*
X003627Y016634D02*
X004352Y016634D01*
X004352Y016475D02*
X003786Y016475D01*
X003944Y016317D02*
X004352Y016317D01*
X004352Y016158D02*
X004103Y016158D01*
X004152Y015999D02*
X004352Y015999D01*
X004352Y015841D02*
X004152Y015841D01*
X004152Y015682D02*
X004352Y015682D01*
X004352Y015524D02*
X004152Y015524D01*
X004152Y015365D02*
X004352Y015365D01*
X004352Y015207D02*
X004152Y015207D01*
X004152Y015048D02*
X004352Y015048D01*
X004260Y014890D02*
X004152Y014890D01*
X004152Y014731D02*
X004256Y014731D01*
X004342Y014573D02*
X004152Y014573D01*
X004213Y014414D02*
X016259Y014414D01*
X016259Y014256D02*
X004250Y014256D01*
X004213Y014097D02*
X016260Y014097D01*
X016261Y013621D02*
X001452Y013621D01*
X001452Y013463D02*
X016261Y013463D01*
X016261Y013304D02*
X001452Y013304D01*
X001452Y013146D02*
X016262Y013146D01*
X016262Y012987D02*
X001452Y012987D01*
X001452Y012829D02*
X016262Y012829D01*
X016263Y012670D02*
X001452Y012670D01*
X001452Y016792D02*
X002762Y016792D01*
X002517Y017743D02*
X016252Y017743D01*
X016253Y017585D02*
X010065Y017585D01*
X010178Y017426D02*
X016253Y017426D01*
X016253Y017268D02*
X010200Y017268D01*
X010147Y017109D02*
X016254Y017109D01*
X016254Y016951D02*
X005778Y016951D01*
X005771Y016954D02*
X005632Y016954D01*
X005504Y016901D01*
X005407Y016803D01*
X005354Y016675D01*
X005354Y016536D01*
X005407Y016408D01*
X005502Y016313D01*
X005502Y015841D01*
X005404Y015801D01*
X005307Y015703D01*
X005254Y015575D01*
X005254Y015436D01*
X005307Y015308D01*
X005404Y015211D01*
X005532Y015158D01*
X005671Y015158D01*
X005799Y015211D01*
X005897Y015308D01*
X005950Y015436D01*
X005950Y015575D01*
X005902Y015691D01*
X005902Y016313D01*
X005997Y016408D01*
X006050Y016536D01*
X006050Y016675D01*
X005997Y016803D01*
X005899Y016901D01*
X005771Y016954D01*
X005625Y016951D02*
X004852Y016951D01*
X004852Y016792D02*
X005402Y016792D01*
X005354Y016634D02*
X004852Y016634D01*
X004852Y016475D02*
X005379Y016475D01*
X005498Y016317D02*
X004852Y016317D01*
X004852Y016158D02*
X005502Y016158D01*
X005502Y015999D02*
X004852Y015999D01*
X004852Y015841D02*
X005501Y015841D01*
X005298Y015682D02*
X004852Y015682D01*
X004852Y015524D02*
X005254Y015524D01*
X005283Y015365D02*
X004852Y015365D01*
X004852Y015207D02*
X005414Y015207D01*
X004944Y014890D02*
X016258Y014890D01*
X016258Y015048D02*
X004852Y015048D01*
X004948Y014731D02*
X016258Y014731D01*
X016259Y014573D02*
X004861Y014573D01*
X005790Y015207D02*
X016257Y015207D01*
X016257Y015365D02*
X005920Y015365D01*
X005950Y015524D02*
X016257Y015524D01*
X016256Y015682D02*
X005905Y015682D01*
X005902Y015841D02*
X016256Y015841D01*
X016256Y015999D02*
X005902Y015999D01*
X005902Y016158D02*
X016255Y016158D01*
X016255Y016317D02*
X005905Y016317D01*
X006024Y016475D02*
X016255Y016475D01*
X016254Y016634D02*
X006050Y016634D01*
X006001Y016792D02*
X016254Y016792D01*
X016252Y017902D02*
X002359Y017902D01*
X002200Y018061D02*
X016252Y018061D01*
X016251Y018219D02*
X002232Y018219D01*
X002232Y018378D02*
X016251Y018378D01*
X016251Y018536D02*
X002176Y018536D01*
X002041Y018695D02*
X016250Y018695D01*
X016250Y018853D02*
X001914Y018853D01*
X002137Y019012D02*
X016250Y019012D01*
X016249Y019170D02*
X002215Y019170D01*
X002232Y019329D02*
X016249Y019329D01*
X016249Y019487D02*
X002196Y019487D01*
X002090Y019646D02*
X016248Y019646D01*
X016248Y019805D02*
X001452Y019805D01*
X001452Y019963D02*
X016248Y019963D01*
X016247Y020122D02*
X001452Y020122D01*
X001452Y020280D02*
X016247Y020280D01*
X016247Y020439D02*
X001452Y020439D01*
X001452Y020597D02*
X016246Y020597D01*
X016246Y020756D02*
X001452Y020756D01*
X001452Y020914D02*
X016246Y020914D01*
X016245Y021073D02*
X001452Y021073D01*
X001452Y021231D02*
X016245Y021231D01*
X016245Y021390D02*
X001452Y021390D01*
X001452Y021549D02*
X016244Y021549D01*
X016244Y021707D02*
X001452Y021707D01*
X001452Y021866D02*
X016244Y021866D01*
X016244Y022024D02*
X001452Y022024D01*
X001452Y022183D02*
X016243Y022183D01*
X016243Y022341D02*
X001452Y022341D01*
X001453Y022500D02*
X016243Y022500D01*
X016242Y022658D02*
X001611Y022658D01*
X001770Y022817D02*
X016242Y022817D01*
X016242Y022975D02*
X001928Y022975D01*
X002087Y023134D02*
X016241Y023134D01*
X016241Y023292D02*
X002246Y023292D01*
X002404Y023451D02*
X016241Y023451D01*
X016240Y023610D02*
X002563Y023610D01*
X002721Y023768D02*
X016240Y023768D01*
X016240Y023927D02*
X002880Y023927D01*
X003038Y024085D02*
X007279Y024085D01*
X007343Y024059D02*
X007179Y024127D01*
X007053Y024253D01*
X006985Y024417D01*
X006985Y024595D01*
X007053Y024759D01*
X007179Y024884D01*
X007343Y024952D01*
X007521Y024952D01*
X007685Y024884D01*
X007810Y024759D01*
X007878Y024595D01*
X007878Y024417D01*
X007810Y024253D01*
X007685Y024127D01*
X007521Y024059D01*
X007343Y024059D01*
X007584Y024085D02*
X008279Y024085D01*
X008343Y024059D02*
X008179Y024127D01*
X008053Y024253D01*
X007985Y024417D01*
X007985Y024595D01*
X008053Y024759D01*
X008179Y024884D01*
X008343Y024952D01*
X008521Y024952D01*
X008685Y024884D01*
X008810Y024759D01*
X008878Y024595D01*
X008878Y024417D01*
X008810Y024253D01*
X008685Y024127D01*
X008521Y024059D01*
X008343Y024059D01*
X008584Y024085D02*
X009206Y024085D01*
X009182Y024098D02*
X009249Y024064D01*
X009320Y024041D01*
X009394Y024029D01*
X009413Y024029D01*
X009413Y024487D01*
X009450Y024487D01*
X009450Y024029D01*
X009469Y024029D01*
X009543Y024041D01*
X009615Y024064D01*
X009682Y024098D01*
X009742Y024142D01*
X009795Y024195D01*
X009839Y024256D01*
X009874Y024323D01*
X009897Y024394D01*
X009908Y024468D01*
X009908Y024487D01*
X009450Y024487D01*
X009450Y024524D01*
X009908Y024524D01*
X009908Y024543D01*
X009897Y024617D01*
X009874Y024689D01*
X009839Y024756D01*
X009795Y024816D01*
X009742Y024869D01*
X009682Y024913D01*
X009615Y024948D01*
X009543Y024971D01*
X009469Y024982D01*
X009450Y024982D01*
X009450Y024524D01*
X009413Y024524D01*
X009413Y024487D01*
X008955Y024487D01*
X008955Y024468D01*
X008967Y024394D01*
X008990Y024323D01*
X009024Y024256D01*
X009068Y024195D01*
X009121Y024142D01*
X009182Y024098D01*
X009032Y024244D02*
X008802Y024244D01*
X008872Y024402D02*
X008965Y024402D01*
X008955Y024524D02*
X009413Y024524D01*
X009413Y024982D01*
X009394Y024982D01*
X009320Y024971D01*
X009249Y024948D01*
X009182Y024913D01*
X009121Y024869D01*
X009068Y024816D01*
X009024Y024756D01*
X008990Y024689D01*
X008967Y024617D01*
X008955Y024543D01*
X008955Y024524D01*
X008958Y024561D02*
X008878Y024561D01*
X008827Y024719D02*
X009005Y024719D01*
X009133Y024878D02*
X008691Y024878D01*
X008521Y025059D02*
X008685Y025127D01*
X008810Y025253D01*
X008878Y025417D01*
X008878Y025595D01*
X008810Y025759D01*
X008685Y025884D01*
X008521Y025952D01*
X008343Y025952D01*
X008179Y025884D01*
X008053Y025759D01*
X007985Y025595D01*
X007985Y025417D01*
X008053Y025253D01*
X008179Y025127D01*
X008343Y025059D01*
X008521Y025059D01*
X008753Y025195D02*
X009035Y025195D01*
X008953Y025354D02*
X008852Y025354D01*
X008878Y025512D02*
X008932Y025512D01*
X008932Y025671D02*
X008847Y025671D01*
X008932Y025829D02*
X008740Y025829D01*
X008932Y025988D02*
X004941Y025988D01*
X005099Y026146D02*
X008932Y026146D01*
X008932Y026305D02*
X005258Y026305D01*
X005416Y026463D02*
X008932Y026463D01*
X008123Y025829D02*
X007740Y025829D01*
X007685Y025884D02*
X007521Y025952D01*
X007343Y025952D01*
X007179Y025884D01*
X007053Y025759D01*
X006985Y025595D01*
X006985Y025417D01*
X007053Y025253D01*
X007179Y025127D01*
X007343Y025059D01*
X007521Y025059D01*
X007685Y025127D01*
X007810Y025253D01*
X007878Y025417D01*
X007878Y025595D01*
X007810Y025759D01*
X007685Y025884D01*
X007847Y025671D02*
X008016Y025671D01*
X007985Y025512D02*
X007878Y025512D01*
X007852Y025354D02*
X008011Y025354D01*
X008110Y025195D02*
X007753Y025195D01*
X007691Y024878D02*
X008172Y024878D01*
X008037Y024719D02*
X007827Y024719D01*
X007878Y024561D02*
X007985Y024561D01*
X007991Y024402D02*
X007872Y024402D01*
X007802Y024244D02*
X008062Y024244D01*
X007172Y024878D02*
X003831Y024878D01*
X003990Y025036D02*
X009258Y025036D01*
X009413Y024878D02*
X009450Y024878D01*
X009450Y024719D02*
X009413Y024719D01*
X009413Y024561D02*
X009450Y024561D01*
X009450Y024402D02*
X009413Y024402D01*
X009413Y024244D02*
X009450Y024244D01*
X009450Y024085D02*
X009413Y024085D01*
X009657Y024085D02*
X016239Y024085D01*
X016239Y024244D02*
X009831Y024244D01*
X009898Y024402D02*
X016239Y024402D01*
X016238Y024561D02*
X009906Y024561D01*
X009858Y024719D02*
X016238Y024719D01*
X016238Y024878D02*
X009731Y024878D01*
X009605Y025036D02*
X016237Y025036D01*
X016237Y025195D02*
X009828Y025195D01*
X009910Y025354D02*
X016237Y025354D01*
X016236Y025512D02*
X009932Y025512D01*
X009932Y025671D02*
X016236Y025671D01*
X016236Y025829D02*
X015243Y025829D01*
X015254Y025834D02*
X015514Y026093D01*
X015654Y026432D01*
X015654Y026799D01*
X015514Y027138D01*
X015254Y027398D01*
X014915Y027538D01*
X014548Y027538D01*
X014209Y027398D01*
X013950Y027138D01*
X013809Y026799D01*
X013809Y026432D01*
X013950Y026093D01*
X014209Y025834D01*
X014548Y025693D01*
X014915Y025693D01*
X015254Y025834D01*
X015408Y025988D02*
X016235Y025988D01*
X016235Y026146D02*
X015536Y026146D01*
X015601Y026305D02*
X016235Y026305D01*
X016234Y026463D02*
X015654Y026463D01*
X015654Y026622D02*
X016234Y026622D01*
X016234Y026780D02*
X015654Y026780D01*
X015596Y026939D02*
X016234Y026939D01*
X016233Y027098D02*
X015531Y027098D01*
X015396Y027256D02*
X016233Y027256D01*
X016233Y027415D02*
X015213Y027415D01*
X014250Y027415D02*
X009730Y027415D01*
X009869Y027256D02*
X014067Y027256D01*
X013933Y027098D02*
X009932Y027098D01*
X009932Y026939D02*
X013867Y026939D01*
X013809Y026780D02*
X009932Y026780D01*
X009932Y026622D02*
X013809Y026622D01*
X013809Y026463D02*
X009932Y026463D01*
X009932Y026305D02*
X013862Y026305D01*
X013928Y026146D02*
X009932Y026146D01*
X009932Y025988D02*
X014055Y025988D01*
X014220Y025829D02*
X009932Y025829D01*
X007123Y025829D02*
X004782Y025829D01*
X004624Y025671D02*
X007016Y025671D01*
X006985Y025512D02*
X004465Y025512D01*
X004307Y025354D02*
X007011Y025354D01*
X007110Y025195D02*
X004148Y025195D01*
X003672Y024719D02*
X007037Y024719D01*
X006985Y024561D02*
X003514Y024561D01*
X003355Y024402D02*
X006991Y024402D01*
X007062Y024244D02*
X003197Y024244D01*
X002575Y025036D02*
X000661Y025036D01*
X000661Y024878D02*
X002417Y024878D01*
X002258Y024719D02*
X000662Y024719D01*
X000662Y024561D02*
X002100Y024561D01*
X001941Y024402D02*
X000663Y024402D01*
X000663Y024244D02*
X001783Y024244D01*
X001624Y024085D02*
X000664Y024085D01*
X000664Y023927D02*
X001466Y023927D01*
X001307Y023768D02*
X000665Y023768D01*
X000665Y023610D02*
X001149Y023610D01*
X000990Y023451D02*
X000666Y023451D01*
X000666Y023292D02*
X000831Y023292D01*
X000673Y023134D02*
X000666Y023134D01*
X000660Y025195D02*
X002734Y025195D01*
X002892Y025354D02*
X000660Y025354D01*
X000659Y025512D02*
X003051Y025512D01*
X003210Y025671D02*
X000659Y025671D01*
X000658Y025829D02*
X001620Y025829D01*
X001609Y025834D02*
X001948Y025693D01*
X002315Y025693D01*
X002654Y025834D01*
X002914Y026093D01*
X003054Y026432D01*
X003054Y026799D01*
X002914Y027138D01*
X002654Y027398D01*
X002315Y027538D01*
X001948Y027538D01*
X001609Y027398D01*
X001350Y027138D01*
X001209Y026799D01*
X001209Y026432D01*
X001350Y026093D01*
X001609Y025834D01*
X001455Y025988D02*
X000658Y025988D01*
X000657Y026146D02*
X001328Y026146D01*
X001262Y026305D02*
X000657Y026305D01*
X000656Y026463D02*
X001209Y026463D01*
X001209Y026622D02*
X000656Y026622D01*
X000655Y026780D02*
X001209Y026780D01*
X001267Y026939D02*
X000655Y026939D01*
X000654Y027098D02*
X001333Y027098D01*
X001467Y027256D02*
X000654Y027256D01*
X000653Y027415D02*
X001650Y027415D01*
X002613Y027415D02*
X004954Y027415D01*
X004795Y027256D02*
X002796Y027256D01*
X002931Y027098D02*
X004636Y027098D01*
X004478Y026939D02*
X002996Y026939D01*
X003054Y026780D02*
X004319Y026780D01*
X004161Y026622D02*
X003054Y026622D01*
X003054Y026463D02*
X004002Y026463D01*
X003844Y026305D02*
X003001Y026305D01*
X002936Y026146D02*
X003685Y026146D01*
X003527Y025988D02*
X002808Y025988D01*
X002643Y025829D02*
X003368Y025829D01*
X000653Y027573D02*
X016232Y027573D01*
X016232Y027732D02*
X000652Y027732D01*
X001452Y018853D02*
X001589Y018853D01*
X001462Y018695D02*
X001452Y018695D01*
X001744Y017268D02*
X001759Y017268D01*
X001744Y017109D02*
X001759Y017109D01*
X001744Y016951D02*
X001759Y016951D01*
X004815Y017585D02*
X009639Y017585D01*
X007002Y015706D02*
X006952Y015706D01*
X007002Y015706D02*
X007002Y015606D01*
X008852Y007914D02*
X016272Y007914D01*
X016273Y007755D02*
X008852Y007755D01*
X008852Y007597D02*
X016273Y007597D01*
X016273Y007438D02*
X008852Y007438D01*
X008852Y007280D02*
X016274Y007280D01*
X016274Y007121D02*
X008852Y007121D01*
X008852Y006963D02*
X016274Y006963D01*
X016274Y006804D02*
X008852Y006804D01*
X008852Y006645D02*
X009022Y006645D01*
D15*
X012302Y009956D03*
X013052Y014006D03*
X009852Y017306D03*
X009002Y020406D03*
X006752Y020056D03*
X004602Y017306D03*
X005702Y016606D03*
X006202Y016456D03*
X005602Y015506D03*
X004602Y014806D03*
X003902Y014256D03*
X007002Y015606D03*
X004352Y022906D03*
X012002Y023156D03*
D16*
X012252Y022106D01*
X006152Y023306D02*
X005952Y023306D01*
X005895Y023338D01*
X005836Y023367D01*
X005776Y023392D01*
X005714Y023414D01*
X005652Y023433D01*
X005588Y023448D01*
X005524Y023459D01*
X005459Y023467D01*
X005393Y023471D01*
X005328Y023472D01*
X005263Y023469D01*
X005198Y023462D01*
X005133Y023451D01*
X005069Y023437D01*
X005006Y023420D01*
X004944Y023398D01*
X004884Y023374D01*
X004825Y023346D01*
X004767Y023315D01*
X004711Y023280D01*
X004658Y023243D01*
X004606Y023202D01*
X004557Y023159D01*
X004511Y023113D01*
X004467Y023065D01*
X004426Y023014D01*
X004387Y022961D01*
X004352Y022906D01*
X003052Y024806D02*
X000952Y022706D01*
X001752Y018306D02*
X001752Y018156D01*
X003902Y016006D01*
X003902Y014256D01*
X004602Y014806D02*
X004602Y017306D01*
D17*
X006752Y020056D02*
X006902Y020306D01*
X009002Y020406D02*
X009002Y020506D01*
X013052Y014006D02*
X013052Y013956D01*
X013252Y013956D01*
X012002Y010056D02*
X012302Y009956D01*
D18*
X009852Y017306D02*
X004602Y017306D01*
X005702Y016606D02*
X005702Y015506D01*
X005602Y015506D01*
X006202Y016456D02*
X006152Y016506D01*
D19*
X000872Y008306D02*
X000872Y002806D01*
X014932Y002806D01*
X014932Y003956D01*
X003752Y009556D02*
X003752Y012056D01*
X000952Y012056D01*
X000952Y022706D01*
X005252Y027006D01*
X009432Y027006D01*
X009432Y025506D01*
X003752Y009556D02*
X001862Y009556D01*
X001862Y008306D01*
D20*
X004782Y005976D02*
X004782Y004006D01*
X004782Y005976D02*
X006752Y005976D01*
X006752Y011906D01*
X005102Y011906D01*
X006752Y005976D02*
X007732Y005976D01*
X007732Y004006D01*
M02*
