G75*
G70*
%OFA0B0*%
%FSLAX24Y24*%
%IPPOS*%
%LPD*%
%AMOC8*
5,1,8,0,0,1.08239X$1,22.5*
%
%ADD10C,0.0674*%
%ADD11C,0.0081*%
%ADD12C,0.0480*%
%ADD13C,0.0080*%
%ADD14R,0.1000X0.1100*%
%ADD15C,0.0740*%
%ADD16C,0.0081*%
%ADD17C,0.0081*%
%ADD18C,0.1175*%
%ADD19C,0.1365*%
%ADD20C,0.0730*%
%ADD21C,0.0082*%
%ADD22C,0.0083*%
%ADD23C,0.0083*%
%ADD24C,0.0476*%
D10*
X007432Y024506D03*
X007432Y025506D03*
X008432Y025506D03*
X008432Y024506D03*
X009432Y024506D03*
X009432Y025506D03*
D11*
X009453Y019910D02*
X009453Y019024D01*
X009297Y019024D01*
X009297Y019910D01*
X009453Y019910D01*
X009453Y019104D02*
X009297Y019104D01*
X009297Y019184D02*
X009453Y019184D01*
X009453Y019264D02*
X009297Y019264D01*
X009297Y019344D02*
X009453Y019344D01*
X009453Y019424D02*
X009297Y019424D01*
X009297Y019504D02*
X009453Y019504D01*
X009453Y019584D02*
X009297Y019584D01*
X009297Y019664D02*
X009453Y019664D01*
X009453Y019744D02*
X009297Y019744D01*
X009297Y019824D02*
X009453Y019824D01*
X009453Y019904D02*
X009297Y019904D01*
X009197Y019910D02*
X009197Y019024D01*
X009041Y019024D01*
X009041Y019910D01*
X009197Y019910D01*
X009197Y019104D02*
X009041Y019104D01*
X009041Y019184D02*
X009197Y019184D01*
X009197Y019264D02*
X009041Y019264D01*
X009041Y019344D02*
X009197Y019344D01*
X009197Y019424D02*
X009041Y019424D01*
X009041Y019504D02*
X009197Y019504D01*
X009197Y019584D02*
X009041Y019584D01*
X009041Y019664D02*
X009197Y019664D01*
X009197Y019744D02*
X009041Y019744D01*
X009041Y019824D02*
X009197Y019824D01*
X009197Y019904D02*
X009041Y019904D01*
X008941Y019910D02*
X008941Y019024D01*
X008785Y019024D01*
X008785Y019910D01*
X008941Y019910D01*
X008941Y019104D02*
X008785Y019104D01*
X008785Y019184D02*
X008941Y019184D01*
X008941Y019264D02*
X008785Y019264D01*
X008785Y019344D02*
X008941Y019344D01*
X008941Y019424D02*
X008785Y019424D01*
X008785Y019504D02*
X008941Y019504D01*
X008941Y019584D02*
X008785Y019584D01*
X008785Y019664D02*
X008941Y019664D01*
X008941Y019744D02*
X008785Y019744D01*
X008785Y019824D02*
X008941Y019824D01*
X008941Y019904D02*
X008785Y019904D01*
X008686Y019910D02*
X008686Y019024D01*
X008530Y019024D01*
X008530Y019910D01*
X008686Y019910D01*
X008686Y019104D02*
X008530Y019104D01*
X008530Y019184D02*
X008686Y019184D01*
X008686Y019264D02*
X008530Y019264D01*
X008530Y019344D02*
X008686Y019344D01*
X008686Y019424D02*
X008530Y019424D01*
X008530Y019504D02*
X008686Y019504D01*
X008686Y019584D02*
X008530Y019584D01*
X008530Y019664D02*
X008686Y019664D01*
X008686Y019744D02*
X008530Y019744D01*
X008530Y019824D02*
X008686Y019824D01*
X008686Y019904D02*
X008530Y019904D01*
X008430Y019910D02*
X008430Y019024D01*
X008274Y019024D01*
X008274Y019910D01*
X008430Y019910D01*
X008430Y019104D02*
X008274Y019104D01*
X008274Y019184D02*
X008430Y019184D01*
X008430Y019264D02*
X008274Y019264D01*
X008274Y019344D02*
X008430Y019344D01*
X008430Y019424D02*
X008274Y019424D01*
X008274Y019504D02*
X008430Y019504D01*
X008430Y019584D02*
X008274Y019584D01*
X008274Y019664D02*
X008430Y019664D01*
X008430Y019744D02*
X008274Y019744D01*
X008274Y019824D02*
X008430Y019824D01*
X008430Y019904D02*
X008274Y019904D01*
X009709Y019910D02*
X009709Y019024D01*
X009553Y019024D01*
X009553Y019910D01*
X009709Y019910D01*
X009709Y019104D02*
X009553Y019104D01*
X009553Y019184D02*
X009709Y019184D01*
X009709Y019264D02*
X009553Y019264D01*
X009553Y019344D02*
X009709Y019344D01*
X009709Y019424D02*
X009553Y019424D01*
X009553Y019504D02*
X009709Y019504D01*
X009709Y019584D02*
X009553Y019584D01*
X009553Y019664D02*
X009709Y019664D01*
X009709Y019744D02*
X009553Y019744D01*
X009553Y019824D02*
X009709Y019824D01*
X009709Y019904D02*
X009553Y019904D01*
X009965Y019910D02*
X009965Y019024D01*
X009809Y019024D01*
X009809Y019910D01*
X009965Y019910D01*
X009965Y019104D02*
X009809Y019104D01*
X009809Y019184D02*
X009965Y019184D01*
X009965Y019264D02*
X009809Y019264D01*
X009809Y019344D02*
X009965Y019344D01*
X009965Y019424D02*
X009809Y019424D01*
X009809Y019504D02*
X009965Y019504D01*
X009965Y019584D02*
X009809Y019584D01*
X009809Y019664D02*
X009965Y019664D01*
X009965Y019744D02*
X009809Y019744D01*
X009809Y019824D02*
X009965Y019824D01*
X009965Y019904D02*
X009809Y019904D01*
X010221Y019910D02*
X010221Y019024D01*
X010065Y019024D01*
X010065Y019910D01*
X010221Y019910D01*
X010221Y019104D02*
X010065Y019104D01*
X010065Y019184D02*
X010221Y019184D01*
X010221Y019264D02*
X010065Y019264D01*
X010065Y019344D02*
X010221Y019344D01*
X010221Y019424D02*
X010065Y019424D01*
X010065Y019504D02*
X010221Y019504D01*
X010221Y019584D02*
X010065Y019584D01*
X010065Y019664D02*
X010221Y019664D01*
X010221Y019744D02*
X010065Y019744D01*
X010065Y019824D02*
X010221Y019824D01*
X010221Y019904D02*
X010065Y019904D01*
X010477Y019910D02*
X010477Y019024D01*
X010321Y019024D01*
X010321Y019910D01*
X010477Y019910D01*
X010477Y019104D02*
X010321Y019104D01*
X010321Y019184D02*
X010477Y019184D01*
X010477Y019264D02*
X010321Y019264D01*
X010321Y019344D02*
X010477Y019344D01*
X010477Y019424D02*
X010321Y019424D01*
X010321Y019504D02*
X010477Y019504D01*
X010477Y019584D02*
X010321Y019584D01*
X010321Y019664D02*
X010477Y019664D01*
X010477Y019744D02*
X010321Y019744D01*
X010321Y019824D02*
X010477Y019824D01*
X010477Y019904D02*
X010321Y019904D01*
X010733Y019910D02*
X010733Y019024D01*
X010577Y019024D01*
X010577Y019910D01*
X010733Y019910D01*
X010733Y019104D02*
X010577Y019104D01*
X010577Y019184D02*
X010733Y019184D01*
X010733Y019264D02*
X010577Y019264D01*
X010577Y019344D02*
X010733Y019344D01*
X010733Y019424D02*
X010577Y019424D01*
X010577Y019504D02*
X010733Y019504D01*
X010733Y019584D02*
X010577Y019584D01*
X010577Y019664D02*
X010733Y019664D01*
X010733Y019744D02*
X010577Y019744D01*
X010577Y019824D02*
X010733Y019824D01*
X010733Y019904D02*
X010577Y019904D01*
X010989Y019910D02*
X010989Y019024D01*
X010833Y019024D01*
X010833Y019910D01*
X010989Y019910D01*
X010989Y019104D02*
X010833Y019104D01*
X010833Y019184D02*
X010989Y019184D01*
X010989Y019264D02*
X010833Y019264D01*
X010833Y019344D02*
X010989Y019344D01*
X010989Y019424D02*
X010833Y019424D01*
X010833Y019504D02*
X010989Y019504D01*
X010989Y019584D02*
X010833Y019584D01*
X010833Y019664D02*
X010989Y019664D01*
X010989Y019744D02*
X010833Y019744D01*
X010833Y019824D02*
X010989Y019824D01*
X010989Y019904D02*
X010833Y019904D01*
X011245Y019910D02*
X011245Y019024D01*
X011089Y019024D01*
X011089Y019910D01*
X011245Y019910D01*
X011245Y019104D02*
X011089Y019104D01*
X011089Y019184D02*
X011245Y019184D01*
X011245Y019264D02*
X011089Y019264D01*
X011089Y019344D02*
X011245Y019344D01*
X011245Y019424D02*
X011089Y019424D01*
X011089Y019504D02*
X011245Y019504D01*
X011245Y019584D02*
X011089Y019584D01*
X011089Y019664D02*
X011245Y019664D01*
X011245Y019744D02*
X011089Y019744D01*
X011089Y019824D02*
X011245Y019824D01*
X011245Y019904D02*
X011089Y019904D01*
X011501Y019910D02*
X011501Y019024D01*
X011345Y019024D01*
X011345Y019910D01*
X011501Y019910D01*
X011501Y019104D02*
X011345Y019104D01*
X011345Y019184D02*
X011501Y019184D01*
X011501Y019264D02*
X011345Y019264D01*
X011345Y019344D02*
X011501Y019344D01*
X011501Y019424D02*
X011345Y019424D01*
X011345Y019504D02*
X011501Y019504D01*
X011501Y019584D02*
X011345Y019584D01*
X011345Y019664D02*
X011501Y019664D01*
X011501Y019744D02*
X011345Y019744D01*
X011345Y019824D02*
X011501Y019824D01*
X011501Y019904D02*
X011345Y019904D01*
X011756Y019910D02*
X011756Y019024D01*
X011600Y019024D01*
X011600Y019910D01*
X011756Y019910D01*
X011756Y019104D02*
X011600Y019104D01*
X011600Y019184D02*
X011756Y019184D01*
X011756Y019264D02*
X011600Y019264D01*
X011600Y019344D02*
X011756Y019344D01*
X011756Y019424D02*
X011600Y019424D01*
X011600Y019504D02*
X011756Y019504D01*
X011756Y019584D02*
X011600Y019584D01*
X011600Y019664D02*
X011756Y019664D01*
X011756Y019744D02*
X011600Y019744D01*
X011600Y019824D02*
X011756Y019824D01*
X011756Y019904D02*
X011600Y019904D01*
X011756Y016839D02*
X011756Y015953D01*
X011600Y015953D01*
X011600Y016839D01*
X011756Y016839D01*
X011756Y016033D02*
X011600Y016033D01*
X011600Y016113D02*
X011756Y016113D01*
X011756Y016193D02*
X011600Y016193D01*
X011600Y016273D02*
X011756Y016273D01*
X011756Y016353D02*
X011600Y016353D01*
X011600Y016433D02*
X011756Y016433D01*
X011756Y016513D02*
X011600Y016513D01*
X011600Y016593D02*
X011756Y016593D01*
X011756Y016673D02*
X011600Y016673D01*
X011600Y016753D02*
X011756Y016753D01*
X011756Y016833D02*
X011600Y016833D01*
X011501Y016839D02*
X011501Y015953D01*
X011345Y015953D01*
X011345Y016839D01*
X011501Y016839D01*
X011501Y016033D02*
X011345Y016033D01*
X011345Y016113D02*
X011501Y016113D01*
X011501Y016193D02*
X011345Y016193D01*
X011345Y016273D02*
X011501Y016273D01*
X011501Y016353D02*
X011345Y016353D01*
X011345Y016433D02*
X011501Y016433D01*
X011501Y016513D02*
X011345Y016513D01*
X011345Y016593D02*
X011501Y016593D01*
X011501Y016673D02*
X011345Y016673D01*
X011345Y016753D02*
X011501Y016753D01*
X011501Y016833D02*
X011345Y016833D01*
X011245Y016839D02*
X011245Y015953D01*
X011089Y015953D01*
X011089Y016839D01*
X011245Y016839D01*
X011245Y016033D02*
X011089Y016033D01*
X011089Y016113D02*
X011245Y016113D01*
X011245Y016193D02*
X011089Y016193D01*
X011089Y016273D02*
X011245Y016273D01*
X011245Y016353D02*
X011089Y016353D01*
X011089Y016433D02*
X011245Y016433D01*
X011245Y016513D02*
X011089Y016513D01*
X011089Y016593D02*
X011245Y016593D01*
X011245Y016673D02*
X011089Y016673D01*
X011089Y016753D02*
X011245Y016753D01*
X011245Y016833D02*
X011089Y016833D01*
X010989Y016839D02*
X010989Y015953D01*
X010833Y015953D01*
X010833Y016839D01*
X010989Y016839D01*
X010989Y016033D02*
X010833Y016033D01*
X010833Y016113D02*
X010989Y016113D01*
X010989Y016193D02*
X010833Y016193D01*
X010833Y016273D02*
X010989Y016273D01*
X010989Y016353D02*
X010833Y016353D01*
X010833Y016433D02*
X010989Y016433D01*
X010989Y016513D02*
X010833Y016513D01*
X010833Y016593D02*
X010989Y016593D01*
X010989Y016673D02*
X010833Y016673D01*
X010833Y016753D02*
X010989Y016753D01*
X010989Y016833D02*
X010833Y016833D01*
X010733Y016839D02*
X010733Y015953D01*
X010577Y015953D01*
X010577Y016839D01*
X010733Y016839D01*
X010733Y016033D02*
X010577Y016033D01*
X010577Y016113D02*
X010733Y016113D01*
X010733Y016193D02*
X010577Y016193D01*
X010577Y016273D02*
X010733Y016273D01*
X010733Y016353D02*
X010577Y016353D01*
X010577Y016433D02*
X010733Y016433D01*
X010733Y016513D02*
X010577Y016513D01*
X010577Y016593D02*
X010733Y016593D01*
X010733Y016673D02*
X010577Y016673D01*
X010577Y016753D02*
X010733Y016753D01*
X010733Y016833D02*
X010577Y016833D01*
X010477Y016839D02*
X010477Y015953D01*
X010321Y015953D01*
X010321Y016839D01*
X010477Y016839D01*
X010477Y016033D02*
X010321Y016033D01*
X010321Y016113D02*
X010477Y016113D01*
X010477Y016193D02*
X010321Y016193D01*
X010321Y016273D02*
X010477Y016273D01*
X010477Y016353D02*
X010321Y016353D01*
X010321Y016433D02*
X010477Y016433D01*
X010477Y016513D02*
X010321Y016513D01*
X010321Y016593D02*
X010477Y016593D01*
X010477Y016673D02*
X010321Y016673D01*
X010321Y016753D02*
X010477Y016753D01*
X010477Y016833D02*
X010321Y016833D01*
X010221Y016839D02*
X010221Y015953D01*
X010065Y015953D01*
X010065Y016839D01*
X010221Y016839D01*
X010221Y016033D02*
X010065Y016033D01*
X010065Y016113D02*
X010221Y016113D01*
X010221Y016193D02*
X010065Y016193D01*
X010065Y016273D02*
X010221Y016273D01*
X010221Y016353D02*
X010065Y016353D01*
X010065Y016433D02*
X010221Y016433D01*
X010221Y016513D02*
X010065Y016513D01*
X010065Y016593D02*
X010221Y016593D01*
X010221Y016673D02*
X010065Y016673D01*
X010065Y016753D02*
X010221Y016753D01*
X010221Y016833D02*
X010065Y016833D01*
X009965Y016839D02*
X009965Y015953D01*
X009809Y015953D01*
X009809Y016839D01*
X009965Y016839D01*
X009965Y016033D02*
X009809Y016033D01*
X009809Y016113D02*
X009965Y016113D01*
X009965Y016193D02*
X009809Y016193D01*
X009809Y016273D02*
X009965Y016273D01*
X009965Y016353D02*
X009809Y016353D01*
X009809Y016433D02*
X009965Y016433D01*
X009965Y016513D02*
X009809Y016513D01*
X009809Y016593D02*
X009965Y016593D01*
X009965Y016673D02*
X009809Y016673D01*
X009809Y016753D02*
X009965Y016753D01*
X009965Y016833D02*
X009809Y016833D01*
X009709Y016839D02*
X009709Y015953D01*
X009553Y015953D01*
X009553Y016839D01*
X009709Y016839D01*
X009709Y016033D02*
X009553Y016033D01*
X009553Y016113D02*
X009709Y016113D01*
X009709Y016193D02*
X009553Y016193D01*
X009553Y016273D02*
X009709Y016273D01*
X009709Y016353D02*
X009553Y016353D01*
X009553Y016433D02*
X009709Y016433D01*
X009709Y016513D02*
X009553Y016513D01*
X009553Y016593D02*
X009709Y016593D01*
X009709Y016673D02*
X009553Y016673D01*
X009553Y016753D02*
X009709Y016753D01*
X009709Y016833D02*
X009553Y016833D01*
X009453Y016839D02*
X009453Y015953D01*
X009297Y015953D01*
X009297Y016839D01*
X009453Y016839D01*
X009453Y016033D02*
X009297Y016033D01*
X009297Y016113D02*
X009453Y016113D01*
X009453Y016193D02*
X009297Y016193D01*
X009297Y016273D02*
X009453Y016273D01*
X009453Y016353D02*
X009297Y016353D01*
X009297Y016433D02*
X009453Y016433D01*
X009453Y016513D02*
X009297Y016513D01*
X009297Y016593D02*
X009453Y016593D01*
X009453Y016673D02*
X009297Y016673D01*
X009297Y016753D02*
X009453Y016753D01*
X009453Y016833D02*
X009297Y016833D01*
X009197Y016839D02*
X009197Y015953D01*
X009041Y015953D01*
X009041Y016839D01*
X009197Y016839D01*
X009197Y016033D02*
X009041Y016033D01*
X009041Y016113D02*
X009197Y016113D01*
X009197Y016193D02*
X009041Y016193D01*
X009041Y016273D02*
X009197Y016273D01*
X009197Y016353D02*
X009041Y016353D01*
X009041Y016433D02*
X009197Y016433D01*
X009197Y016513D02*
X009041Y016513D01*
X009041Y016593D02*
X009197Y016593D01*
X009197Y016673D02*
X009041Y016673D01*
X009041Y016753D02*
X009197Y016753D01*
X009197Y016833D02*
X009041Y016833D01*
X008941Y016839D02*
X008941Y015953D01*
X008785Y015953D01*
X008785Y016839D01*
X008941Y016839D01*
X008941Y016033D02*
X008785Y016033D01*
X008785Y016113D02*
X008941Y016113D01*
X008941Y016193D02*
X008785Y016193D01*
X008785Y016273D02*
X008941Y016273D01*
X008941Y016353D02*
X008785Y016353D01*
X008785Y016433D02*
X008941Y016433D01*
X008941Y016513D02*
X008785Y016513D01*
X008785Y016593D02*
X008941Y016593D01*
X008941Y016673D02*
X008785Y016673D01*
X008785Y016753D02*
X008941Y016753D01*
X008941Y016833D02*
X008785Y016833D01*
X008686Y016839D02*
X008686Y015953D01*
X008530Y015953D01*
X008530Y016839D01*
X008686Y016839D01*
X008686Y016033D02*
X008530Y016033D01*
X008530Y016113D02*
X008686Y016113D01*
X008686Y016193D02*
X008530Y016193D01*
X008530Y016273D02*
X008686Y016273D01*
X008686Y016353D02*
X008530Y016353D01*
X008530Y016433D02*
X008686Y016433D01*
X008686Y016513D02*
X008530Y016513D01*
X008530Y016593D02*
X008686Y016593D01*
X008686Y016673D02*
X008530Y016673D01*
X008530Y016753D02*
X008686Y016753D01*
X008686Y016833D02*
X008530Y016833D01*
X008430Y016839D02*
X008430Y015953D01*
X008274Y015953D01*
X008274Y016839D01*
X008430Y016839D01*
X008430Y016033D02*
X008274Y016033D01*
X008274Y016113D02*
X008430Y016113D01*
X008430Y016193D02*
X008274Y016193D01*
X008274Y016273D02*
X008430Y016273D01*
X008430Y016353D02*
X008274Y016353D01*
X008274Y016433D02*
X008430Y016433D01*
X008430Y016513D02*
X008274Y016513D01*
X008274Y016593D02*
X008430Y016593D01*
X008430Y016673D02*
X008274Y016673D01*
X008274Y016753D02*
X008430Y016753D01*
X008430Y016833D02*
X008274Y016833D01*
D12*
X014372Y009985D03*
X014372Y008607D03*
D13*
X013879Y008764D02*
X013093Y008764D01*
X013879Y008764D02*
X013879Y008568D01*
X013093Y008568D01*
X013093Y008764D01*
X013093Y008647D02*
X013879Y008647D01*
X013879Y008726D02*
X013093Y008726D01*
X013093Y009079D02*
X013879Y009079D01*
X013879Y008883D01*
X013093Y008883D01*
X013093Y009079D01*
X013093Y008962D02*
X013879Y008962D01*
X013879Y009041D02*
X013093Y009041D01*
X013093Y009394D02*
X013879Y009394D01*
X013879Y009198D01*
X013093Y009198D01*
X013093Y009394D01*
X013093Y009277D02*
X013879Y009277D01*
X013879Y009356D02*
X013093Y009356D01*
X013093Y009709D02*
X013879Y009709D01*
X013879Y009513D01*
X013093Y009513D01*
X013093Y009709D01*
X013093Y009592D02*
X013879Y009592D01*
X013879Y009671D02*
X013093Y009671D01*
X013093Y010024D02*
X013879Y010024D01*
X013879Y009828D01*
X013093Y009828D01*
X013093Y010024D01*
X013093Y009907D02*
X013879Y009907D01*
X013879Y009986D02*
X013093Y009986D01*
X005942Y017105D02*
X005844Y017105D01*
X005844Y017499D01*
X005942Y017499D01*
X005942Y017105D01*
X005942Y017184D02*
X005844Y017184D01*
X005844Y017263D02*
X005942Y017263D01*
X005942Y017342D02*
X005844Y017342D01*
X005844Y017421D02*
X005942Y017421D01*
X005745Y017105D02*
X005647Y017105D01*
X005647Y017499D01*
X005745Y017499D01*
X005745Y017105D01*
X005745Y017184D02*
X005647Y017184D01*
X005647Y017263D02*
X005745Y017263D01*
X005745Y017342D02*
X005647Y017342D01*
X005647Y017421D02*
X005745Y017421D01*
X005548Y017105D02*
X005450Y017105D01*
X005450Y017499D01*
X005548Y017499D01*
X005548Y017105D01*
X005548Y017184D02*
X005450Y017184D01*
X005450Y017263D02*
X005548Y017263D01*
X005548Y017342D02*
X005450Y017342D01*
X005450Y017421D02*
X005548Y017421D01*
X005351Y017105D02*
X005253Y017105D01*
X005253Y017499D01*
X005351Y017499D01*
X005351Y017105D01*
X005351Y017184D02*
X005253Y017184D01*
X005253Y017263D02*
X005351Y017263D01*
X005351Y017342D02*
X005253Y017342D01*
X005253Y017421D02*
X005351Y017421D01*
X005154Y017105D02*
X005056Y017105D01*
X005056Y017499D01*
X005154Y017499D01*
X005154Y017105D01*
X005154Y017184D02*
X005056Y017184D01*
X005056Y017263D02*
X005154Y017263D01*
X005154Y017342D02*
X005056Y017342D01*
X005056Y017421D02*
X005154Y017421D01*
X005154Y019163D02*
X005056Y019163D01*
X005154Y019163D02*
X005154Y018769D01*
X005056Y018769D01*
X005056Y019163D01*
X005056Y018848D02*
X005154Y018848D01*
X005154Y018927D02*
X005056Y018927D01*
X005056Y019006D02*
X005154Y019006D01*
X005154Y019085D02*
X005056Y019085D01*
X005253Y019163D02*
X005351Y019163D01*
X005351Y018769D01*
X005253Y018769D01*
X005253Y019163D01*
X005253Y018848D02*
X005351Y018848D01*
X005351Y018927D02*
X005253Y018927D01*
X005253Y019006D02*
X005351Y019006D01*
X005351Y019085D02*
X005253Y019085D01*
X005450Y019163D02*
X005548Y019163D01*
X005548Y018769D01*
X005450Y018769D01*
X005450Y019163D01*
X005450Y018848D02*
X005548Y018848D01*
X005548Y018927D02*
X005450Y018927D01*
X005450Y019006D02*
X005548Y019006D01*
X005548Y019085D02*
X005450Y019085D01*
X005647Y019163D02*
X005745Y019163D01*
X005745Y018769D01*
X005647Y018769D01*
X005647Y019163D01*
X005647Y018848D02*
X005745Y018848D01*
X005745Y018927D02*
X005647Y018927D01*
X005647Y019006D02*
X005745Y019006D01*
X005745Y019085D02*
X005647Y019085D01*
X005844Y019163D02*
X005942Y019163D01*
X005942Y018769D01*
X005844Y018769D01*
X005844Y019163D01*
X005844Y018848D02*
X005942Y018848D01*
X005942Y018927D02*
X005844Y018927D01*
X005844Y019006D02*
X005942Y019006D01*
X005942Y019085D02*
X005844Y019085D01*
D14*
X013572Y010946D03*
X013572Y007646D03*
X015672Y007646D03*
X015672Y010946D03*
D15*
X005102Y011906D03*
X002852Y011086D03*
X001852Y011086D03*
X000852Y011086D03*
X000872Y008306D03*
X001862Y008306D03*
X002852Y008306D03*
X005102Y007906D03*
X001752Y016306D03*
X001752Y017306D03*
X001752Y018306D03*
X001752Y019306D03*
D16*
X003514Y023608D02*
X003770Y023608D01*
X003514Y023608D02*
X003514Y024024D01*
X003770Y024024D01*
X003770Y023608D01*
X003770Y023688D02*
X003514Y023688D01*
X003514Y023768D02*
X003770Y023768D01*
X003770Y023848D02*
X003514Y023848D01*
X003514Y023928D02*
X003770Y023928D01*
X003770Y024008D02*
X003514Y024008D01*
X003514Y024474D02*
X003770Y024474D01*
X003514Y024474D02*
X003514Y024890D01*
X003770Y024890D01*
X003770Y024474D01*
X003770Y024554D02*
X003514Y024554D01*
X003514Y024634D02*
X003770Y024634D01*
X003770Y024714D02*
X003514Y024714D01*
X003514Y024794D02*
X003770Y024794D01*
X003770Y024874D02*
X003514Y024874D01*
X003888Y023608D02*
X004144Y023608D01*
X003888Y023608D02*
X003888Y024024D01*
X004144Y024024D01*
X004144Y023608D01*
X004144Y023688D02*
X003888Y023688D01*
X003888Y023768D02*
X004144Y023768D01*
X004144Y023848D02*
X003888Y023848D01*
X003888Y023928D02*
X004144Y023928D01*
X004144Y024008D02*
X003888Y024008D01*
X004262Y023608D02*
X004518Y023608D01*
X004262Y023608D02*
X004262Y024024D01*
X004518Y024024D01*
X004518Y023608D01*
X004518Y023688D02*
X004262Y023688D01*
X004262Y023768D02*
X004518Y023768D01*
X004518Y023848D02*
X004262Y023848D01*
X004262Y023928D02*
X004518Y023928D01*
X004518Y024008D02*
X004262Y024008D01*
X004262Y024474D02*
X004518Y024474D01*
X004262Y024474D02*
X004262Y024890D01*
X004518Y024890D01*
X004518Y024474D01*
X004518Y024554D02*
X004262Y024554D01*
X004262Y024634D02*
X004518Y024634D01*
X004518Y024714D02*
X004262Y024714D01*
X004262Y024794D02*
X004518Y024794D01*
X004518Y024874D02*
X004262Y024874D01*
X012024Y024364D02*
X012280Y024364D01*
X012024Y024364D02*
X012024Y024780D01*
X012280Y024780D01*
X012280Y024364D01*
X012280Y024444D02*
X012024Y024444D01*
X012024Y024524D02*
X012280Y024524D01*
X012280Y024604D02*
X012024Y024604D01*
X012024Y024684D02*
X012280Y024684D01*
X012280Y024764D02*
X012024Y024764D01*
X012024Y023498D02*
X012280Y023498D01*
X012024Y023498D02*
X012024Y023914D01*
X012280Y023914D01*
X012280Y023498D01*
X012280Y023578D02*
X012024Y023578D01*
X012024Y023658D02*
X012280Y023658D01*
X012280Y023738D02*
X012024Y023738D01*
X012024Y023818D02*
X012280Y023818D01*
X012280Y023898D02*
X012024Y023898D01*
X012398Y023498D02*
X012654Y023498D01*
X012398Y023498D02*
X012398Y023914D01*
X012654Y023914D01*
X012654Y023498D01*
X012654Y023578D02*
X012398Y023578D01*
X012398Y023658D02*
X012654Y023658D01*
X012654Y023738D02*
X012398Y023738D01*
X012398Y023818D02*
X012654Y023818D01*
X012654Y023898D02*
X012398Y023898D01*
X012772Y023498D02*
X013028Y023498D01*
X012772Y023498D02*
X012772Y023914D01*
X013028Y023914D01*
X013028Y023498D01*
X013028Y023578D02*
X012772Y023578D01*
X012772Y023658D02*
X013028Y023658D01*
X013028Y023738D02*
X012772Y023738D01*
X012772Y023818D02*
X013028Y023818D01*
X013028Y023898D02*
X012772Y023898D01*
X012772Y024364D02*
X013028Y024364D01*
X012772Y024364D02*
X012772Y024780D01*
X013028Y024780D01*
X013028Y024364D01*
X013028Y024444D02*
X012772Y024444D01*
X012772Y024524D02*
X013028Y024524D01*
X013028Y024604D02*
X012772Y024604D01*
X012772Y024684D02*
X013028Y024684D01*
X013028Y024764D02*
X012772Y024764D01*
D17*
X014168Y024637D02*
X014168Y024243D01*
X013736Y024243D01*
X013736Y024637D01*
X014168Y024637D01*
X014168Y024323D02*
X013736Y024323D01*
X013736Y024403D02*
X014168Y024403D01*
X014168Y024483D02*
X013736Y024483D01*
X013736Y024563D02*
X014168Y024563D01*
X014168Y023968D02*
X014168Y023574D01*
X013736Y023574D01*
X013736Y023968D01*
X014168Y023968D01*
X014168Y023654D02*
X013736Y023654D01*
X013736Y023734D02*
X014168Y023734D01*
X014168Y023814D02*
X013736Y023814D01*
X013736Y023894D02*
X014168Y023894D01*
X012436Y020487D02*
X012436Y020093D01*
X012436Y020487D02*
X012868Y020487D01*
X012868Y020093D01*
X012436Y020093D01*
X012436Y020173D02*
X012868Y020173D01*
X012868Y020253D02*
X012436Y020253D01*
X012436Y020333D02*
X012868Y020333D01*
X012868Y020413D02*
X012436Y020413D01*
X012436Y019818D02*
X012436Y019424D01*
X012436Y019818D02*
X012868Y019818D01*
X012868Y019424D01*
X012436Y019424D01*
X012436Y019504D02*
X012868Y019504D01*
X012868Y019584D02*
X012436Y019584D01*
X012436Y019664D02*
X012868Y019664D01*
X012868Y019744D02*
X012436Y019744D01*
X012968Y016137D02*
X012968Y015743D01*
X012536Y015743D01*
X012536Y016137D01*
X012968Y016137D01*
X012968Y015823D02*
X012536Y015823D01*
X012536Y015903D02*
X012968Y015903D01*
X012968Y015983D02*
X012536Y015983D01*
X012536Y016063D02*
X012968Y016063D01*
X012968Y015468D02*
X012968Y015074D01*
X012536Y015074D01*
X012536Y015468D01*
X012968Y015468D01*
X012968Y015154D02*
X012536Y015154D01*
X012536Y015234D02*
X012968Y015234D01*
X012968Y015314D02*
X012536Y015314D01*
X012536Y015394D02*
X012968Y015394D01*
X011418Y023574D02*
X011418Y023968D01*
X011418Y023574D02*
X010986Y023574D01*
X010986Y023968D01*
X011418Y023968D01*
X011418Y023654D02*
X010986Y023654D01*
X010986Y023734D02*
X011418Y023734D01*
X011418Y023814D02*
X010986Y023814D01*
X010986Y023894D02*
X011418Y023894D01*
X011418Y024243D02*
X011418Y024637D01*
X011418Y024243D02*
X010986Y024243D01*
X010986Y024637D01*
X011418Y024637D01*
X011418Y024323D02*
X010986Y024323D01*
X010986Y024403D02*
X011418Y024403D01*
X011418Y024483D02*
X010986Y024483D01*
X010986Y024563D02*
X011418Y024563D01*
X005658Y024383D02*
X005658Y024777D01*
X005658Y024383D02*
X005226Y024383D01*
X005226Y024777D01*
X005658Y024777D01*
X005658Y024463D02*
X005226Y024463D01*
X005226Y024543D02*
X005658Y024543D01*
X005658Y024623D02*
X005226Y024623D01*
X005226Y024703D02*
X005658Y024703D01*
X005658Y024108D02*
X005658Y023714D01*
X005226Y023714D01*
X005226Y024108D01*
X005658Y024108D01*
X005658Y023794D02*
X005226Y023794D01*
X005226Y023874D02*
X005658Y023874D01*
X005658Y023954D02*
X005226Y023954D01*
X005226Y024034D02*
X005658Y024034D01*
X002878Y024078D02*
X002878Y023684D01*
X002446Y023684D01*
X002446Y024078D01*
X002878Y024078D01*
X002878Y023764D02*
X002446Y023764D01*
X002446Y023844D02*
X002878Y023844D01*
X002878Y023924D02*
X002446Y023924D01*
X002446Y024004D02*
X002878Y024004D01*
X002878Y024353D02*
X002878Y024747D01*
X002878Y024353D02*
X002446Y024353D01*
X002446Y024747D01*
X002878Y024747D01*
X002878Y024433D02*
X002446Y024433D01*
X002446Y024513D02*
X002878Y024513D01*
X002878Y024593D02*
X002446Y024593D01*
X002446Y024673D02*
X002878Y024673D01*
D18*
X004782Y005976D03*
X004782Y004006D03*
X007732Y004006D03*
X007732Y005976D03*
X009282Y005966D03*
X009282Y003996D03*
X012232Y003996D03*
X012232Y005966D03*
D19*
X008432Y008793D03*
X014732Y026616D03*
X002132Y026616D03*
D20*
X014932Y005456D03*
X014932Y003956D03*
D21*
X006864Y015052D02*
X006590Y015052D01*
X006864Y015052D02*
X006864Y014660D01*
X006590Y014660D01*
X006590Y015052D01*
X006590Y014741D02*
X006864Y014741D01*
X006864Y014822D02*
X006590Y014822D01*
X006590Y014903D02*
X006864Y014903D01*
X006864Y014984D02*
X006590Y014984D01*
X006313Y015052D02*
X006039Y015052D01*
X006313Y015052D02*
X006313Y014660D01*
X006039Y014660D01*
X006039Y015052D01*
X006039Y014741D02*
X006313Y014741D01*
X006313Y014822D02*
X006039Y014822D01*
X006039Y014903D02*
X006313Y014903D01*
X006313Y014984D02*
X006039Y014984D01*
X005814Y015052D02*
X005540Y015052D01*
X005814Y015052D02*
X005814Y014660D01*
X005540Y014660D01*
X005540Y015052D01*
X005540Y014741D02*
X005814Y014741D01*
X005814Y014822D02*
X005540Y014822D01*
X005540Y014903D02*
X005814Y014903D01*
X005814Y014984D02*
X005540Y014984D01*
X005263Y015052D02*
X004989Y015052D01*
X005263Y015052D02*
X005263Y014660D01*
X004989Y014660D01*
X004989Y015052D01*
X004989Y014741D02*
X005263Y014741D01*
X005263Y014822D02*
X004989Y014822D01*
X004989Y014903D02*
X005263Y014903D01*
X005263Y014984D02*
X004989Y014984D01*
X006556Y016393D02*
X006556Y016667D01*
X006948Y016667D01*
X006948Y016393D01*
X006556Y016393D01*
X006556Y016474D02*
X006948Y016474D01*
X006948Y016555D02*
X006556Y016555D01*
X006556Y016636D02*
X006948Y016636D01*
X006556Y016944D02*
X006556Y017218D01*
X006948Y017218D01*
X006948Y016944D01*
X006556Y016944D01*
X006556Y017025D02*
X006948Y017025D01*
X006948Y017106D02*
X006556Y017106D01*
X006556Y017187D02*
X006948Y017187D01*
X006898Y017693D02*
X006898Y017967D01*
X006898Y017693D02*
X006506Y017693D01*
X006506Y017967D01*
X006898Y017967D01*
X006898Y017774D02*
X006506Y017774D01*
X006506Y017855D02*
X006898Y017855D01*
X006898Y017936D02*
X006506Y017936D01*
X006898Y018244D02*
X006898Y018518D01*
X006898Y018244D02*
X006506Y018244D01*
X006506Y018518D01*
X006898Y018518D01*
X006898Y018325D02*
X006506Y018325D01*
X006506Y018406D02*
X006898Y018406D01*
X006898Y018487D02*
X006506Y018487D01*
X006556Y018843D02*
X006556Y019117D01*
X006948Y019117D01*
X006948Y018843D01*
X006556Y018843D01*
X006556Y018924D02*
X006948Y018924D01*
X006948Y019005D02*
X006556Y019005D01*
X006556Y019086D02*
X006948Y019086D01*
X006556Y019394D02*
X006556Y019668D01*
X006948Y019668D01*
X006948Y019394D01*
X006556Y019394D01*
X006556Y019475D02*
X006948Y019475D01*
X006948Y019556D02*
X006556Y019556D01*
X006556Y019637D02*
X006948Y019637D01*
D22*
X007261Y021779D02*
X007593Y021779D01*
X007593Y021113D01*
X007261Y021113D01*
X007261Y021779D01*
X007261Y021195D02*
X007593Y021195D01*
X007593Y021277D02*
X007261Y021277D01*
X007261Y021359D02*
X007593Y021359D01*
X007593Y021441D02*
X007261Y021441D01*
X007261Y021523D02*
X007593Y021523D01*
X007593Y021605D02*
X007261Y021605D01*
X007261Y021687D02*
X007593Y021687D01*
X007593Y021769D02*
X007261Y021769D01*
X006806Y022960D02*
X006474Y022960D01*
X006806Y022960D02*
X006806Y022294D01*
X006474Y022294D01*
X006474Y022960D01*
X006474Y022376D02*
X006806Y022376D01*
X006806Y022458D02*
X006474Y022458D01*
X006474Y022540D02*
X006806Y022540D01*
X006806Y022622D02*
X006474Y022622D01*
X006474Y022704D02*
X006806Y022704D01*
X006806Y022786D02*
X006474Y022786D01*
X006474Y022868D02*
X006806Y022868D01*
X006806Y022950D02*
X006474Y022950D01*
X006018Y021779D02*
X005686Y021779D01*
X006018Y021779D02*
X006018Y021113D01*
X005686Y021113D01*
X005686Y021779D01*
X005686Y021195D02*
X006018Y021195D01*
X006018Y021277D02*
X005686Y021277D01*
X005686Y021359D02*
X006018Y021359D01*
X006018Y021441D02*
X005686Y021441D01*
X005686Y021523D02*
X006018Y021523D01*
X006018Y021605D02*
X005686Y021605D01*
X005686Y021687D02*
X006018Y021687D01*
X006018Y021769D02*
X005686Y021769D01*
X005231Y022960D02*
X004899Y022960D01*
X005231Y022960D02*
X005231Y022294D01*
X004899Y022294D01*
X004899Y022960D01*
X004899Y022376D02*
X005231Y022376D01*
X005231Y022458D02*
X004899Y022458D01*
X004899Y022540D02*
X005231Y022540D01*
X005231Y022622D02*
X004899Y022622D01*
X004899Y022704D02*
X005231Y022704D01*
X005231Y022786D02*
X004899Y022786D01*
X004899Y022868D02*
X005231Y022868D01*
X005231Y022950D02*
X004899Y022950D01*
X004444Y021779D02*
X004112Y021779D01*
X004444Y021779D02*
X004444Y021113D01*
X004112Y021113D01*
X004112Y021779D01*
X004112Y021195D02*
X004444Y021195D01*
X004444Y021277D02*
X004112Y021277D01*
X004112Y021359D02*
X004444Y021359D01*
X004444Y021441D02*
X004112Y021441D01*
X004112Y021523D02*
X004444Y021523D01*
X004444Y021605D02*
X004112Y021605D01*
X004112Y021687D02*
X004444Y021687D01*
X004444Y021769D02*
X004112Y021769D01*
X008049Y022960D02*
X008381Y022960D01*
X008381Y022294D01*
X008049Y022294D01*
X008049Y022960D01*
X008049Y022376D02*
X008381Y022376D01*
X008381Y022458D02*
X008049Y022458D01*
X008049Y022540D02*
X008381Y022540D01*
X008381Y022622D02*
X008049Y022622D01*
X008049Y022704D02*
X008381Y022704D01*
X008381Y022786D02*
X008049Y022786D01*
X008049Y022868D02*
X008381Y022868D01*
X008381Y022950D02*
X008049Y022950D01*
X008836Y021779D02*
X009168Y021779D01*
X009168Y021113D01*
X008836Y021113D01*
X008836Y021779D01*
X008836Y021195D02*
X009168Y021195D01*
X009168Y021277D02*
X008836Y021277D01*
X008836Y021359D02*
X009168Y021359D01*
X009168Y021441D02*
X008836Y021441D01*
X008836Y021523D02*
X009168Y021523D01*
X009168Y021605D02*
X008836Y021605D01*
X008836Y021687D02*
X009168Y021687D01*
X009168Y021769D02*
X008836Y021769D01*
X009623Y022960D02*
X009955Y022960D01*
X009955Y022294D01*
X009623Y022294D01*
X009623Y022960D01*
X009623Y022376D02*
X009955Y022376D01*
X009955Y022458D02*
X009623Y022458D01*
X009623Y022540D02*
X009955Y022540D01*
X009955Y022622D02*
X009623Y022622D01*
X009623Y022704D02*
X009955Y022704D01*
X009955Y022786D02*
X009623Y022786D01*
X009623Y022868D02*
X009955Y022868D01*
X009955Y022950D02*
X009623Y022950D01*
X010411Y021779D02*
X010743Y021779D01*
X010743Y021113D01*
X010411Y021113D01*
X010411Y021779D01*
X010411Y021195D02*
X010743Y021195D01*
X010743Y021277D02*
X010411Y021277D01*
X010411Y021359D02*
X010743Y021359D01*
X010743Y021441D02*
X010411Y021441D01*
X010411Y021523D02*
X010743Y021523D01*
X010743Y021605D02*
X010411Y021605D01*
X010411Y021687D02*
X010743Y021687D01*
X010743Y021769D02*
X010411Y021769D01*
X011198Y022960D02*
X011530Y022960D01*
X011530Y022294D01*
X011198Y022294D01*
X011198Y022960D01*
X011198Y022376D02*
X011530Y022376D01*
X011530Y022458D02*
X011198Y022458D01*
X011198Y022540D02*
X011530Y022540D01*
X011530Y022622D02*
X011198Y022622D01*
X011198Y022704D02*
X011530Y022704D01*
X011530Y022786D02*
X011198Y022786D01*
X011198Y022868D02*
X011530Y022868D01*
X011530Y022950D02*
X011198Y022950D01*
X011198Y014299D02*
X011530Y014299D01*
X011530Y013633D01*
X011198Y013633D01*
X011198Y014299D01*
X011198Y013715D02*
X011530Y013715D01*
X011530Y013797D02*
X011198Y013797D01*
X011198Y013879D02*
X011530Y013879D01*
X011530Y013961D02*
X011198Y013961D01*
X011198Y014043D02*
X011530Y014043D01*
X011530Y014125D02*
X011198Y014125D01*
X011198Y014207D02*
X011530Y014207D01*
X011530Y014289D02*
X011198Y014289D01*
X010743Y013117D02*
X010411Y013117D01*
X010743Y013117D02*
X010743Y012451D01*
X010411Y012451D01*
X010411Y013117D01*
X010411Y012533D02*
X010743Y012533D01*
X010743Y012615D02*
X010411Y012615D01*
X010411Y012697D02*
X010743Y012697D01*
X010743Y012779D02*
X010411Y012779D01*
X010411Y012861D02*
X010743Y012861D01*
X010743Y012943D02*
X010411Y012943D01*
X010411Y013025D02*
X010743Y013025D01*
X010743Y013107D02*
X010411Y013107D01*
X009955Y014299D02*
X009623Y014299D01*
X009955Y014299D02*
X009955Y013633D01*
X009623Y013633D01*
X009623Y014299D01*
X009623Y013715D02*
X009955Y013715D01*
X009955Y013797D02*
X009623Y013797D01*
X009623Y013879D02*
X009955Y013879D01*
X009955Y013961D02*
X009623Y013961D01*
X009623Y014043D02*
X009955Y014043D01*
X009955Y014125D02*
X009623Y014125D01*
X009623Y014207D02*
X009955Y014207D01*
X009955Y014289D02*
X009623Y014289D01*
X009168Y013117D02*
X008836Y013117D01*
X009168Y013117D02*
X009168Y012451D01*
X008836Y012451D01*
X008836Y013117D01*
X008836Y012533D02*
X009168Y012533D01*
X009168Y012615D02*
X008836Y012615D01*
X008836Y012697D02*
X009168Y012697D01*
X009168Y012779D02*
X008836Y012779D01*
X008836Y012861D02*
X009168Y012861D01*
X009168Y012943D02*
X008836Y012943D01*
X008836Y013025D02*
X009168Y013025D01*
X009168Y013107D02*
X008836Y013107D01*
X008381Y014299D02*
X008049Y014299D01*
X008381Y014299D02*
X008381Y013633D01*
X008049Y013633D01*
X008049Y014299D01*
X008049Y013715D02*
X008381Y013715D01*
X008381Y013797D02*
X008049Y013797D01*
X008049Y013879D02*
X008381Y013879D01*
X008381Y013961D02*
X008049Y013961D01*
X008049Y014043D02*
X008381Y014043D01*
X008381Y014125D02*
X008049Y014125D01*
X008049Y014207D02*
X008381Y014207D01*
X008381Y014289D02*
X008049Y014289D01*
X007593Y013117D02*
X007261Y013117D01*
X007593Y013117D02*
X007593Y012451D01*
X007261Y012451D01*
X007261Y013117D01*
X007261Y012533D02*
X007593Y012533D01*
X007593Y012615D02*
X007261Y012615D01*
X007261Y012697D02*
X007593Y012697D01*
X007593Y012779D02*
X007261Y012779D01*
X007261Y012861D02*
X007593Y012861D01*
X007593Y012943D02*
X007261Y012943D01*
X007261Y013025D02*
X007593Y013025D01*
X007593Y013107D02*
X007261Y013107D01*
X006806Y014299D02*
X006474Y014299D01*
X006806Y014299D02*
X006806Y013633D01*
X006474Y013633D01*
X006474Y014299D01*
X006474Y013715D02*
X006806Y013715D01*
X006806Y013797D02*
X006474Y013797D01*
X006474Y013879D02*
X006806Y013879D01*
X006806Y013961D02*
X006474Y013961D01*
X006474Y014043D02*
X006806Y014043D01*
X006806Y014125D02*
X006474Y014125D01*
X006474Y014207D02*
X006806Y014207D01*
X006806Y014289D02*
X006474Y014289D01*
X006018Y013117D02*
X005686Y013117D01*
X006018Y013117D02*
X006018Y012451D01*
X005686Y012451D01*
X005686Y013117D01*
X005686Y012533D02*
X006018Y012533D01*
X006018Y012615D02*
X005686Y012615D01*
X005686Y012697D02*
X006018Y012697D01*
X006018Y012779D02*
X005686Y012779D01*
X005686Y012861D02*
X006018Y012861D01*
X006018Y012943D02*
X005686Y012943D01*
X005686Y013025D02*
X006018Y013025D01*
X006018Y013107D02*
X005686Y013107D01*
X005231Y014299D02*
X004899Y014299D01*
X005231Y014299D02*
X005231Y013633D01*
X004899Y013633D01*
X004899Y014299D01*
X004899Y013715D02*
X005231Y013715D01*
X005231Y013797D02*
X004899Y013797D01*
X004899Y013879D02*
X005231Y013879D01*
X005231Y013961D02*
X004899Y013961D01*
X004899Y014043D02*
X005231Y014043D01*
X005231Y014125D02*
X004899Y014125D01*
X004899Y014207D02*
X005231Y014207D01*
X005231Y014289D02*
X004899Y014289D01*
X004444Y013117D02*
X004112Y013117D01*
X004444Y013117D02*
X004444Y012451D01*
X004112Y012451D01*
X004112Y013117D01*
X004112Y012533D02*
X004444Y012533D01*
X004444Y012615D02*
X004112Y012615D01*
X004112Y012697D02*
X004444Y012697D01*
X004444Y012779D02*
X004112Y012779D01*
X004112Y012861D02*
X004444Y012861D01*
X004444Y012943D02*
X004112Y012943D01*
X004112Y013025D02*
X004444Y013025D01*
X004444Y013107D02*
X004112Y013107D01*
D23*
X002437Y002939D02*
X001967Y002939D01*
X001967Y004117D01*
X002437Y004117D01*
X002437Y002939D01*
X002437Y003021D02*
X001967Y003021D01*
X001967Y003103D02*
X002437Y003103D01*
X002437Y003185D02*
X001967Y003185D01*
X001967Y003267D02*
X002437Y003267D01*
X002437Y003349D02*
X001967Y003349D01*
X001967Y003431D02*
X002437Y003431D01*
X002437Y003513D02*
X001967Y003513D01*
X001967Y003595D02*
X002437Y003595D01*
X002437Y003677D02*
X001967Y003677D01*
X001967Y003759D02*
X002437Y003759D01*
X002437Y003841D02*
X001967Y003841D01*
X001967Y003923D02*
X002437Y003923D01*
X002437Y004005D02*
X001967Y004005D01*
X001967Y004087D02*
X002437Y004087D01*
X002437Y006285D02*
X001967Y006285D01*
X001967Y007463D01*
X002437Y007463D01*
X002437Y006285D01*
X002437Y006367D02*
X001967Y006367D01*
X001967Y006449D02*
X002437Y006449D01*
X002437Y006531D02*
X001967Y006531D01*
X001967Y006613D02*
X002437Y006613D01*
X002437Y006695D02*
X001967Y006695D01*
X001967Y006777D02*
X002437Y006777D01*
X002437Y006859D02*
X001967Y006859D01*
X001967Y006941D02*
X002437Y006941D01*
X002437Y007023D02*
X001967Y007023D01*
X001967Y007105D02*
X002437Y007105D01*
X002437Y007187D02*
X001967Y007187D01*
X001967Y007269D02*
X002437Y007269D01*
X002437Y007351D02*
X001967Y007351D01*
X001967Y007433D02*
X002437Y007433D01*
D24*
X003902Y014256D03*
X004602Y014806D03*
X005602Y015506D03*
X005702Y016606D03*
X006202Y016456D03*
X007002Y015606D03*
X004602Y017306D03*
X006752Y020056D03*
X009002Y020406D03*
X009852Y017306D03*
X013052Y014006D03*
X012302Y009956D03*
X012002Y023156D03*
X004352Y022906D03*
M02*
