G75*
G70*
%OFA0B0*%
%FSLAX24Y24*%
%IPPOS*%
%LPD*%
%AMOC8*
5,1,8,0,0,1.08239X$1,22.5*
%
%ADD10C,0.0674*%
%ADD11C,0.0480*%
%ADD12C,0.0740*%
%ADD13C,0.1175*%
%ADD14C,0.1365*%
%ADD15C,0.0730*%
%ADD16C,0.0476*%
D10*
X007432Y024506D03*
X007432Y025506D03*
X008432Y025506D03*
X008432Y024506D03*
X009432Y024506D03*
X009432Y025506D03*
D11*
X014372Y009985D03*
X014372Y008607D03*
D12*
X005102Y007906D03*
X002852Y008306D03*
X001862Y008306D03*
X000872Y008306D03*
X000852Y011086D03*
X001852Y011086D03*
X002852Y011086D03*
X005102Y011906D03*
X001752Y016306D03*
X001752Y017306D03*
X001752Y018306D03*
X001752Y019306D03*
D13*
X004782Y004006D03*
X004782Y005976D03*
X007732Y005976D03*
X007732Y004006D03*
X009282Y003996D03*
X009282Y005966D03*
X012232Y005966D03*
X012232Y003996D03*
D14*
X008432Y008793D03*
X014732Y026616D03*
X002132Y026616D03*
D15*
X014932Y005456D03*
X014932Y003956D03*
D16*
X012302Y009956D03*
X013052Y014006D03*
X009852Y017306D03*
X009002Y020406D03*
X006752Y020056D03*
X004602Y017306D03*
X005702Y016606D03*
X006202Y016456D03*
X005602Y015506D03*
X004602Y014806D03*
X003902Y014256D03*
X007002Y015606D03*
X004352Y022906D03*
X012002Y023156D03*
M02*
