G75*
G70*
%OFA0B0*%
%FSLAX24Y24*%
%IPPOS*%
%LPD*%
%AMOC8*
5,1,8,0,0,1.08239X$1,22.5*
%
%ADD10C,0.0081*%
%ADD11C,0.0082*%
%ADD12C,0.0081*%
%ADD13C,0.0081*%
%ADD14C,0.1175*%
%ADD15C,0.0674*%
%ADD16C,0.1365*%
%ADD17C,0.0081*%
%ADD18C,0.0730*%
%ADD19C,0.0740*%
%ADD20C,0.0083*%
%ADD21C,0.0083*%
%ADD22C,0.0086*%
%ADD23C,0.0080*%
%ADD24C,0.0440*%
%ADD25C,0.0437*%
D10*
X003141Y020650D02*
X003361Y020650D01*
X003141Y020650D02*
X003141Y021150D01*
X003361Y021150D01*
X003361Y020650D01*
X003361Y020730D02*
X003141Y020730D01*
X003141Y020810D02*
X003361Y020810D01*
X003361Y020890D02*
X003141Y020890D01*
X003141Y020970D02*
X003361Y020970D01*
X003361Y021050D02*
X003141Y021050D01*
X003141Y021130D02*
X003361Y021130D01*
X003456Y020650D02*
X003676Y020650D01*
X003456Y020650D02*
X003456Y021150D01*
X003676Y021150D01*
X003676Y020650D01*
X003676Y020730D02*
X003456Y020730D01*
X003456Y020810D02*
X003676Y020810D01*
X003676Y020890D02*
X003456Y020890D01*
X003456Y020970D02*
X003676Y020970D01*
X003676Y021050D02*
X003456Y021050D01*
X003456Y021130D02*
X003676Y021130D01*
X003771Y020650D02*
X003991Y020650D01*
X003771Y020650D02*
X003771Y021150D01*
X003991Y021150D01*
X003991Y020650D01*
X003991Y020730D02*
X003771Y020730D01*
X003771Y020810D02*
X003991Y020810D01*
X003991Y020890D02*
X003771Y020890D01*
X003771Y020970D02*
X003991Y020970D01*
X003991Y021050D02*
X003771Y021050D01*
X003771Y021130D02*
X003991Y021130D01*
X004086Y020650D02*
X004306Y020650D01*
X004086Y020650D02*
X004086Y021150D01*
X004306Y021150D01*
X004306Y020650D01*
X004306Y020730D02*
X004086Y020730D01*
X004086Y020810D02*
X004306Y020810D01*
X004306Y020890D02*
X004086Y020890D01*
X004086Y020970D02*
X004306Y020970D01*
X004306Y021050D02*
X004086Y021050D01*
X004086Y021130D02*
X004306Y021130D01*
X004401Y020650D02*
X004621Y020650D01*
X004401Y020650D02*
X004401Y021150D01*
X004621Y021150D01*
X004621Y020650D01*
X004621Y020730D02*
X004401Y020730D01*
X004401Y020810D02*
X004621Y020810D01*
X004621Y020890D02*
X004401Y020890D01*
X004401Y020970D02*
X004621Y020970D01*
X004621Y021050D02*
X004401Y021050D01*
X004401Y021130D02*
X004621Y021130D01*
X004716Y020650D02*
X004936Y020650D01*
X004716Y020650D02*
X004716Y021150D01*
X004936Y021150D01*
X004936Y020650D01*
X004936Y020730D02*
X004716Y020730D01*
X004716Y020810D02*
X004936Y020810D01*
X004936Y020890D02*
X004716Y020890D01*
X004716Y020970D02*
X004936Y020970D01*
X004936Y021050D02*
X004716Y021050D01*
X004716Y021130D02*
X004936Y021130D01*
X005031Y020650D02*
X005251Y020650D01*
X005031Y020650D02*
X005031Y021150D01*
X005251Y021150D01*
X005251Y020650D01*
X005251Y020730D02*
X005031Y020730D01*
X005031Y020810D02*
X005251Y020810D01*
X005251Y020890D02*
X005031Y020890D01*
X005031Y020970D02*
X005251Y020970D01*
X005251Y021050D02*
X005031Y021050D01*
X005031Y021130D02*
X005251Y021130D01*
X005346Y020650D02*
X005566Y020650D01*
X005346Y020650D02*
X005346Y021150D01*
X005566Y021150D01*
X005566Y020650D01*
X005566Y020730D02*
X005346Y020730D01*
X005346Y020810D02*
X005566Y020810D01*
X005566Y020890D02*
X005346Y020890D01*
X005346Y020970D02*
X005566Y020970D01*
X005566Y021050D02*
X005346Y021050D01*
X005346Y021130D02*
X005566Y021130D01*
X005793Y021377D02*
X006293Y021377D01*
X005793Y021377D02*
X005793Y021597D01*
X006293Y021597D01*
X006293Y021377D01*
X006293Y021457D02*
X005793Y021457D01*
X005793Y021537D02*
X006293Y021537D01*
X006293Y021692D02*
X005793Y021692D01*
X005793Y021912D01*
X006293Y021912D01*
X006293Y021692D01*
X006293Y021772D02*
X005793Y021772D01*
X005793Y021852D02*
X006293Y021852D01*
X006293Y022007D02*
X005793Y022007D01*
X005793Y022227D01*
X006293Y022227D01*
X006293Y022007D01*
X006293Y022087D02*
X005793Y022087D01*
X005793Y022167D02*
X006293Y022167D01*
X006293Y022322D02*
X005793Y022322D01*
X005793Y022542D01*
X006293Y022542D01*
X006293Y022322D01*
X006293Y022402D02*
X005793Y022402D01*
X005793Y022482D02*
X006293Y022482D01*
X006293Y022637D02*
X005793Y022637D01*
X005793Y022857D01*
X006293Y022857D01*
X006293Y022637D01*
X006293Y022717D02*
X005793Y022717D01*
X005793Y022797D02*
X006293Y022797D01*
X006293Y022952D02*
X005793Y022952D01*
X005793Y023172D01*
X006293Y023172D01*
X006293Y022952D01*
X006293Y023032D02*
X005793Y023032D01*
X005793Y023112D02*
X006293Y023112D01*
X006293Y023267D02*
X005793Y023267D01*
X005793Y023487D01*
X006293Y023487D01*
X006293Y023267D01*
X006293Y023347D02*
X005793Y023347D01*
X005793Y023427D02*
X006293Y023427D01*
X006293Y023582D02*
X005793Y023582D01*
X005793Y023802D01*
X006293Y023802D01*
X006293Y023582D01*
X006293Y023662D02*
X005793Y023662D01*
X005793Y023742D02*
X006293Y023742D01*
X005566Y024030D02*
X005346Y024030D01*
X005346Y024530D01*
X005566Y024530D01*
X005566Y024030D01*
X005566Y024110D02*
X005346Y024110D01*
X005346Y024190D02*
X005566Y024190D01*
X005566Y024270D02*
X005346Y024270D01*
X005346Y024350D02*
X005566Y024350D01*
X005566Y024430D02*
X005346Y024430D01*
X005346Y024510D02*
X005566Y024510D01*
X005251Y024030D02*
X005031Y024030D01*
X005031Y024530D01*
X005251Y024530D01*
X005251Y024030D01*
X005251Y024110D02*
X005031Y024110D01*
X005031Y024190D02*
X005251Y024190D01*
X005251Y024270D02*
X005031Y024270D01*
X005031Y024350D02*
X005251Y024350D01*
X005251Y024430D02*
X005031Y024430D01*
X005031Y024510D02*
X005251Y024510D01*
X004936Y024030D02*
X004716Y024030D01*
X004716Y024530D01*
X004936Y024530D01*
X004936Y024030D01*
X004936Y024110D02*
X004716Y024110D01*
X004716Y024190D02*
X004936Y024190D01*
X004936Y024270D02*
X004716Y024270D01*
X004716Y024350D02*
X004936Y024350D01*
X004936Y024430D02*
X004716Y024430D01*
X004716Y024510D02*
X004936Y024510D01*
X004621Y024030D02*
X004401Y024030D01*
X004401Y024530D01*
X004621Y024530D01*
X004621Y024030D01*
X004621Y024110D02*
X004401Y024110D01*
X004401Y024190D02*
X004621Y024190D01*
X004621Y024270D02*
X004401Y024270D01*
X004401Y024350D02*
X004621Y024350D01*
X004621Y024430D02*
X004401Y024430D01*
X004401Y024510D02*
X004621Y024510D01*
X004306Y024030D02*
X004086Y024030D01*
X004086Y024530D01*
X004306Y024530D01*
X004306Y024030D01*
X004306Y024110D02*
X004086Y024110D01*
X004086Y024190D02*
X004306Y024190D01*
X004306Y024270D02*
X004086Y024270D01*
X004086Y024350D02*
X004306Y024350D01*
X004306Y024430D02*
X004086Y024430D01*
X004086Y024510D02*
X004306Y024510D01*
X003991Y024030D02*
X003771Y024030D01*
X003771Y024530D01*
X003991Y024530D01*
X003991Y024030D01*
X003991Y024110D02*
X003771Y024110D01*
X003771Y024190D02*
X003991Y024190D01*
X003991Y024270D02*
X003771Y024270D01*
X003771Y024350D02*
X003991Y024350D01*
X003991Y024430D02*
X003771Y024430D01*
X003771Y024510D02*
X003991Y024510D01*
X003676Y024030D02*
X003456Y024030D01*
X003456Y024530D01*
X003676Y024530D01*
X003676Y024030D01*
X003676Y024110D02*
X003456Y024110D01*
X003456Y024190D02*
X003676Y024190D01*
X003676Y024270D02*
X003456Y024270D01*
X003456Y024350D02*
X003676Y024350D01*
X003676Y024430D02*
X003456Y024430D01*
X003456Y024510D02*
X003676Y024510D01*
X003361Y024030D02*
X003141Y024030D01*
X003141Y024530D01*
X003361Y024530D01*
X003361Y024030D01*
X003361Y024110D02*
X003141Y024110D01*
X003141Y024190D02*
X003361Y024190D01*
X003361Y024270D02*
X003141Y024270D01*
X003141Y024350D02*
X003361Y024350D01*
X003361Y024430D02*
X003141Y024430D01*
X003141Y024510D02*
X003361Y024510D01*
X002913Y023582D02*
X002413Y023582D01*
X002413Y023802D01*
X002913Y023802D01*
X002913Y023582D01*
X002913Y023662D02*
X002413Y023662D01*
X002413Y023742D02*
X002913Y023742D01*
X002913Y023267D02*
X002413Y023267D01*
X002413Y023487D01*
X002913Y023487D01*
X002913Y023267D01*
X002913Y023347D02*
X002413Y023347D01*
X002413Y023427D02*
X002913Y023427D01*
X002913Y022952D02*
X002413Y022952D01*
X002413Y023172D01*
X002913Y023172D01*
X002913Y022952D01*
X002913Y023032D02*
X002413Y023032D01*
X002413Y023112D02*
X002913Y023112D01*
X002913Y022637D02*
X002413Y022637D01*
X002413Y022857D01*
X002913Y022857D01*
X002913Y022637D01*
X002913Y022717D02*
X002413Y022717D01*
X002413Y022797D02*
X002913Y022797D01*
X002913Y022322D02*
X002413Y022322D01*
X002413Y022542D01*
X002913Y022542D01*
X002913Y022322D01*
X002913Y022402D02*
X002413Y022402D01*
X002413Y022482D02*
X002913Y022482D01*
X002913Y022007D02*
X002413Y022007D01*
X002413Y022227D01*
X002913Y022227D01*
X002913Y022007D01*
X002913Y022087D02*
X002413Y022087D01*
X002413Y022167D02*
X002913Y022167D01*
X002913Y021692D02*
X002413Y021692D01*
X002413Y021912D01*
X002913Y021912D01*
X002913Y021692D01*
X002913Y021772D02*
X002413Y021772D01*
X002413Y021852D02*
X002913Y021852D01*
X002913Y021377D02*
X002413Y021377D01*
X002413Y021597D01*
X002913Y021597D01*
X002913Y021377D01*
X002913Y021457D02*
X002413Y021457D01*
X002413Y021537D02*
X002913Y021537D01*
D11*
X002301Y021791D02*
X002027Y021791D01*
X002301Y021791D02*
X002301Y020179D01*
X002027Y020179D01*
X002027Y021791D01*
X002027Y020260D02*
X002301Y020260D01*
X002301Y020341D02*
X002027Y020341D01*
X002027Y020422D02*
X002301Y020422D01*
X002301Y020503D02*
X002027Y020503D01*
X002027Y020584D02*
X002301Y020584D01*
X002301Y020665D02*
X002027Y020665D01*
X002027Y020746D02*
X002301Y020746D01*
X002301Y020827D02*
X002027Y020827D01*
X002027Y020908D02*
X002301Y020908D01*
X002301Y020989D02*
X002027Y020989D01*
X002027Y021070D02*
X002301Y021070D01*
X002301Y021151D02*
X002027Y021151D01*
X002027Y021232D02*
X002301Y021232D01*
X002301Y021313D02*
X002027Y021313D01*
X002027Y021394D02*
X002301Y021394D01*
X002301Y021475D02*
X002027Y021475D01*
X002027Y021556D02*
X002301Y021556D01*
X002301Y021637D02*
X002027Y021637D01*
X002027Y021718D02*
X002301Y021718D01*
X001120Y021791D02*
X000846Y021791D01*
X001120Y021791D02*
X001120Y020179D01*
X000846Y020179D01*
X000846Y021791D01*
X000846Y020260D02*
X001120Y020260D01*
X001120Y020341D02*
X000846Y020341D01*
X000846Y020422D02*
X001120Y020422D01*
X001120Y020503D02*
X000846Y020503D01*
X000846Y020584D02*
X001120Y020584D01*
X001120Y020665D02*
X000846Y020665D01*
X000846Y020746D02*
X001120Y020746D01*
X001120Y020827D02*
X000846Y020827D01*
X000846Y020908D02*
X001120Y020908D01*
X001120Y020989D02*
X000846Y020989D01*
X000846Y021070D02*
X001120Y021070D01*
X001120Y021151D02*
X000846Y021151D01*
X000846Y021232D02*
X001120Y021232D01*
X001120Y021313D02*
X000846Y021313D01*
X000846Y021394D02*
X001120Y021394D01*
X001120Y021475D02*
X000846Y021475D01*
X000846Y021556D02*
X001120Y021556D01*
X001120Y021637D02*
X000846Y021637D01*
X000846Y021718D02*
X001120Y021718D01*
X005991Y025136D02*
X006265Y025136D01*
X006265Y024744D01*
X005991Y024744D01*
X005991Y025136D01*
X005991Y024825D02*
X006265Y024825D01*
X006265Y024906D02*
X005991Y024906D01*
X005991Y024987D02*
X006265Y024987D01*
X006265Y025068D02*
X005991Y025068D01*
X005991Y025444D02*
X006265Y025444D01*
X005991Y025444D02*
X005991Y025836D01*
X006265Y025836D01*
X006265Y025444D01*
X006265Y025525D02*
X005991Y025525D01*
X005991Y025606D02*
X006265Y025606D01*
X006265Y025687D02*
X005991Y025687D01*
X005991Y025768D02*
X006265Y025768D01*
X006542Y025444D02*
X006816Y025444D01*
X006542Y025444D02*
X006542Y025836D01*
X006816Y025836D01*
X006816Y025444D01*
X006816Y025525D02*
X006542Y025525D01*
X006542Y025606D02*
X006816Y025606D01*
X006816Y025687D02*
X006542Y025687D01*
X006542Y025768D02*
X006816Y025768D01*
X006816Y025136D02*
X006542Y025136D01*
X006816Y025136D02*
X006816Y024744D01*
X006542Y024744D01*
X006542Y025136D01*
X006542Y024825D02*
X006816Y024825D01*
X006816Y024906D02*
X006542Y024906D01*
X006542Y024987D02*
X006816Y024987D01*
X006816Y025068D02*
X006542Y025068D01*
X006657Y023302D02*
X006657Y023028D01*
X006657Y023302D02*
X007049Y023302D01*
X007049Y023028D01*
X006657Y023028D01*
X006657Y023109D02*
X007049Y023109D01*
X007049Y023190D02*
X006657Y023190D01*
X006657Y023271D02*
X007049Y023271D01*
X006657Y022751D02*
X006657Y022477D01*
X006657Y022751D02*
X007049Y022751D01*
X007049Y022477D01*
X006657Y022477D01*
X006657Y022558D02*
X007049Y022558D01*
X007049Y022639D02*
X006657Y022639D01*
X006657Y022720D02*
X007049Y022720D01*
X008449Y020202D02*
X008449Y019928D01*
X008057Y019928D01*
X008057Y020202D01*
X008449Y020202D01*
X008449Y020009D02*
X008057Y020009D01*
X008057Y020090D02*
X008449Y020090D01*
X008449Y020171D02*
X008057Y020171D01*
X008449Y019651D02*
X008449Y019377D01*
X008057Y019377D01*
X008057Y019651D01*
X008449Y019651D01*
X008449Y019458D02*
X008057Y019458D01*
X008057Y019539D02*
X008449Y019539D01*
X008449Y019620D02*
X008057Y019620D01*
X009199Y019651D02*
X009199Y019377D01*
X008807Y019377D01*
X008807Y019651D01*
X009199Y019651D01*
X009199Y019458D02*
X008807Y019458D01*
X008807Y019539D02*
X009199Y019539D01*
X009199Y019620D02*
X008807Y019620D01*
X009199Y019928D02*
X009199Y020202D01*
X009199Y019928D02*
X008807Y019928D01*
X008807Y020202D01*
X009199Y020202D01*
X009199Y020009D02*
X008807Y020009D01*
X008807Y020090D02*
X009199Y020090D01*
X009199Y020171D02*
X008807Y020171D01*
X010999Y024677D02*
X010999Y024951D01*
X010999Y024677D02*
X010607Y024677D01*
X010607Y024951D01*
X010999Y024951D01*
X010999Y024758D02*
X010607Y024758D01*
X010607Y024839D02*
X010999Y024839D01*
X010999Y024920D02*
X010607Y024920D01*
X010999Y025228D02*
X010999Y025502D01*
X010999Y025228D02*
X010607Y025228D01*
X010607Y025502D01*
X010999Y025502D01*
X010999Y025309D02*
X010607Y025309D01*
X010607Y025390D02*
X010999Y025390D01*
X010999Y025471D02*
X010607Y025471D01*
X012807Y025478D02*
X012807Y025752D01*
X013199Y025752D01*
X013199Y025478D01*
X012807Y025478D01*
X012807Y025559D02*
X013199Y025559D01*
X013199Y025640D02*
X012807Y025640D01*
X012807Y025721D02*
X013199Y025721D01*
X012807Y025201D02*
X012807Y024927D01*
X012807Y025201D02*
X013199Y025201D01*
X013199Y024927D01*
X012807Y024927D01*
X012807Y025008D02*
X013199Y025008D01*
X013199Y025089D02*
X012807Y025089D01*
X012807Y025170D02*
X013199Y025170D01*
X013866Y024469D02*
X014140Y024469D01*
X013866Y024469D02*
X013866Y024861D01*
X014140Y024861D01*
X014140Y024469D01*
X014140Y024550D02*
X013866Y024550D01*
X013866Y024631D02*
X014140Y024631D01*
X014140Y024712D02*
X013866Y024712D01*
X013866Y024793D02*
X014140Y024793D01*
X014417Y024469D02*
X014691Y024469D01*
X014417Y024469D02*
X014417Y024861D01*
X014691Y024861D01*
X014691Y024469D01*
X014691Y024550D02*
X014417Y024550D01*
X014417Y024631D02*
X014691Y024631D01*
X014691Y024712D02*
X014417Y024712D01*
X014417Y024793D02*
X014691Y024793D01*
D12*
X014227Y023840D02*
X012779Y023840D01*
X014227Y023840D02*
X014227Y023340D01*
X012779Y023340D01*
X012779Y023840D01*
X012779Y023420D02*
X014227Y023420D01*
X014227Y023500D02*
X012779Y023500D01*
X012779Y023580D02*
X014227Y023580D01*
X014227Y023660D02*
X012779Y023660D01*
X012779Y023740D02*
X014227Y023740D01*
X014227Y023820D02*
X012779Y023820D01*
X012779Y022840D02*
X014227Y022840D01*
X014227Y022340D01*
X012779Y022340D01*
X012779Y022840D01*
X012779Y022420D02*
X014227Y022420D01*
X014227Y022500D02*
X012779Y022500D01*
X012779Y022580D02*
X014227Y022580D01*
X014227Y022660D02*
X012779Y022660D01*
X012779Y022740D02*
X014227Y022740D01*
X014227Y022820D02*
X012779Y022820D01*
X012779Y021840D02*
X014227Y021840D01*
X014227Y021340D01*
X012779Y021340D01*
X012779Y021840D01*
X012779Y021420D02*
X014227Y021420D01*
X014227Y021500D02*
X012779Y021500D01*
X012779Y021580D02*
X014227Y021580D01*
X014227Y021660D02*
X012779Y021660D01*
X012779Y021740D02*
X014227Y021740D01*
X014227Y021820D02*
X012779Y021820D01*
X012427Y021840D02*
X010979Y021840D01*
X012427Y021840D02*
X012427Y021340D01*
X010979Y021340D01*
X010979Y021840D01*
X010979Y021420D02*
X012427Y021420D01*
X012427Y021500D02*
X010979Y021500D01*
X010979Y021580D02*
X012427Y021580D01*
X012427Y021660D02*
X010979Y021660D01*
X010979Y021740D02*
X012427Y021740D01*
X012427Y021820D02*
X010979Y021820D01*
X010979Y022840D02*
X012427Y022840D01*
X012427Y022340D01*
X010979Y022340D01*
X010979Y022840D01*
X010979Y022420D02*
X012427Y022420D01*
X012427Y022500D02*
X010979Y022500D01*
X010979Y022580D02*
X012427Y022580D01*
X012427Y022660D02*
X010979Y022660D01*
X010979Y022740D02*
X012427Y022740D01*
X012427Y022820D02*
X010979Y022820D01*
X010979Y023840D02*
X012427Y023840D01*
X012427Y023340D01*
X010979Y023340D01*
X010979Y023840D01*
X010979Y023420D02*
X012427Y023420D01*
X012427Y023500D02*
X010979Y023500D01*
X010979Y023580D02*
X012427Y023580D01*
X012427Y023660D02*
X010979Y023660D01*
X010979Y023740D02*
X012427Y023740D01*
X012427Y023820D02*
X010979Y023820D01*
D13*
X011377Y024932D02*
X011633Y024932D01*
X011633Y024516D01*
X011377Y024516D01*
X011377Y024932D01*
X011377Y024596D02*
X011633Y024596D01*
X011633Y024676D02*
X011377Y024676D01*
X011377Y024756D02*
X011633Y024756D01*
X011633Y024836D02*
X011377Y024836D01*
X011377Y024916D02*
X011633Y024916D01*
X011633Y025798D02*
X011377Y025798D01*
X011633Y025798D02*
X011633Y025382D01*
X011377Y025382D01*
X011377Y025798D01*
X011377Y025462D02*
X011633Y025462D01*
X011633Y025542D02*
X011377Y025542D01*
X011377Y025622D02*
X011633Y025622D01*
X011633Y025702D02*
X011377Y025702D01*
X011377Y025782D02*
X011633Y025782D01*
X011751Y025798D02*
X012007Y025798D01*
X012007Y025382D01*
X011751Y025382D01*
X011751Y025798D01*
X011751Y025462D02*
X012007Y025462D01*
X012007Y025542D02*
X011751Y025542D01*
X011751Y025622D02*
X012007Y025622D01*
X012007Y025702D02*
X011751Y025702D01*
X011751Y025782D02*
X012007Y025782D01*
X012125Y025798D02*
X012381Y025798D01*
X012381Y025382D01*
X012125Y025382D01*
X012125Y025798D01*
X012125Y025462D02*
X012381Y025462D01*
X012381Y025542D02*
X012125Y025542D01*
X012125Y025622D02*
X012381Y025622D01*
X012381Y025702D02*
X012125Y025702D01*
X012125Y025782D02*
X012381Y025782D01*
X012381Y024932D02*
X012125Y024932D01*
X012381Y024932D02*
X012381Y024516D01*
X012125Y024516D01*
X012125Y024932D01*
X012125Y024596D02*
X012381Y024596D01*
X012381Y024676D02*
X012125Y024676D01*
X012125Y024756D02*
X012381Y024756D01*
X012381Y024836D02*
X012125Y024836D01*
X012125Y024916D02*
X012381Y024916D01*
D14*
X012203Y005960D03*
X012203Y003990D03*
X009253Y003990D03*
X009253Y005960D03*
X007703Y005960D03*
X007703Y003990D03*
X004753Y003990D03*
X004753Y005960D03*
D15*
X007453Y024540D03*
X007453Y025540D03*
X008453Y025540D03*
X008453Y024540D03*
X009453Y024540D03*
X009453Y025540D03*
D16*
X014753Y026590D03*
X008453Y008767D03*
X002153Y026590D03*
D17*
X001770Y021792D02*
X001376Y021792D01*
X001770Y021792D02*
X001770Y020178D01*
X001376Y020178D01*
X001376Y021792D01*
X001376Y020258D02*
X001770Y020258D01*
X001770Y020338D02*
X001376Y020338D01*
X001376Y020418D02*
X001770Y020418D01*
X001770Y020498D02*
X001376Y020498D01*
X001376Y020578D02*
X001770Y020578D01*
X001770Y020658D02*
X001376Y020658D01*
X001376Y020738D02*
X001770Y020738D01*
X001770Y020818D02*
X001376Y020818D01*
X001376Y020898D02*
X001770Y020898D01*
X001770Y020978D02*
X001376Y020978D01*
X001376Y021058D02*
X001770Y021058D01*
X001770Y021138D02*
X001376Y021138D01*
X001376Y021218D02*
X001770Y021218D01*
X001770Y021298D02*
X001376Y021298D01*
X001376Y021378D02*
X001770Y021378D01*
X001770Y021458D02*
X001376Y021458D01*
X001376Y021538D02*
X001770Y021538D01*
X001770Y021618D02*
X001376Y021618D01*
X001376Y021698D02*
X001770Y021698D01*
X001770Y021778D02*
X001376Y021778D01*
D18*
X001603Y002690D03*
X001603Y003690D03*
X001603Y004690D03*
X001603Y005690D03*
X001603Y006690D03*
X001603Y007690D03*
X001603Y008690D03*
X001603Y009690D03*
X001603Y010690D03*
X002553Y011590D03*
X005903Y011540D03*
X010753Y011490D03*
X013653Y011490D03*
X015323Y010690D03*
X015323Y009690D03*
X015323Y008690D03*
X015323Y007690D03*
X015323Y006690D03*
X015323Y005690D03*
X015323Y004690D03*
X015323Y003690D03*
X015323Y002690D03*
D19*
X012453Y026590D03*
X012453Y027590D03*
X001003Y024365D03*
X001003Y023365D03*
D20*
X004518Y010419D02*
X004988Y010419D01*
X004518Y010419D02*
X004518Y011597D01*
X004988Y011597D01*
X004988Y010419D01*
X004988Y010501D02*
X004518Y010501D01*
X004518Y010583D02*
X004988Y010583D01*
X004988Y010665D02*
X004518Y010665D01*
X004518Y010747D02*
X004988Y010747D01*
X004988Y010829D02*
X004518Y010829D01*
X004518Y010911D02*
X004988Y010911D01*
X004988Y010993D02*
X004518Y010993D01*
X004518Y011075D02*
X004988Y011075D01*
X004988Y011157D02*
X004518Y011157D01*
X004518Y011239D02*
X004988Y011239D01*
X004988Y011321D02*
X004518Y011321D01*
X004518Y011403D02*
X004988Y011403D01*
X004988Y011485D02*
X004518Y011485D01*
X004518Y011567D02*
X004988Y011567D01*
X004988Y007073D02*
X004518Y007073D01*
X004518Y008251D01*
X004988Y008251D01*
X004988Y007073D01*
X004988Y007155D02*
X004518Y007155D01*
X004518Y007237D02*
X004988Y007237D01*
X004988Y007319D02*
X004518Y007319D01*
X004518Y007401D02*
X004988Y007401D01*
X004988Y007483D02*
X004518Y007483D01*
X004518Y007565D02*
X004988Y007565D01*
X004988Y007647D02*
X004518Y007647D01*
X004518Y007729D02*
X004988Y007729D01*
X004988Y007811D02*
X004518Y007811D01*
X004518Y007893D02*
X004988Y007893D01*
X004988Y007975D02*
X004518Y007975D01*
X004518Y008057D02*
X004988Y008057D01*
X004988Y008139D02*
X004518Y008139D01*
X004518Y008221D02*
X004988Y008221D01*
X011968Y007073D02*
X012438Y007073D01*
X011968Y007073D02*
X011968Y008251D01*
X012438Y008251D01*
X012438Y007073D01*
X012438Y007155D02*
X011968Y007155D01*
X011968Y007237D02*
X012438Y007237D01*
X012438Y007319D02*
X011968Y007319D01*
X011968Y007401D02*
X012438Y007401D01*
X012438Y007483D02*
X011968Y007483D01*
X011968Y007565D02*
X012438Y007565D01*
X012438Y007647D02*
X011968Y007647D01*
X011968Y007729D02*
X012438Y007729D01*
X012438Y007811D02*
X011968Y007811D01*
X011968Y007893D02*
X012438Y007893D01*
X012438Y007975D02*
X011968Y007975D01*
X011968Y008057D02*
X012438Y008057D01*
X012438Y008139D02*
X011968Y008139D01*
X011968Y008221D02*
X012438Y008221D01*
X012438Y010419D02*
X011968Y010419D01*
X011968Y011597D01*
X012438Y011597D01*
X012438Y010419D01*
X012438Y010501D02*
X011968Y010501D01*
X011968Y010583D02*
X012438Y010583D01*
X012438Y010665D02*
X011968Y010665D01*
X011968Y010747D02*
X012438Y010747D01*
X012438Y010829D02*
X011968Y010829D01*
X011968Y010911D02*
X012438Y010911D01*
X012438Y010993D02*
X011968Y010993D01*
X011968Y011075D02*
X012438Y011075D01*
X012438Y011157D02*
X011968Y011157D01*
X011968Y011239D02*
X012438Y011239D01*
X012438Y011321D02*
X011968Y011321D01*
X011968Y011403D02*
X012438Y011403D01*
X012438Y011485D02*
X011968Y011485D01*
X011968Y011567D02*
X012438Y011567D01*
D21*
X012536Y012531D02*
X012270Y012531D01*
X012536Y012531D02*
X012536Y011983D01*
X012270Y011983D01*
X012270Y012531D01*
X012270Y012065D02*
X012536Y012065D01*
X012536Y012147D02*
X012270Y012147D01*
X012270Y012229D02*
X012536Y012229D01*
X012536Y012311D02*
X012270Y012311D01*
X012270Y012393D02*
X012536Y012393D01*
X012536Y012475D02*
X012270Y012475D01*
X012143Y012531D02*
X011877Y012531D01*
X012143Y012531D02*
X012143Y011983D01*
X011877Y011983D01*
X011877Y012531D01*
X011877Y012065D02*
X012143Y012065D01*
X012143Y012147D02*
X011877Y012147D01*
X011877Y012229D02*
X012143Y012229D01*
X012143Y012311D02*
X011877Y012311D01*
X011877Y012393D02*
X012143Y012393D01*
X012143Y012475D02*
X011877Y012475D01*
X011749Y012531D02*
X011483Y012531D01*
X011749Y012531D02*
X011749Y011983D01*
X011483Y011983D01*
X011483Y012531D01*
X011483Y012065D02*
X011749Y012065D01*
X011749Y012147D02*
X011483Y012147D01*
X011483Y012229D02*
X011749Y012229D01*
X011749Y012311D02*
X011483Y012311D01*
X011483Y012393D02*
X011749Y012393D01*
X011749Y012475D02*
X011483Y012475D01*
X011355Y012531D02*
X011089Y012531D01*
X011355Y012531D02*
X011355Y011983D01*
X011089Y011983D01*
X011089Y012531D01*
X011089Y012065D02*
X011355Y012065D01*
X011355Y012147D02*
X011089Y012147D01*
X011089Y012229D02*
X011355Y012229D01*
X011355Y012311D02*
X011089Y012311D01*
X011089Y012393D02*
X011355Y012393D01*
X011355Y012475D02*
X011089Y012475D01*
X010961Y012531D02*
X010695Y012531D01*
X010961Y012531D02*
X010961Y011983D01*
X010695Y011983D01*
X010695Y012531D01*
X010695Y012065D02*
X010961Y012065D01*
X010961Y012147D02*
X010695Y012147D01*
X010695Y012229D02*
X010961Y012229D01*
X010961Y012311D02*
X010695Y012311D01*
X010695Y012393D02*
X010961Y012393D01*
X010961Y012475D02*
X010695Y012475D01*
X010568Y012531D02*
X010302Y012531D01*
X010568Y012531D02*
X010568Y011983D01*
X010302Y011983D01*
X010302Y012531D01*
X010302Y012065D02*
X010568Y012065D01*
X010568Y012147D02*
X010302Y012147D01*
X010302Y012229D02*
X010568Y012229D01*
X010568Y012311D02*
X010302Y012311D01*
X010302Y012393D02*
X010568Y012393D01*
X010568Y012475D02*
X010302Y012475D01*
X010174Y012531D02*
X009908Y012531D01*
X010174Y012531D02*
X010174Y011983D01*
X009908Y011983D01*
X009908Y012531D01*
X009908Y012065D02*
X010174Y012065D01*
X010174Y012147D02*
X009908Y012147D01*
X009908Y012229D02*
X010174Y012229D01*
X010174Y012311D02*
X009908Y012311D01*
X009908Y012393D02*
X010174Y012393D01*
X010174Y012475D02*
X009908Y012475D01*
X009780Y012531D02*
X009514Y012531D01*
X009780Y012531D02*
X009780Y011983D01*
X009514Y011983D01*
X009514Y012531D01*
X009514Y012065D02*
X009780Y012065D01*
X009780Y012147D02*
X009514Y012147D01*
X009514Y012229D02*
X009780Y012229D01*
X009780Y012311D02*
X009514Y012311D01*
X009514Y012393D02*
X009780Y012393D01*
X009780Y012475D02*
X009514Y012475D01*
X007092Y012531D02*
X006826Y012531D01*
X007092Y012531D02*
X007092Y011983D01*
X006826Y011983D01*
X006826Y012531D01*
X006826Y012065D02*
X007092Y012065D01*
X007092Y012147D02*
X006826Y012147D01*
X006826Y012229D02*
X007092Y012229D01*
X007092Y012311D02*
X006826Y012311D01*
X006826Y012393D02*
X007092Y012393D01*
X007092Y012475D02*
X006826Y012475D01*
X006698Y012531D02*
X006432Y012531D01*
X006698Y012531D02*
X006698Y011983D01*
X006432Y011983D01*
X006432Y012531D01*
X006432Y012065D02*
X006698Y012065D01*
X006698Y012147D02*
X006432Y012147D01*
X006432Y012229D02*
X006698Y012229D01*
X006698Y012311D02*
X006432Y012311D01*
X006432Y012393D02*
X006698Y012393D01*
X006698Y012475D02*
X006432Y012475D01*
X006305Y012531D02*
X006039Y012531D01*
X006305Y012531D02*
X006305Y011983D01*
X006039Y011983D01*
X006039Y012531D01*
X006039Y012065D02*
X006305Y012065D01*
X006305Y012147D02*
X006039Y012147D01*
X006039Y012229D02*
X006305Y012229D01*
X006305Y012311D02*
X006039Y012311D01*
X006039Y012393D02*
X006305Y012393D01*
X006305Y012475D02*
X006039Y012475D01*
X005911Y012531D02*
X005645Y012531D01*
X005911Y012531D02*
X005911Y011983D01*
X005645Y011983D01*
X005645Y012531D01*
X005645Y012065D02*
X005911Y012065D01*
X005911Y012147D02*
X005645Y012147D01*
X005645Y012229D02*
X005911Y012229D01*
X005911Y012311D02*
X005645Y012311D01*
X005645Y012393D02*
X005911Y012393D01*
X005911Y012475D02*
X005645Y012475D01*
X005517Y012531D02*
X005251Y012531D01*
X005517Y012531D02*
X005517Y011983D01*
X005251Y011983D01*
X005251Y012531D01*
X005251Y012065D02*
X005517Y012065D01*
X005517Y012147D02*
X005251Y012147D01*
X005251Y012229D02*
X005517Y012229D01*
X005517Y012311D02*
X005251Y012311D01*
X005251Y012393D02*
X005517Y012393D01*
X005517Y012475D02*
X005251Y012475D01*
X005124Y012531D02*
X004858Y012531D01*
X005124Y012531D02*
X005124Y011983D01*
X004858Y011983D01*
X004858Y012531D01*
X004858Y012065D02*
X005124Y012065D01*
X005124Y012147D02*
X004858Y012147D01*
X004858Y012229D02*
X005124Y012229D01*
X005124Y012311D02*
X004858Y012311D01*
X004858Y012393D02*
X005124Y012393D01*
X005124Y012475D02*
X004858Y012475D01*
X004730Y012531D02*
X004464Y012531D01*
X004730Y012531D02*
X004730Y011983D01*
X004464Y011983D01*
X004464Y012531D01*
X004464Y012065D02*
X004730Y012065D01*
X004730Y012147D02*
X004464Y012147D01*
X004464Y012229D02*
X004730Y012229D01*
X004730Y012311D02*
X004464Y012311D01*
X004464Y012393D02*
X004730Y012393D01*
X004730Y012475D02*
X004464Y012475D01*
X004336Y012531D02*
X004070Y012531D01*
X004336Y012531D02*
X004336Y011983D01*
X004070Y011983D01*
X004070Y012531D01*
X004070Y012065D02*
X004336Y012065D01*
X004336Y012147D02*
X004070Y012147D01*
X004070Y012229D02*
X004336Y012229D01*
X004336Y012311D02*
X004070Y012311D01*
X004070Y012393D02*
X004336Y012393D01*
X004336Y012475D02*
X004070Y012475D01*
X003943Y012531D02*
X003677Y012531D01*
X003943Y012531D02*
X003943Y011983D01*
X003677Y011983D01*
X003677Y012531D01*
X003677Y012065D02*
X003943Y012065D01*
X003943Y012147D02*
X003677Y012147D01*
X003677Y012229D02*
X003943Y012229D01*
X003943Y012311D02*
X003677Y012311D01*
X003677Y012393D02*
X003943Y012393D01*
X003943Y012475D02*
X003677Y012475D01*
X003549Y012531D02*
X003283Y012531D01*
X003549Y012531D02*
X003549Y011983D01*
X003283Y011983D01*
X003283Y012531D01*
X003283Y012065D02*
X003549Y012065D01*
X003549Y012147D02*
X003283Y012147D01*
X003283Y012229D02*
X003549Y012229D01*
X003549Y012311D02*
X003283Y012311D01*
X003283Y012393D02*
X003549Y012393D01*
X003549Y012475D02*
X003283Y012475D01*
X003155Y012531D02*
X002889Y012531D01*
X003155Y012531D02*
X003155Y011983D01*
X002889Y011983D01*
X002889Y012531D01*
X002889Y012065D02*
X003155Y012065D01*
X003155Y012147D02*
X002889Y012147D01*
X002889Y012229D02*
X003155Y012229D01*
X003155Y012311D02*
X002889Y012311D01*
X002889Y012393D02*
X003155Y012393D01*
X003155Y012475D02*
X002889Y012475D01*
X002761Y012531D02*
X002495Y012531D01*
X002761Y012531D02*
X002761Y011983D01*
X002495Y011983D01*
X002495Y012531D01*
X002495Y012065D02*
X002761Y012065D01*
X002761Y012147D02*
X002495Y012147D01*
X002495Y012229D02*
X002761Y012229D01*
X002761Y012311D02*
X002495Y012311D01*
X002495Y012393D02*
X002761Y012393D01*
X002761Y012475D02*
X002495Y012475D01*
X002368Y012531D02*
X002102Y012531D01*
X002368Y012531D02*
X002368Y011983D01*
X002102Y011983D01*
X002102Y012531D01*
X002102Y012065D02*
X002368Y012065D01*
X002368Y012147D02*
X002102Y012147D01*
X002102Y012229D02*
X002368Y012229D01*
X002368Y012311D02*
X002102Y012311D01*
X002102Y012393D02*
X002368Y012393D01*
X002368Y012475D02*
X002102Y012475D01*
X001974Y012531D02*
X001708Y012531D01*
X001974Y012531D02*
X001974Y011983D01*
X001708Y011983D01*
X001708Y012531D01*
X001708Y012065D02*
X001974Y012065D01*
X001974Y012147D02*
X001708Y012147D01*
X001708Y012229D02*
X001974Y012229D01*
X001974Y012311D02*
X001708Y012311D01*
X001708Y012393D02*
X001974Y012393D01*
X001974Y012475D02*
X001708Y012475D01*
X001580Y012531D02*
X001314Y012531D01*
X001580Y012531D02*
X001580Y011983D01*
X001314Y011983D01*
X001314Y012531D01*
X001314Y012065D02*
X001580Y012065D01*
X001580Y012147D02*
X001314Y012147D01*
X001314Y012229D02*
X001580Y012229D01*
X001580Y012311D02*
X001314Y012311D01*
X001314Y012393D02*
X001580Y012393D01*
X001580Y012475D02*
X001314Y012475D01*
X001314Y019697D02*
X001580Y019697D01*
X001580Y019149D01*
X001314Y019149D01*
X001314Y019697D01*
X001314Y019231D02*
X001580Y019231D01*
X001580Y019313D02*
X001314Y019313D01*
X001314Y019395D02*
X001580Y019395D01*
X001580Y019477D02*
X001314Y019477D01*
X001314Y019559D02*
X001580Y019559D01*
X001580Y019641D02*
X001314Y019641D01*
X001708Y019697D02*
X001974Y019697D01*
X001974Y019149D01*
X001708Y019149D01*
X001708Y019697D01*
X001708Y019231D02*
X001974Y019231D01*
X001974Y019313D02*
X001708Y019313D01*
X001708Y019395D02*
X001974Y019395D01*
X001974Y019477D02*
X001708Y019477D01*
X001708Y019559D02*
X001974Y019559D01*
X001974Y019641D02*
X001708Y019641D01*
X002102Y019697D02*
X002368Y019697D01*
X002368Y019149D01*
X002102Y019149D01*
X002102Y019697D01*
X002102Y019231D02*
X002368Y019231D01*
X002368Y019313D02*
X002102Y019313D01*
X002102Y019395D02*
X002368Y019395D01*
X002368Y019477D02*
X002102Y019477D01*
X002102Y019559D02*
X002368Y019559D01*
X002368Y019641D02*
X002102Y019641D01*
X002495Y019697D02*
X002761Y019697D01*
X002761Y019149D01*
X002495Y019149D01*
X002495Y019697D01*
X002495Y019231D02*
X002761Y019231D01*
X002761Y019313D02*
X002495Y019313D01*
X002495Y019395D02*
X002761Y019395D01*
X002761Y019477D02*
X002495Y019477D01*
X002495Y019559D02*
X002761Y019559D01*
X002761Y019641D02*
X002495Y019641D01*
X002889Y019697D02*
X003155Y019697D01*
X003155Y019149D01*
X002889Y019149D01*
X002889Y019697D01*
X002889Y019231D02*
X003155Y019231D01*
X003155Y019313D02*
X002889Y019313D01*
X002889Y019395D02*
X003155Y019395D01*
X003155Y019477D02*
X002889Y019477D01*
X002889Y019559D02*
X003155Y019559D01*
X003155Y019641D02*
X002889Y019641D01*
X003283Y019697D02*
X003549Y019697D01*
X003549Y019149D01*
X003283Y019149D01*
X003283Y019697D01*
X003283Y019231D02*
X003549Y019231D01*
X003549Y019313D02*
X003283Y019313D01*
X003283Y019395D02*
X003549Y019395D01*
X003549Y019477D02*
X003283Y019477D01*
X003283Y019559D02*
X003549Y019559D01*
X003549Y019641D02*
X003283Y019641D01*
X003677Y019697D02*
X003943Y019697D01*
X003943Y019149D01*
X003677Y019149D01*
X003677Y019697D01*
X003677Y019231D02*
X003943Y019231D01*
X003943Y019313D02*
X003677Y019313D01*
X003677Y019395D02*
X003943Y019395D01*
X003943Y019477D02*
X003677Y019477D01*
X003677Y019559D02*
X003943Y019559D01*
X003943Y019641D02*
X003677Y019641D01*
X004070Y019697D02*
X004336Y019697D01*
X004336Y019149D01*
X004070Y019149D01*
X004070Y019697D01*
X004070Y019231D02*
X004336Y019231D01*
X004336Y019313D02*
X004070Y019313D01*
X004070Y019395D02*
X004336Y019395D01*
X004336Y019477D02*
X004070Y019477D01*
X004070Y019559D02*
X004336Y019559D01*
X004336Y019641D02*
X004070Y019641D01*
X004464Y019697D02*
X004730Y019697D01*
X004730Y019149D01*
X004464Y019149D01*
X004464Y019697D01*
X004464Y019231D02*
X004730Y019231D01*
X004730Y019313D02*
X004464Y019313D01*
X004464Y019395D02*
X004730Y019395D01*
X004730Y019477D02*
X004464Y019477D01*
X004464Y019559D02*
X004730Y019559D01*
X004730Y019641D02*
X004464Y019641D01*
X004858Y019697D02*
X005124Y019697D01*
X005124Y019149D01*
X004858Y019149D01*
X004858Y019697D01*
X004858Y019231D02*
X005124Y019231D01*
X005124Y019313D02*
X004858Y019313D01*
X004858Y019395D02*
X005124Y019395D01*
X005124Y019477D02*
X004858Y019477D01*
X004858Y019559D02*
X005124Y019559D01*
X005124Y019641D02*
X004858Y019641D01*
X005251Y019697D02*
X005517Y019697D01*
X005517Y019149D01*
X005251Y019149D01*
X005251Y019697D01*
X005251Y019231D02*
X005517Y019231D01*
X005517Y019313D02*
X005251Y019313D01*
X005251Y019395D02*
X005517Y019395D01*
X005517Y019477D02*
X005251Y019477D01*
X005251Y019559D02*
X005517Y019559D01*
X005517Y019641D02*
X005251Y019641D01*
X005645Y019697D02*
X005911Y019697D01*
X005911Y019149D01*
X005645Y019149D01*
X005645Y019697D01*
X005645Y019231D02*
X005911Y019231D01*
X005911Y019313D02*
X005645Y019313D01*
X005645Y019395D02*
X005911Y019395D01*
X005911Y019477D02*
X005645Y019477D01*
X005645Y019559D02*
X005911Y019559D01*
X005911Y019641D02*
X005645Y019641D01*
X006039Y019697D02*
X006305Y019697D01*
X006305Y019149D01*
X006039Y019149D01*
X006039Y019697D01*
X006039Y019231D02*
X006305Y019231D01*
X006305Y019313D02*
X006039Y019313D01*
X006039Y019395D02*
X006305Y019395D01*
X006305Y019477D02*
X006039Y019477D01*
X006039Y019559D02*
X006305Y019559D01*
X006305Y019641D02*
X006039Y019641D01*
X006432Y019697D02*
X006698Y019697D01*
X006698Y019149D01*
X006432Y019149D01*
X006432Y019697D01*
X006432Y019231D02*
X006698Y019231D01*
X006698Y019313D02*
X006432Y019313D01*
X006432Y019395D02*
X006698Y019395D01*
X006698Y019477D02*
X006432Y019477D01*
X006432Y019559D02*
X006698Y019559D01*
X006698Y019641D02*
X006432Y019641D01*
X006826Y019697D02*
X007092Y019697D01*
X007092Y019149D01*
X006826Y019149D01*
X006826Y019697D01*
X006826Y019231D02*
X007092Y019231D01*
X007092Y019313D02*
X006826Y019313D01*
X006826Y019395D02*
X007092Y019395D01*
X007092Y019477D02*
X006826Y019477D01*
X006826Y019559D02*
X007092Y019559D01*
X007092Y019641D02*
X006826Y019641D01*
X009514Y019697D02*
X009780Y019697D01*
X009780Y019149D01*
X009514Y019149D01*
X009514Y019697D01*
X009514Y019231D02*
X009780Y019231D01*
X009780Y019313D02*
X009514Y019313D01*
X009514Y019395D02*
X009780Y019395D01*
X009780Y019477D02*
X009514Y019477D01*
X009514Y019559D02*
X009780Y019559D01*
X009780Y019641D02*
X009514Y019641D01*
X009908Y019697D02*
X010174Y019697D01*
X010174Y019149D01*
X009908Y019149D01*
X009908Y019697D01*
X009908Y019231D02*
X010174Y019231D01*
X010174Y019313D02*
X009908Y019313D01*
X009908Y019395D02*
X010174Y019395D01*
X010174Y019477D02*
X009908Y019477D01*
X009908Y019559D02*
X010174Y019559D01*
X010174Y019641D02*
X009908Y019641D01*
X010302Y019697D02*
X010568Y019697D01*
X010568Y019149D01*
X010302Y019149D01*
X010302Y019697D01*
X010302Y019231D02*
X010568Y019231D01*
X010568Y019313D02*
X010302Y019313D01*
X010302Y019395D02*
X010568Y019395D01*
X010568Y019477D02*
X010302Y019477D01*
X010302Y019559D02*
X010568Y019559D01*
X010568Y019641D02*
X010302Y019641D01*
X010695Y019697D02*
X010961Y019697D01*
X010961Y019149D01*
X010695Y019149D01*
X010695Y019697D01*
X010695Y019231D02*
X010961Y019231D01*
X010961Y019313D02*
X010695Y019313D01*
X010695Y019395D02*
X010961Y019395D01*
X010961Y019477D02*
X010695Y019477D01*
X010695Y019559D02*
X010961Y019559D01*
X010961Y019641D02*
X010695Y019641D01*
X011089Y019697D02*
X011355Y019697D01*
X011355Y019149D01*
X011089Y019149D01*
X011089Y019697D01*
X011089Y019231D02*
X011355Y019231D01*
X011355Y019313D02*
X011089Y019313D01*
X011089Y019395D02*
X011355Y019395D01*
X011355Y019477D02*
X011089Y019477D01*
X011089Y019559D02*
X011355Y019559D01*
X011355Y019641D02*
X011089Y019641D01*
X011483Y019697D02*
X011749Y019697D01*
X011749Y019149D01*
X011483Y019149D01*
X011483Y019697D01*
X011483Y019231D02*
X011749Y019231D01*
X011749Y019313D02*
X011483Y019313D01*
X011483Y019395D02*
X011749Y019395D01*
X011749Y019477D02*
X011483Y019477D01*
X011483Y019559D02*
X011749Y019559D01*
X011749Y019641D02*
X011483Y019641D01*
X011877Y019697D02*
X012143Y019697D01*
X012143Y019149D01*
X011877Y019149D01*
X011877Y019697D01*
X011877Y019231D02*
X012143Y019231D01*
X012143Y019313D02*
X011877Y019313D01*
X011877Y019395D02*
X012143Y019395D01*
X012143Y019477D02*
X011877Y019477D01*
X011877Y019559D02*
X012143Y019559D01*
X012143Y019641D02*
X011877Y019641D01*
X012270Y019697D02*
X012536Y019697D01*
X012536Y019149D01*
X012270Y019149D01*
X012270Y019697D01*
X012270Y019231D02*
X012536Y019231D01*
X012536Y019313D02*
X012270Y019313D01*
X012270Y019395D02*
X012536Y019395D01*
X012536Y019477D02*
X012270Y019477D01*
X012270Y019559D02*
X012536Y019559D01*
X012536Y019641D02*
X012270Y019641D01*
X012664Y019697D02*
X012930Y019697D01*
X012930Y019149D01*
X012664Y019149D01*
X012664Y019697D01*
X012664Y019231D02*
X012930Y019231D01*
X012930Y019313D02*
X012664Y019313D01*
X012664Y019395D02*
X012930Y019395D01*
X012930Y019477D02*
X012664Y019477D01*
X012664Y019559D02*
X012930Y019559D01*
X012930Y019641D02*
X012664Y019641D01*
X013058Y019697D02*
X013324Y019697D01*
X013324Y019149D01*
X013058Y019149D01*
X013058Y019697D01*
X013058Y019231D02*
X013324Y019231D01*
X013324Y019313D02*
X013058Y019313D01*
X013058Y019395D02*
X013324Y019395D01*
X013324Y019477D02*
X013058Y019477D01*
X013058Y019559D02*
X013324Y019559D01*
X013324Y019641D02*
X013058Y019641D01*
X013451Y019697D02*
X013717Y019697D01*
X013717Y019149D01*
X013451Y019149D01*
X013451Y019697D01*
X013451Y019231D02*
X013717Y019231D01*
X013717Y019313D02*
X013451Y019313D01*
X013451Y019395D02*
X013717Y019395D01*
X013717Y019477D02*
X013451Y019477D01*
X013451Y019559D02*
X013717Y019559D01*
X013717Y019641D02*
X013451Y019641D01*
X013845Y019697D02*
X014111Y019697D01*
X014111Y019149D01*
X013845Y019149D01*
X013845Y019697D01*
X013845Y019231D02*
X014111Y019231D01*
X014111Y019313D02*
X013845Y019313D01*
X013845Y019395D02*
X014111Y019395D01*
X014111Y019477D02*
X013845Y019477D01*
X013845Y019559D02*
X014111Y019559D01*
X014111Y019641D02*
X013845Y019641D01*
X014239Y019697D02*
X014505Y019697D01*
X014505Y019149D01*
X014239Y019149D01*
X014239Y019697D01*
X014239Y019231D02*
X014505Y019231D01*
X014505Y019313D02*
X014239Y019313D01*
X014239Y019395D02*
X014505Y019395D01*
X014505Y019477D02*
X014239Y019477D01*
X014239Y019559D02*
X014505Y019559D01*
X014505Y019641D02*
X014239Y019641D01*
X014632Y019697D02*
X014898Y019697D01*
X014898Y019149D01*
X014632Y019149D01*
X014632Y019697D01*
X014632Y019231D02*
X014898Y019231D01*
X014898Y019313D02*
X014632Y019313D01*
X014632Y019395D02*
X014898Y019395D01*
X014898Y019477D02*
X014632Y019477D01*
X014632Y019559D02*
X014898Y019559D01*
X014898Y019641D02*
X014632Y019641D01*
X015026Y019697D02*
X015292Y019697D01*
X015292Y019149D01*
X015026Y019149D01*
X015026Y019697D01*
X015026Y019231D02*
X015292Y019231D01*
X015292Y019313D02*
X015026Y019313D01*
X015026Y019395D02*
X015292Y019395D01*
X015292Y019477D02*
X015026Y019477D01*
X015026Y019559D02*
X015292Y019559D01*
X015292Y019641D02*
X015026Y019641D01*
X015026Y012531D02*
X015292Y012531D01*
X015292Y011983D01*
X015026Y011983D01*
X015026Y012531D01*
X015026Y012065D02*
X015292Y012065D01*
X015292Y012147D02*
X015026Y012147D01*
X015026Y012229D02*
X015292Y012229D01*
X015292Y012311D02*
X015026Y012311D01*
X015026Y012393D02*
X015292Y012393D01*
X015292Y012475D02*
X015026Y012475D01*
X014898Y012531D02*
X014632Y012531D01*
X014898Y012531D02*
X014898Y011983D01*
X014632Y011983D01*
X014632Y012531D01*
X014632Y012065D02*
X014898Y012065D01*
X014898Y012147D02*
X014632Y012147D01*
X014632Y012229D02*
X014898Y012229D01*
X014898Y012311D02*
X014632Y012311D01*
X014632Y012393D02*
X014898Y012393D01*
X014898Y012475D02*
X014632Y012475D01*
X014505Y012531D02*
X014239Y012531D01*
X014505Y012531D02*
X014505Y011983D01*
X014239Y011983D01*
X014239Y012531D01*
X014239Y012065D02*
X014505Y012065D01*
X014505Y012147D02*
X014239Y012147D01*
X014239Y012229D02*
X014505Y012229D01*
X014505Y012311D02*
X014239Y012311D01*
X014239Y012393D02*
X014505Y012393D01*
X014505Y012475D02*
X014239Y012475D01*
X014111Y012531D02*
X013845Y012531D01*
X014111Y012531D02*
X014111Y011983D01*
X013845Y011983D01*
X013845Y012531D01*
X013845Y012065D02*
X014111Y012065D01*
X014111Y012147D02*
X013845Y012147D01*
X013845Y012229D02*
X014111Y012229D01*
X014111Y012311D02*
X013845Y012311D01*
X013845Y012393D02*
X014111Y012393D01*
X014111Y012475D02*
X013845Y012475D01*
X013717Y012531D02*
X013451Y012531D01*
X013717Y012531D02*
X013717Y011983D01*
X013451Y011983D01*
X013451Y012531D01*
X013451Y012065D02*
X013717Y012065D01*
X013717Y012147D02*
X013451Y012147D01*
X013451Y012229D02*
X013717Y012229D01*
X013717Y012311D02*
X013451Y012311D01*
X013451Y012393D02*
X013717Y012393D01*
X013717Y012475D02*
X013451Y012475D01*
X013324Y012531D02*
X013058Y012531D01*
X013324Y012531D02*
X013324Y011983D01*
X013058Y011983D01*
X013058Y012531D01*
X013058Y012065D02*
X013324Y012065D01*
X013324Y012147D02*
X013058Y012147D01*
X013058Y012229D02*
X013324Y012229D01*
X013324Y012311D02*
X013058Y012311D01*
X013058Y012393D02*
X013324Y012393D01*
X013324Y012475D02*
X013058Y012475D01*
X012930Y012531D02*
X012664Y012531D01*
X012930Y012531D02*
X012930Y011983D01*
X012664Y011983D01*
X012664Y012531D01*
X012664Y012065D02*
X012930Y012065D01*
X012930Y012147D02*
X012664Y012147D01*
X012664Y012229D02*
X012930Y012229D01*
X012930Y012311D02*
X012664Y012311D01*
X012664Y012393D02*
X012930Y012393D01*
X012930Y012475D02*
X012664Y012475D01*
D22*
X012814Y015669D02*
X015260Y015669D01*
X015260Y013609D01*
X012814Y013609D01*
X012814Y015669D01*
X012814Y013694D02*
X015260Y013694D01*
X015260Y013779D02*
X012814Y013779D01*
X012814Y013864D02*
X015260Y013864D01*
X015260Y013949D02*
X012814Y013949D01*
X012814Y014034D02*
X015260Y014034D01*
X015260Y014119D02*
X012814Y014119D01*
X012814Y014204D02*
X015260Y014204D01*
X015260Y014289D02*
X012814Y014289D01*
X012814Y014374D02*
X015260Y014374D01*
X015260Y014459D02*
X012814Y014459D01*
X012814Y014544D02*
X015260Y014544D01*
X015260Y014629D02*
X012814Y014629D01*
X012814Y014714D02*
X015260Y014714D01*
X015260Y014799D02*
X012814Y014799D01*
X012814Y014884D02*
X015260Y014884D01*
X015260Y014969D02*
X012814Y014969D01*
X012814Y015054D02*
X015260Y015054D01*
X015260Y015139D02*
X012814Y015139D01*
X012814Y015224D02*
X015260Y015224D01*
X015260Y015309D02*
X012814Y015309D01*
X012814Y015394D02*
X015260Y015394D01*
X015260Y015479D02*
X012814Y015479D01*
X012814Y015564D02*
X015260Y015564D01*
X015260Y015649D02*
X012814Y015649D01*
X014427Y018071D02*
X010379Y018071D01*
X014427Y018071D02*
X014427Y016011D01*
X010379Y016011D01*
X010379Y018071D01*
X010379Y016096D02*
X014427Y016096D01*
X014427Y016181D02*
X010379Y016181D01*
X010379Y016266D02*
X014427Y016266D01*
X014427Y016351D02*
X010379Y016351D01*
X010379Y016436D02*
X014427Y016436D01*
X014427Y016521D02*
X010379Y016521D01*
X010379Y016606D02*
X014427Y016606D01*
X014427Y016691D02*
X010379Y016691D01*
X010379Y016776D02*
X014427Y016776D01*
X014427Y016861D02*
X010379Y016861D01*
X010379Y016946D02*
X014427Y016946D01*
X014427Y017031D02*
X010379Y017031D01*
X010379Y017116D02*
X014427Y017116D01*
X014427Y017201D02*
X010379Y017201D01*
X010379Y017286D02*
X014427Y017286D01*
X014427Y017371D02*
X010379Y017371D01*
X010379Y017456D02*
X014427Y017456D01*
X014427Y017541D02*
X010379Y017541D01*
X010379Y017626D02*
X014427Y017626D01*
X014427Y017711D02*
X010379Y017711D01*
X010379Y017796D02*
X014427Y017796D01*
X014427Y017881D02*
X010379Y017881D01*
X010379Y017966D02*
X014427Y017966D01*
X014427Y018051D02*
X010379Y018051D01*
X009546Y015669D02*
X011992Y015669D01*
X011992Y013609D01*
X009546Y013609D01*
X009546Y015669D01*
X009546Y013694D02*
X011992Y013694D01*
X011992Y013779D02*
X009546Y013779D01*
X009546Y013864D02*
X011992Y013864D01*
X011992Y013949D02*
X009546Y013949D01*
X009546Y014034D02*
X011992Y014034D01*
X011992Y014119D02*
X009546Y014119D01*
X009546Y014204D02*
X011992Y014204D01*
X011992Y014289D02*
X009546Y014289D01*
X009546Y014374D02*
X011992Y014374D01*
X011992Y014459D02*
X009546Y014459D01*
X009546Y014544D02*
X011992Y014544D01*
X011992Y014629D02*
X009546Y014629D01*
X009546Y014714D02*
X011992Y014714D01*
X011992Y014799D02*
X009546Y014799D01*
X009546Y014884D02*
X011992Y014884D01*
X011992Y014969D02*
X009546Y014969D01*
X009546Y015054D02*
X011992Y015054D01*
X011992Y015139D02*
X009546Y015139D01*
X009546Y015224D02*
X011992Y015224D01*
X011992Y015309D02*
X009546Y015309D01*
X009546Y015394D02*
X011992Y015394D01*
X011992Y015479D02*
X009546Y015479D01*
X009546Y015564D02*
X011992Y015564D01*
X011992Y015649D02*
X009546Y015649D01*
X007060Y015669D02*
X004614Y015669D01*
X007060Y015669D02*
X007060Y013609D01*
X004614Y013609D01*
X004614Y015669D01*
X004614Y013694D02*
X007060Y013694D01*
X007060Y013779D02*
X004614Y013779D01*
X004614Y013864D02*
X007060Y013864D01*
X007060Y013949D02*
X004614Y013949D01*
X004614Y014034D02*
X007060Y014034D01*
X007060Y014119D02*
X004614Y014119D01*
X004614Y014204D02*
X007060Y014204D01*
X007060Y014289D02*
X004614Y014289D01*
X004614Y014374D02*
X007060Y014374D01*
X007060Y014459D02*
X004614Y014459D01*
X004614Y014544D02*
X007060Y014544D01*
X007060Y014629D02*
X004614Y014629D01*
X004614Y014714D02*
X007060Y014714D01*
X007060Y014799D02*
X004614Y014799D01*
X004614Y014884D02*
X007060Y014884D01*
X007060Y014969D02*
X004614Y014969D01*
X004614Y015054D02*
X007060Y015054D01*
X007060Y015139D02*
X004614Y015139D01*
X004614Y015224D02*
X007060Y015224D01*
X007060Y015309D02*
X004614Y015309D01*
X004614Y015394D02*
X007060Y015394D01*
X007060Y015479D02*
X004614Y015479D01*
X004614Y015564D02*
X007060Y015564D01*
X007060Y015649D02*
X004614Y015649D01*
X006227Y018071D02*
X002179Y018071D01*
X006227Y018071D02*
X006227Y016011D01*
X002179Y016011D01*
X002179Y018071D01*
X002179Y016096D02*
X006227Y016096D01*
X006227Y016181D02*
X002179Y016181D01*
X002179Y016266D02*
X006227Y016266D01*
X006227Y016351D02*
X002179Y016351D01*
X002179Y016436D02*
X006227Y016436D01*
X006227Y016521D02*
X002179Y016521D01*
X002179Y016606D02*
X006227Y016606D01*
X006227Y016691D02*
X002179Y016691D01*
X002179Y016776D02*
X006227Y016776D01*
X006227Y016861D02*
X002179Y016861D01*
X002179Y016946D02*
X006227Y016946D01*
X006227Y017031D02*
X002179Y017031D01*
X002179Y017116D02*
X006227Y017116D01*
X006227Y017201D02*
X002179Y017201D01*
X002179Y017286D02*
X006227Y017286D01*
X006227Y017371D02*
X002179Y017371D01*
X002179Y017456D02*
X006227Y017456D01*
X006227Y017541D02*
X002179Y017541D01*
X002179Y017626D02*
X006227Y017626D01*
X006227Y017711D02*
X002179Y017711D01*
X002179Y017796D02*
X006227Y017796D01*
X006227Y017881D02*
X002179Y017881D01*
X002179Y017966D02*
X006227Y017966D01*
X006227Y018051D02*
X002179Y018051D01*
X001346Y015669D02*
X003792Y015669D01*
X003792Y013609D01*
X001346Y013609D01*
X001346Y015669D01*
X001346Y013694D02*
X003792Y013694D01*
X003792Y013779D02*
X001346Y013779D01*
X001346Y013864D02*
X003792Y013864D01*
X003792Y013949D02*
X001346Y013949D01*
X001346Y014034D02*
X003792Y014034D01*
X003792Y014119D02*
X001346Y014119D01*
X001346Y014204D02*
X003792Y014204D01*
X003792Y014289D02*
X001346Y014289D01*
X001346Y014374D02*
X003792Y014374D01*
X003792Y014459D02*
X001346Y014459D01*
X001346Y014544D02*
X003792Y014544D01*
X003792Y014629D02*
X001346Y014629D01*
X001346Y014714D02*
X003792Y014714D01*
X003792Y014799D02*
X001346Y014799D01*
X001346Y014884D02*
X003792Y014884D01*
X003792Y014969D02*
X001346Y014969D01*
X001346Y015054D02*
X003792Y015054D01*
X003792Y015139D02*
X001346Y015139D01*
X001346Y015224D02*
X003792Y015224D01*
X003792Y015309D02*
X001346Y015309D01*
X001346Y015394D02*
X003792Y015394D01*
X003792Y015479D02*
X001346Y015479D01*
X001346Y015564D02*
X003792Y015564D01*
X003792Y015649D02*
X001346Y015649D01*
D23*
X004183Y026131D02*
X004773Y026131D01*
X004183Y026131D02*
X004183Y026721D01*
X004773Y026721D01*
X004773Y026131D01*
X004773Y026210D02*
X004183Y026210D01*
X004183Y026289D02*
X004773Y026289D01*
X004773Y026368D02*
X004183Y026368D01*
X004183Y026447D02*
X004773Y026447D01*
X004773Y026526D02*
X004183Y026526D01*
X004183Y026605D02*
X004773Y026605D01*
X004773Y026684D02*
X004183Y026684D01*
X004183Y027509D02*
X004773Y027509D01*
X004183Y027509D02*
X004183Y028099D01*
X004773Y028099D01*
X004773Y027509D01*
X004773Y027588D02*
X004183Y027588D01*
X004183Y027667D02*
X004773Y027667D01*
X004773Y027746D02*
X004183Y027746D01*
X004183Y027825D02*
X004773Y027825D01*
X004773Y027904D02*
X004183Y027904D01*
X004183Y027983D02*
X004773Y027983D01*
X004773Y028062D02*
X004183Y028062D01*
D24*
X010293Y025140D03*
X011613Y026400D03*
D25*
X012703Y024240D03*
X014203Y020640D03*
X013553Y020115D03*
X012903Y020190D03*
X012903Y018390D03*
X012403Y018390D03*
X012503Y017640D03*
X012203Y017240D03*
X012503Y016840D03*
X012203Y016440D03*
X012503Y016040D03*
X012803Y016440D03*
X013103Y016840D03*
X012803Y017240D03*
X013103Y017640D03*
X013403Y017240D03*
X013703Y017640D03*
X014003Y017240D03*
X013703Y016840D03*
X013403Y016440D03*
X013103Y016040D03*
X013353Y015590D03*
X013003Y015190D03*
X013353Y014790D03*
X013003Y014390D03*
X013353Y013990D03*
X013003Y013590D03*
X013353Y013190D03*
X013703Y013590D03*
X014003Y013190D03*
X014303Y013590D03*
X014003Y013990D03*
X013703Y014390D03*
X014003Y014790D03*
X013703Y015190D03*
X014003Y015590D03*
X014303Y015190D03*
X014653Y015590D03*
X014903Y016040D03*
X014603Y016440D03*
X014303Y016840D03*
X014003Y016440D03*
X013703Y016040D03*
X014303Y016040D03*
X014903Y016840D03*
X014603Y017240D03*
X014303Y017640D03*
X014903Y017640D03*
X015503Y018890D03*
X015478Y021440D03*
X015478Y021890D03*
X015153Y025190D03*
X011503Y020090D03*
X010653Y020140D03*
X009653Y020940D03*
X010503Y022340D03*
X010553Y022965D03*
X010103Y022640D03*
X009003Y022640D03*
X008153Y022390D03*
X008503Y020590D03*
X007603Y020590D03*
X006853Y020040D03*
X006153Y019990D03*
X006603Y021440D03*
X006703Y023740D03*
X006053Y024240D03*
X005553Y025090D03*
X004653Y025390D03*
X004603Y024940D03*
X003853Y023590D03*
X004603Y023290D03*
X005053Y023140D03*
X004603Y022640D03*
X004203Y021615D03*
X003803Y021890D03*
X004478Y020140D03*
X005128Y021540D03*
X003353Y020040D03*
X003503Y018415D03*
X003078Y018365D03*
X002628Y018390D03*
X002353Y017640D03*
X002103Y017240D03*
X002353Y016840D03*
X002603Y017240D03*
X002903Y017640D03*
X003203Y017240D03*
X002953Y016840D03*
X002653Y016440D03*
X002353Y016040D03*
X002053Y016440D03*
X001753Y016840D03*
X001853Y017640D03*
X001553Y018040D03*
X002953Y016040D03*
X003253Y016440D03*
X003503Y016040D03*
X003803Y016440D03*
X003503Y016840D03*
X003803Y017240D03*
X003503Y017640D03*
X004103Y017640D03*
X004403Y017240D03*
X004703Y017640D03*
X005003Y017240D03*
X004703Y016840D03*
X004403Y016440D03*
X004703Y016040D03*
X005003Y016440D03*
X005303Y016840D03*
X005603Y017240D03*
X005903Y017640D03*
X006203Y017240D03*
X005903Y016840D03*
X005603Y016440D03*
X005903Y016040D03*
X006203Y016440D03*
X006503Y016840D03*
X006803Y017240D03*
X006503Y017640D03*
X007103Y017640D03*
X007403Y017240D03*
X007103Y016840D03*
X006803Y016440D03*
X006503Y016040D03*
X006603Y015540D03*
X006303Y015140D03*
X006003Y015540D03*
X005703Y015140D03*
X005403Y015540D03*
X005103Y015140D03*
X004803Y015540D03*
X004303Y015540D03*
X004053Y015140D03*
X004303Y014740D03*
X004053Y014340D03*
X004303Y013940D03*
X004053Y013540D03*
X003353Y013890D03*
X003053Y014290D03*
X003353Y014690D03*
X003053Y015090D03*
X003353Y015490D03*
X002753Y015490D03*
X002453Y015090D03*
X002153Y015490D03*
X001853Y015090D03*
X001553Y015490D03*
X001553Y014690D03*
X001853Y014290D03*
X001553Y013890D03*
X001853Y013490D03*
X001553Y013090D03*
X002153Y013890D03*
X002453Y014290D03*
X002153Y014690D03*
X002753Y014690D03*
X002753Y013890D03*
X002453Y013490D03*
X002753Y013090D03*
X003053Y013490D03*
X003353Y013090D03*
X004803Y013140D03*
X005103Y013540D03*
X005403Y013140D03*
X005703Y013540D03*
X005403Y013940D03*
X005103Y014340D03*
X005403Y014740D03*
X005703Y014340D03*
X006003Y014740D03*
X006303Y014340D03*
X006003Y013940D03*
X006303Y013540D03*
X006003Y013140D03*
X006603Y013140D03*
X006603Y013940D03*
X006603Y014740D03*
X007103Y016040D03*
X007403Y016440D03*
X007703Y016840D03*
X008003Y017240D03*
X007703Y017640D03*
X008303Y017640D03*
X008603Y017240D03*
X008303Y016840D03*
X008003Y016440D03*
X007703Y016040D03*
X008003Y015640D03*
X007703Y015240D03*
X008303Y015240D03*
X008603Y015640D03*
X008303Y016040D03*
X008603Y016440D03*
X008903Y016840D03*
X009203Y017240D03*
X008903Y017640D03*
X009503Y017640D03*
X009803Y017240D03*
X009503Y016840D03*
X009203Y016440D03*
X008903Y016040D03*
X008903Y015240D03*
X009503Y016040D03*
X009803Y016440D03*
X010103Y016840D03*
X010403Y017240D03*
X010103Y017640D03*
X010703Y017640D03*
X011003Y017240D03*
X011303Y017640D03*
X011603Y017240D03*
X011303Y016840D03*
X011003Y016440D03*
X011303Y016040D03*
X011603Y016440D03*
X011903Y016840D03*
X011903Y017640D03*
X011778Y018390D03*
X011303Y018390D03*
X010853Y018390D03*
X010703Y016840D03*
X010403Y016440D03*
X010103Y016040D03*
X010003Y015440D03*
X010303Y015090D03*
X010603Y015440D03*
X010903Y015090D03*
X011203Y015440D03*
X011503Y015090D03*
X011753Y015440D03*
X011903Y016040D03*
X012303Y015440D03*
X012503Y014990D03*
X012253Y014590D03*
X012503Y014190D03*
X012253Y013790D03*
X012503Y013390D03*
X011753Y013040D03*
X011453Y013440D03*
X011153Y013840D03*
X010853Y013440D03*
X011153Y013040D03*
X010503Y013040D03*
X010203Y013440D03*
X009903Y013840D03*
X010203Y014240D03*
X009903Y014640D03*
X009703Y015090D03*
X010503Y014640D03*
X010853Y014240D03*
X011153Y014640D03*
X011453Y014240D03*
X011753Y014640D03*
X011753Y013840D03*
X010503Y013840D03*
X009903Y013040D03*
X010703Y016040D03*
X013603Y018390D03*
X015303Y015590D03*
X015003Y015190D03*
X015303Y014790D03*
X015003Y014390D03*
X015303Y013990D03*
X015003Y013590D03*
X015303Y013190D03*
X014653Y013190D03*
X014653Y013990D03*
X014303Y014390D03*
X014653Y014790D03*
X009103Y026615D03*
X007603Y026740D03*
X007603Y027290D03*
X005053Y026540D03*
X003703Y025440D03*
X003653Y024940D03*
X002678Y025440D03*
X003203Y027390D03*
X002653Y027740D03*
X002103Y023115D03*
X001853Y022490D03*
X001253Y022140D03*
X004103Y016840D03*
X004103Y016040D03*
X004803Y014740D03*
X004803Y013940D03*
X005303Y016040D03*
X005303Y017640D03*
X005303Y018390D03*
X004853Y018390D03*
X004403Y018390D03*
X005753Y018390D03*
M02*
