%
M48
M72
T01C0.0197
T02C0.0200
T03C0.0350
T04C0.0394
T05C0.0433
T06C0.0730
T07C0.1285
%
T01
X1553Y13090
X1853Y13490
X1553Y13890
X1853Y14290
X1553Y14690
X1853Y15090
X1553Y15490
X2153Y15490
X2453Y15090
X2153Y14690
X2453Y14290
X2153Y13890
X2453Y13490
X2753Y13890
X3053Y14290
X3353Y14690
X3053Y15090
X3353Y15490
X3503Y16040
X3253Y16440
X3503Y16840
X3203Y17240
X2953Y16840
X2653Y16440
X2353Y16840
X2103Y17240
X2353Y17640
X2603Y17240
X2903Y17640
X3503Y17640
X3803Y17240
X4103Y17640
X4403Y17240
X4703Y17640
X5003Y17240
X4703Y16840
X4403Y16440
X4703Y16040
X5003Y16440
X5303Y16840
X5603Y17240
X5903Y17640
X6203Y17240
X5903Y16840
X5603Y16440
X5903Y16040
X6203Y16440
X6503Y16840
X6803Y17240
X6503Y17640
X7103Y17640
X7403Y17240
X7103Y16840
X6803Y16440
X6503Y16040
X6603Y15540
X6303Y15140
X6003Y15540
X5703Y15140
X5403Y15540
X5103Y15140
X4803Y15540
X4303Y15540
X4053Y15140
X4303Y14740
X4053Y14340
X4303Y13940
X4053Y13540
X3353Y13890
X3053Y13490
X3353Y13090
X2753Y13090
X2753Y14690
X2753Y15490
X2953Y16040
X2353Y16040
X2053Y16440
X1753Y16840
X1853Y17640
X1553Y18040
X2628Y18390
X3078Y18365
X3503Y18415
X4103Y16840
X3803Y16440
X4103Y16040
X4803Y14740
X5103Y14340
X5403Y14740
X5703Y14340
X5403Y13940
X5103Y13540
X5403Y13140
X5703Y13540
X6003Y13940
X6303Y14340
X6003Y14740
X6603Y14740
X6603Y13940
X6303Y13540
X6003Y13140
X6603Y13140
X7703Y15240
X8003Y15640
X7703Y16040
X7403Y16440
X7103Y16040
X7703Y16840
X8003Y17240
X7703Y17640
X8303Y17640
X8603Y17240
X8303Y16840
X8003Y16440
X8303Y16040
X8603Y16440
X8903Y16840
X9203Y17240
X8903Y17640
X9503Y17640
X9803Y17240
X9503Y16840
X9203Y16440
X8903Y16040
X8603Y15640
X8303Y15240
X8903Y15240
X9503Y16040
X9803Y16440
X10103Y16840
X10403Y17240
X10103Y17640
X10703Y17640
X11003Y17240
X11303Y17640
X11603Y17240
X11303Y16840
X11003Y16440
X11303Y16040
X11603Y16440
X11903Y16840
X12203Y17240
X12503Y17640
X12803Y17240
X12503Y16840
X12203Y16440
X12503Y16040
X12803Y16440
X13103Y16840
X13403Y17240
X13103Y17640
X12903Y18390
X12403Y18390
X11903Y17640
X11778Y18390
X11303Y18390
X10853Y18390
X10703Y16840
X10403Y16440
X10103Y16040
X10003Y15440
X10303Y15090
X10603Y15440
X10903Y15090
X11203Y15440
X11503Y15090
X11753Y15440
X11903Y16040
X12303Y15440
X12503Y14990
X12253Y14590
X12503Y14190
X12253Y13790
X12503Y13390
X13003Y13590
X13353Y13990
X13003Y14390
X13353Y14790
X13003Y15190
X13353Y15590
X13103Y16040
X13403Y16440
X13703Y16840
X14003Y17240
X13703Y17640
X14303Y17640
X14603Y17240
X14303Y16840
X14003Y16440
X13703Y16040
X14003Y15590
X13703Y15190
X14003Y14790
X13703Y14390
X14003Y13990
X13703Y13590
X14003Y13190
X14303Y13590
X14653Y13990
X14303Y14390
X14653Y14790
X14303Y15190
X14653Y15590
X14903Y16040
X14603Y16440
X14303Y16040
X14903Y16840
X14903Y17640
X15503Y18890
X14203Y20640
X13553Y20115
X12903Y20190
X13603Y18390
X15303Y15590
X15003Y15190
X15303Y14790
X15003Y14390
X15303Y13990
X15003Y13590
X15303Y13190
X14653Y13190
X13353Y13190
X11753Y13040
X11453Y13440
X11153Y13840
X10853Y13440
X11153Y13040
X10503Y13040
X10203Y13440
X9903Y13840
X10203Y14240
X9903Y14640
X9703Y15090
X10503Y14640
X10853Y14240
X11153Y14640
X11453Y14240
X11753Y14640
X11753Y13840
X10503Y13840
X9903Y13040
X10703Y16040
X10653Y20140
X11503Y20090
X10503Y22340
X10553Y22965
X10103Y22640
X9003Y22640
X8153Y22390
X8503Y20590
X7603Y20590
X6853Y20040
X6153Y19990
X6603Y21440
X6703Y23740
X6053Y24240
X5553Y25090
X4653Y25390
X4603Y24940
X3853Y23590
X4603Y23290
X5053Y23140
X4603Y22640
X4203Y21615
X3803Y21890
X4478Y20140
X5128Y21540
X3353Y20040
X4403Y18390
X4853Y18390
X5303Y18390
X5753Y18390
X5303Y17640
X5303Y16040
X4803Y13940
X4803Y13140
X9653Y20940
X12703Y24240
X15153Y25190
X15478Y21890
X15478Y21440
X9103Y26615
X7603Y26740
X7603Y27290
X5053Y26540
X3703Y25440
X3653Y24940
X2678Y25440
X3203Y27390
X2653Y27740
X2103Y23115
X1853Y22490
X1253Y22140
T02
X10293Y25140
X11613Y26400
T03
X12453Y26590
X12453Y27590
X1003Y24365
X1003Y23365
T04
X7453Y24540
X7453Y25540
X8453Y25540
X8453Y24540
X9453Y24540
X9453Y25540
T05
X1603Y2690
X1603Y3690
X1603Y4690
X1603Y5690
X1603Y6690
X1603Y7690
X1603Y8690
X1603Y9690
X1603Y10690
X2553Y11590
X5903Y11540
X10753Y11490
X13653Y11490
X15323Y10690
X15323Y9690
X15323Y8690
X15323Y7690
X15323Y6690
X15323Y5690
X15323Y4690
X15323Y3690
X15323Y2690
T06
X12203Y3990
X12203Y5960
X9253Y5960
X9253Y3990
X7703Y3990
X7703Y5960
X4753Y5960
X4753Y3990
T07
X8453Y8767
X2153Y26590
X14753Y26590
M30
