G75*
G70*
%OFA0B0*%
%FSLAX24Y24*%
%IPPOS*%
%LPD*%
%AMOC8*
5,1,8,0,0,1.08239X$1,22.5*
%
%ADD10R,0.0500X0.0220*%
%ADD11R,0.0220X0.0500*%
%ADD12R,0.0394X0.0276*%
%ADD13R,0.1449X0.0500*%
%ADD14R,0.0256X0.0417*%
%ADD15R,0.0276X0.0394*%
%ADD16R,0.0276X0.1614*%
%ADD17R,0.0394X0.1614*%
%ADD18R,0.0472X0.1181*%
%ADD19R,0.0268X0.0551*%
%ADD20R,0.2453X0.2067*%
%ADD21R,0.4055X0.2067*%
%ADD22R,0.0591X0.0591*%
D10*
X002663Y021487D03*
X002663Y021802D03*
X002663Y022117D03*
X002663Y022432D03*
X002663Y022747D03*
X002663Y023062D03*
X002663Y023377D03*
X002663Y023692D03*
X006043Y023692D03*
X006043Y023377D03*
X006043Y023062D03*
X006043Y022747D03*
X006043Y022432D03*
X006043Y022117D03*
X006043Y021802D03*
X006043Y021487D03*
D11*
X005456Y020900D03*
X005141Y020900D03*
X004826Y020900D03*
X004511Y020900D03*
X004196Y020900D03*
X003881Y020900D03*
X003566Y020900D03*
X003251Y020900D03*
X003251Y024280D03*
X003566Y024280D03*
X003881Y024280D03*
X004196Y024280D03*
X004511Y024280D03*
X004826Y024280D03*
X005141Y024280D03*
X005456Y024280D03*
D12*
X006853Y023165D03*
X006853Y022614D03*
X008253Y020065D03*
X008253Y019514D03*
X009003Y019514D03*
X009003Y020065D03*
X010803Y024814D03*
X010803Y025365D03*
X013003Y025615D03*
X013003Y025064D03*
D13*
X013503Y023590D03*
X013503Y022590D03*
X013503Y021590D03*
X011703Y021590D03*
X011703Y022590D03*
X011703Y023590D03*
D14*
X011505Y024724D03*
X011505Y025590D03*
X011879Y025590D03*
X012253Y025590D03*
X012253Y024724D03*
D15*
X014003Y024665D03*
X014554Y024665D03*
X006679Y024940D03*
X006679Y025640D03*
X006128Y025640D03*
X006128Y024940D03*
D16*
X002164Y020985D03*
X000983Y020985D03*
D17*
X001573Y020985D03*
D18*
X004753Y007662D03*
X004753Y011008D03*
X012203Y011008D03*
X012203Y007662D03*
D19*
X012010Y012257D03*
X012403Y012257D03*
X012797Y012257D03*
X013191Y012257D03*
X013584Y012257D03*
X013978Y012257D03*
X014372Y012257D03*
X014765Y012257D03*
X015159Y012257D03*
X011616Y012257D03*
X011222Y012257D03*
X010828Y012257D03*
X010435Y012257D03*
X010041Y012257D03*
X009647Y012257D03*
X006959Y012257D03*
X006565Y012257D03*
X006172Y012257D03*
X005778Y012257D03*
X005384Y012257D03*
X004991Y012257D03*
X004597Y012257D03*
X004203Y012257D03*
X003810Y012257D03*
X003416Y012257D03*
X003022Y012257D03*
X002628Y012257D03*
X002235Y012257D03*
X001841Y012257D03*
X001447Y012257D03*
X001447Y019423D03*
X001841Y019423D03*
X002235Y019423D03*
X002628Y019423D03*
X003022Y019423D03*
X003416Y019423D03*
X003810Y019423D03*
X004203Y019423D03*
X004597Y019423D03*
X004991Y019423D03*
X005384Y019423D03*
X005778Y019423D03*
X006172Y019423D03*
X006565Y019423D03*
X006959Y019423D03*
X009647Y019423D03*
X010041Y019423D03*
X010435Y019423D03*
X010828Y019423D03*
X011222Y019423D03*
X011616Y019423D03*
X012010Y019423D03*
X012403Y019423D03*
X012797Y019423D03*
X013191Y019423D03*
X013584Y019423D03*
X013978Y019423D03*
X014372Y019423D03*
X014765Y019423D03*
X015159Y019423D03*
D20*
X014037Y014639D03*
X010769Y014639D03*
X005837Y014639D03*
X002569Y014639D03*
D21*
X004203Y017041D03*
X012403Y017041D03*
D22*
X004478Y026426D03*
X004478Y027804D03*
M02*
