G75*
G70*
%OFA0B0*%
%FSLAX24Y24*%
%IPPOS*%
%LPD*%
%AMOC8*
5,1,8,0,0,1.08239X$1,22.5*
%
%ADD10C,0.0040*%
%ADD11C,0.0000*%
%ADD12C,0.0030*%
%ADD13C,0.0060*%
%ADD14C,0.0070*%
%ADD15C,0.0020*%
%ADD16R,0.0340X0.0160*%
%ADD17C,0.0050*%
%ADD18R,0.0160X0.0340*%
%ADD19R,0.0100X0.0340*%
%ADD20R,0.0128X0.0167*%
%ADD21R,0.0138X0.0138*%
D10*
X003868Y007873D02*
X004175Y007873D01*
X003903Y010633D02*
X003903Y010940D01*
X003750Y010786D02*
X004056Y010786D01*
X011200Y010786D02*
X011506Y010786D01*
X011353Y010633D02*
X011353Y010940D01*
X011318Y007873D02*
X011625Y007873D01*
X014773Y019935D02*
X014943Y020105D01*
X014773Y020275D01*
X015283Y020275D01*
X015198Y020441D02*
X015283Y020526D01*
X015283Y020696D01*
X015198Y020782D01*
X015283Y020948D02*
X015283Y021203D01*
X015198Y021288D01*
X015113Y021288D01*
X015028Y021203D01*
X015028Y020948D01*
X014858Y020782D02*
X014773Y020696D01*
X014773Y020526D01*
X014858Y020441D01*
X015198Y020441D01*
X015283Y019935D02*
X014773Y019935D01*
X014773Y020948D02*
X014773Y021203D01*
X014858Y021288D01*
X014943Y021288D01*
X015028Y021203D01*
X014773Y021454D02*
X014943Y021624D01*
X014773Y021794D01*
X015283Y021794D01*
X015283Y021961D02*
X015283Y022131D01*
X015283Y022046D02*
X014943Y022046D01*
X014943Y021961D01*
X014773Y022046D02*
X014688Y022046D01*
X014943Y022298D02*
X014943Y022553D01*
X015028Y022638D01*
X015283Y022638D01*
X015283Y022805D02*
X015283Y022975D01*
X015283Y022890D02*
X014943Y022890D01*
X014943Y022805D01*
X014773Y022890D02*
X014688Y022890D01*
X014943Y022298D02*
X015283Y022298D01*
X015283Y021454D02*
X014773Y021454D01*
X014773Y020948D02*
X015283Y020948D01*
X015113Y023649D02*
X014773Y023649D01*
X014773Y023989D02*
X015113Y023989D01*
X015283Y023819D01*
X015113Y023649D01*
X015028Y024155D02*
X015028Y024495D01*
X015198Y024661D02*
X015198Y024746D01*
X015283Y024746D01*
X015283Y024661D01*
X015198Y024661D01*
X015283Y024410D02*
X014773Y024410D01*
X015028Y024155D01*
X015028Y024915D02*
X015028Y025255D01*
X014773Y025170D02*
X015028Y024915D01*
X015283Y025170D02*
X014773Y025170D01*
D11*
X000103Y028440D02*
X000103Y002040D01*
X016803Y002040D01*
X016803Y028440D01*
X000103Y028440D01*
X001511Y026590D02*
X001513Y026640D01*
X001519Y026690D01*
X001529Y026740D01*
X001542Y026788D01*
X001560Y026836D01*
X001581Y026881D01*
X001606Y026925D01*
X001634Y026967D01*
X001665Y027007D01*
X001699Y027044D01*
X001736Y027078D01*
X001776Y027109D01*
X001818Y027137D01*
X001862Y027162D01*
X001907Y027183D01*
X001955Y027201D01*
X002003Y027214D01*
X002053Y027224D01*
X002103Y027230D01*
X002153Y027232D01*
X002203Y027230D01*
X002253Y027224D01*
X002303Y027214D01*
X002351Y027201D01*
X002399Y027183D01*
X002444Y027162D01*
X002488Y027137D01*
X002530Y027109D01*
X002570Y027078D01*
X002607Y027044D01*
X002641Y027007D01*
X002672Y026967D01*
X002700Y026925D01*
X002725Y026881D01*
X002746Y026836D01*
X002764Y026788D01*
X002777Y026740D01*
X002787Y026690D01*
X002793Y026640D01*
X002795Y026590D01*
X002793Y026540D01*
X002787Y026490D01*
X002777Y026440D01*
X002764Y026392D01*
X002746Y026344D01*
X002725Y026299D01*
X002700Y026255D01*
X002672Y026213D01*
X002641Y026173D01*
X002607Y026136D01*
X002570Y026102D01*
X002530Y026071D01*
X002488Y026043D01*
X002444Y026018D01*
X002399Y025997D01*
X002351Y025979D01*
X002303Y025966D01*
X002253Y025956D01*
X002203Y025950D01*
X002153Y025948D01*
X002103Y025950D01*
X002053Y025956D01*
X002003Y025966D01*
X001955Y025979D01*
X001907Y025997D01*
X001862Y026018D01*
X001818Y026043D01*
X001776Y026071D01*
X001736Y026102D01*
X001699Y026136D01*
X001665Y026173D01*
X001634Y026213D01*
X001606Y026255D01*
X001581Y026299D01*
X001560Y026344D01*
X001542Y026392D01*
X001529Y026440D01*
X001519Y026490D01*
X001513Y026540D01*
X001511Y026590D01*
X007811Y008767D02*
X007813Y008817D01*
X007819Y008867D01*
X007829Y008917D01*
X007842Y008965D01*
X007860Y009013D01*
X007881Y009058D01*
X007906Y009102D01*
X007934Y009144D01*
X007965Y009184D01*
X007999Y009221D01*
X008036Y009255D01*
X008076Y009286D01*
X008118Y009314D01*
X008162Y009339D01*
X008207Y009360D01*
X008255Y009378D01*
X008303Y009391D01*
X008353Y009401D01*
X008403Y009407D01*
X008453Y009409D01*
X008503Y009407D01*
X008553Y009401D01*
X008603Y009391D01*
X008651Y009378D01*
X008699Y009360D01*
X008744Y009339D01*
X008788Y009314D01*
X008830Y009286D01*
X008870Y009255D01*
X008907Y009221D01*
X008941Y009184D01*
X008972Y009144D01*
X009000Y009102D01*
X009025Y009058D01*
X009046Y009013D01*
X009064Y008965D01*
X009077Y008917D01*
X009087Y008867D01*
X009093Y008817D01*
X009095Y008767D01*
X009093Y008717D01*
X009087Y008667D01*
X009077Y008617D01*
X009064Y008569D01*
X009046Y008521D01*
X009025Y008476D01*
X009000Y008432D01*
X008972Y008390D01*
X008941Y008350D01*
X008907Y008313D01*
X008870Y008279D01*
X008830Y008248D01*
X008788Y008220D01*
X008744Y008195D01*
X008699Y008174D01*
X008651Y008156D01*
X008603Y008143D01*
X008553Y008133D01*
X008503Y008127D01*
X008453Y008125D01*
X008403Y008127D01*
X008353Y008133D01*
X008303Y008143D01*
X008255Y008156D01*
X008207Y008174D01*
X008162Y008195D01*
X008118Y008220D01*
X008076Y008248D01*
X008036Y008279D01*
X007999Y008313D01*
X007965Y008350D01*
X007934Y008390D01*
X007906Y008432D01*
X007881Y008476D01*
X007860Y008521D01*
X007842Y008569D01*
X007829Y008617D01*
X007819Y008667D01*
X007813Y008717D01*
X007811Y008767D01*
X014111Y026590D02*
X014113Y026640D01*
X014119Y026690D01*
X014129Y026740D01*
X014142Y026788D01*
X014160Y026836D01*
X014181Y026881D01*
X014206Y026925D01*
X014234Y026967D01*
X014265Y027007D01*
X014299Y027044D01*
X014336Y027078D01*
X014376Y027109D01*
X014418Y027137D01*
X014462Y027162D01*
X014507Y027183D01*
X014555Y027201D01*
X014603Y027214D01*
X014653Y027224D01*
X014703Y027230D01*
X014753Y027232D01*
X014803Y027230D01*
X014853Y027224D01*
X014903Y027214D01*
X014951Y027201D01*
X014999Y027183D01*
X015044Y027162D01*
X015088Y027137D01*
X015130Y027109D01*
X015170Y027078D01*
X015207Y027044D01*
X015241Y027007D01*
X015272Y026967D01*
X015300Y026925D01*
X015325Y026881D01*
X015346Y026836D01*
X015364Y026788D01*
X015377Y026740D01*
X015387Y026690D01*
X015393Y026640D01*
X015395Y026590D01*
X015393Y026540D01*
X015387Y026490D01*
X015377Y026440D01*
X015364Y026392D01*
X015346Y026344D01*
X015325Y026299D01*
X015300Y026255D01*
X015272Y026213D01*
X015241Y026173D01*
X015207Y026136D01*
X015170Y026102D01*
X015130Y026071D01*
X015088Y026043D01*
X015044Y026018D01*
X014999Y025997D01*
X014951Y025979D01*
X014903Y025966D01*
X014853Y025956D01*
X014803Y025950D01*
X014753Y025948D01*
X014703Y025950D01*
X014653Y025956D01*
X014603Y025966D01*
X014555Y025979D01*
X014507Y025997D01*
X014462Y026018D01*
X014418Y026043D01*
X014376Y026071D01*
X014336Y026102D01*
X014299Y026136D01*
X014265Y026173D01*
X014234Y026213D01*
X014206Y026255D01*
X014181Y026299D01*
X014160Y026344D01*
X014142Y026392D01*
X014129Y026440D01*
X014119Y026490D01*
X014113Y026540D01*
X014111Y026590D01*
D12*
X015590Y026555D02*
X015643Y026555D01*
X015750Y026555D02*
X015963Y026555D01*
X015963Y026502D02*
X015963Y026608D01*
X015963Y026393D02*
X015803Y026393D01*
X015750Y026339D01*
X015750Y026179D01*
X015963Y026179D01*
X015963Y026071D02*
X015963Y025965D01*
X015963Y026018D02*
X015750Y026018D01*
X015750Y025965D01*
X015643Y026018D02*
X015590Y026018D01*
X015803Y025856D02*
X015963Y025856D01*
X015963Y025749D02*
X015803Y025749D01*
X015750Y025802D01*
X015803Y025856D01*
X015803Y025749D02*
X015750Y025696D01*
X015750Y025642D01*
X015963Y025642D01*
X015910Y025534D02*
X015803Y025534D01*
X015750Y025480D01*
X015750Y025320D01*
X015643Y025320D02*
X015963Y025320D01*
X015963Y025480D01*
X015910Y025534D01*
X015963Y025211D02*
X015963Y025051D01*
X015910Y024998D01*
X015803Y024998D01*
X015750Y025051D01*
X015750Y025211D01*
X015803Y024889D02*
X015963Y024889D01*
X015963Y024782D02*
X015803Y024782D01*
X015750Y024836D01*
X015803Y024889D01*
X015803Y024782D02*
X015750Y024729D01*
X015750Y024676D01*
X015963Y024676D01*
X015963Y024353D02*
X015643Y024567D01*
X015803Y024245D02*
X015910Y024245D01*
X015963Y024191D01*
X015963Y024031D01*
X016070Y024031D02*
X015750Y024031D01*
X015750Y024191D01*
X015803Y024245D01*
X015643Y023922D02*
X015963Y023709D01*
X015963Y023600D02*
X015803Y023600D01*
X015750Y023547D01*
X015803Y023493D01*
X015963Y023493D01*
X015963Y023387D02*
X015750Y023387D01*
X015750Y023440D01*
X015803Y023493D01*
X015803Y023278D02*
X015750Y023224D01*
X015750Y023118D01*
X015803Y023064D01*
X015910Y023064D01*
X015963Y023118D01*
X015963Y023224D01*
X015910Y023278D01*
X015803Y023278D01*
X015750Y022956D02*
X015750Y022795D01*
X015803Y022742D01*
X015910Y022742D01*
X015963Y022795D01*
X015963Y022956D01*
X015963Y022634D02*
X015963Y022581D01*
X015910Y022581D01*
X015910Y022634D01*
X015963Y022634D01*
X015856Y022472D02*
X015856Y022259D01*
X015803Y022259D02*
X015750Y022312D01*
X015750Y022419D01*
X015803Y022472D01*
X015856Y022472D01*
X015963Y022419D02*
X015963Y022312D01*
X015910Y022259D01*
X015803Y022259D01*
X015963Y022151D02*
X015963Y022044D01*
X015963Y022097D02*
X015643Y022097D01*
X015643Y022044D01*
X015750Y021935D02*
X015750Y021775D01*
X015803Y021722D01*
X015910Y021722D01*
X015963Y021775D01*
X015963Y021935D01*
X016017Y021935D02*
X015750Y021935D01*
X016017Y021935D02*
X016070Y021882D01*
X016070Y021828D01*
X015910Y021613D02*
X015803Y021613D01*
X015750Y021560D01*
X015750Y021453D01*
X015803Y021399D01*
X015910Y021399D01*
X015963Y021453D01*
X015963Y021560D01*
X015910Y021613D01*
X015910Y021291D02*
X015803Y021291D01*
X015750Y021237D01*
X015750Y021131D01*
X015803Y021077D01*
X015910Y021077D01*
X015963Y021131D01*
X015963Y021237D01*
X015910Y021291D01*
X015963Y020968D02*
X015963Y020808D01*
X015910Y020755D01*
X015803Y020755D01*
X015750Y020808D01*
X015750Y020968D01*
X016017Y020968D01*
X016070Y020915D01*
X016070Y020862D01*
X015963Y020647D02*
X015963Y020594D01*
X015910Y020594D01*
X015910Y020647D01*
X015963Y020647D01*
X015856Y020485D02*
X015856Y020272D01*
X015803Y020272D02*
X015750Y020325D01*
X015750Y020432D01*
X015803Y020485D01*
X015856Y020485D01*
X015963Y020432D02*
X015963Y020325D01*
X015910Y020272D01*
X015803Y020272D01*
X015750Y020163D02*
X015750Y020003D01*
X015803Y019949D01*
X015910Y019949D01*
X015963Y020003D01*
X015963Y020163D01*
X015643Y020163D01*
X015803Y019841D02*
X015750Y019787D01*
X015750Y019680D01*
X015803Y019627D01*
X015910Y019627D01*
X015963Y019680D01*
X015963Y019787D01*
X015910Y019841D01*
X015803Y019841D01*
X015750Y019518D02*
X015750Y019358D01*
X015803Y019305D01*
X015910Y019305D01*
X015963Y019358D01*
X015963Y019518D01*
X014661Y018414D02*
X014418Y018414D01*
X014298Y018414D02*
X014177Y018535D01*
X014237Y018535D02*
X014055Y018535D01*
X013936Y018535D02*
X013936Y018475D01*
X013875Y018414D01*
X013693Y018414D01*
X013693Y018778D01*
X013875Y018778D01*
X013936Y018717D01*
X013936Y018657D01*
X013875Y018596D01*
X013693Y018596D01*
X013875Y018596D02*
X013936Y018535D01*
X014055Y018414D02*
X014055Y018778D01*
X014237Y018778D01*
X014298Y018717D01*
X014298Y018596D01*
X014237Y018535D01*
X014418Y018657D02*
X014539Y018778D01*
X014539Y018414D01*
X015750Y026502D02*
X015750Y026555D01*
X006461Y018717D02*
X006400Y018778D01*
X006279Y018778D01*
X006218Y018717D01*
X006098Y018717D02*
X006098Y018596D01*
X006037Y018535D01*
X005855Y018535D01*
X005736Y018535D02*
X005736Y018475D01*
X005675Y018414D01*
X005493Y018414D01*
X005493Y018778D01*
X005675Y018778D01*
X005736Y018717D01*
X005736Y018657D01*
X005675Y018596D01*
X005493Y018596D01*
X005675Y018596D02*
X005736Y018535D01*
X005855Y018414D02*
X005855Y018778D01*
X006037Y018778D01*
X006098Y018717D01*
X005977Y018535D02*
X006098Y018414D01*
X006218Y018414D02*
X006461Y018657D01*
X006461Y018717D01*
X006461Y018414D02*
X006218Y018414D01*
X003718Y024605D02*
X003766Y024653D01*
X003718Y024605D02*
X003621Y024605D01*
X003573Y024653D01*
X003573Y024847D01*
X003621Y024895D01*
X003718Y024895D01*
X003766Y024847D01*
X003472Y024895D02*
X003472Y024653D01*
X003423Y024605D01*
X003327Y024605D01*
X003278Y024653D01*
X003278Y024895D01*
X005813Y008644D02*
X006056Y008402D01*
X006116Y008462D01*
X006116Y008584D01*
X006056Y008644D01*
X005813Y008644D01*
X005752Y008584D01*
X005752Y008462D01*
X005813Y008402D01*
X006056Y008402D01*
X006116Y008282D02*
X006116Y008039D01*
X006116Y008161D02*
X005752Y008161D01*
X005874Y008039D01*
X005813Y007920D02*
X005752Y007859D01*
X005752Y007738D01*
X005813Y007677D01*
X006056Y007677D01*
X006116Y007738D01*
X006116Y007859D01*
X006056Y007920D01*
X013202Y007859D02*
X013202Y007738D01*
X013263Y007677D01*
X013506Y007677D01*
X013566Y007738D01*
X013566Y007859D01*
X013506Y007920D01*
X013566Y008039D02*
X013566Y008282D01*
X013566Y008402D02*
X013566Y008644D01*
X013566Y008523D02*
X013202Y008523D01*
X013324Y008402D01*
X013202Y008161D02*
X013566Y008161D01*
X013324Y008039D02*
X013202Y008161D01*
X013263Y007920D02*
X013202Y007859D01*
D13*
X011013Y005784D02*
X011013Y005463D01*
X010373Y005463D01*
X010373Y005784D01*
X010479Y005890D01*
X010906Y005890D01*
X011013Y005784D01*
X011013Y005246D02*
X010373Y005246D01*
X010373Y004819D02*
X011013Y005246D01*
X011013Y004819D02*
X010373Y004819D01*
X010479Y004601D02*
X010373Y004495D01*
X010373Y004281D01*
X010479Y004174D01*
X010906Y004174D01*
X011013Y004281D01*
X011013Y004495D01*
X010906Y004601D01*
X010693Y004601D01*
X010693Y004388D01*
X010693Y003957D02*
X010479Y003957D01*
X010373Y003850D01*
X010373Y003530D01*
X011013Y003530D01*
X010800Y003530D02*
X010800Y003850D01*
X010693Y003957D01*
X006613Y004028D02*
X006400Y004242D01*
X005973Y004242D01*
X006079Y004459D02*
X006506Y004459D01*
X006613Y004566D01*
X006613Y004780D01*
X006506Y004886D01*
X006506Y005104D02*
X006613Y005211D01*
X006613Y005424D01*
X006506Y005531D01*
X006506Y005104D02*
X006079Y005104D01*
X005973Y005211D01*
X005973Y005424D01*
X006079Y005531D01*
X006079Y004886D02*
X005973Y004780D01*
X005973Y004566D01*
X006079Y004459D01*
X005973Y003815D02*
X006400Y003815D01*
X006613Y004028D01*
X008113Y019620D02*
X008113Y019960D01*
X008393Y019960D02*
X008393Y019620D01*
X008863Y019620D02*
X008863Y019960D01*
X009143Y019960D02*
X009143Y019620D01*
X006993Y022720D02*
X006993Y023060D01*
X006713Y023060D02*
X006713Y022720D01*
X005733Y023970D02*
X005733Y021210D01*
X002973Y021210D01*
X002973Y023830D01*
X003113Y023970D01*
X005733Y023970D01*
X006233Y024800D02*
X006573Y024800D01*
X006573Y025080D02*
X006233Y025080D01*
X006233Y025500D02*
X006573Y025500D01*
X006573Y025780D02*
X006233Y025780D01*
X003132Y023670D02*
X003134Y023693D01*
X003140Y023716D01*
X003149Y023737D01*
X003162Y023757D01*
X003178Y023774D01*
X003196Y023788D01*
X003216Y023799D01*
X003238Y023807D01*
X003261Y023811D01*
X003285Y023811D01*
X003308Y023807D01*
X003330Y023799D01*
X003350Y023788D01*
X003368Y023774D01*
X003384Y023757D01*
X003397Y023737D01*
X003406Y023716D01*
X003412Y023693D01*
X003414Y023670D01*
X003412Y023647D01*
X003406Y023624D01*
X003397Y023603D01*
X003384Y023583D01*
X003368Y023566D01*
X003350Y023552D01*
X003330Y023541D01*
X003308Y023533D01*
X003285Y023529D01*
X003261Y023529D01*
X003238Y023533D01*
X003216Y023541D01*
X003196Y023552D01*
X003178Y023566D01*
X003162Y023583D01*
X003149Y023603D01*
X003140Y023624D01*
X003134Y023647D01*
X003132Y023670D01*
X010663Y024920D02*
X010663Y025260D01*
X010943Y025260D02*
X010943Y024920D01*
X012863Y025170D02*
X012863Y025510D01*
X013143Y025510D02*
X013143Y025170D01*
X014108Y024805D02*
X014448Y024805D01*
X014448Y024525D02*
X014108Y024525D01*
D14*
X015140Y012381D02*
X015417Y012104D01*
X015417Y011550D01*
X015417Y011965D02*
X014863Y011965D01*
X014863Y012104D02*
X015140Y012381D01*
X014863Y012104D02*
X014863Y011550D01*
X001692Y011713D02*
X001554Y011575D01*
X001138Y011575D01*
X001138Y012406D01*
X001554Y012406D01*
X001692Y012267D01*
X001692Y012129D01*
X001554Y011990D01*
X001138Y011990D01*
X001554Y011990D02*
X001692Y011852D01*
X001692Y011713D01*
D15*
X002583Y020666D02*
X002583Y020806D01*
X002630Y020853D01*
X002723Y020853D01*
X002770Y020806D01*
X002770Y020666D01*
X002863Y020666D02*
X002583Y020666D01*
X002770Y020760D02*
X002863Y020853D01*
X002863Y020942D02*
X002863Y021129D01*
X002817Y021219D02*
X002863Y021265D01*
X002863Y021359D01*
X002817Y021405D01*
X002770Y021405D01*
X002723Y021359D01*
X002723Y021265D01*
X002676Y021219D01*
X002630Y021219D01*
X002583Y021265D01*
X002583Y021359D01*
X002630Y021405D01*
X002583Y021129D02*
X002583Y020942D01*
X002863Y020942D01*
X002723Y020942D02*
X002723Y021036D01*
X001693Y023125D02*
X001693Y023245D01*
X001693Y023309D02*
X001513Y023429D01*
X001513Y023493D02*
X001513Y023613D01*
X001513Y023553D02*
X001693Y023553D01*
X001693Y023429D02*
X001513Y023309D01*
X001513Y023245D02*
X001513Y023125D01*
X001693Y023125D01*
X001603Y023125D02*
X001603Y023185D01*
X001633Y023677D02*
X001633Y023767D01*
X001603Y023797D01*
X001543Y023797D01*
X001513Y023767D01*
X001513Y023677D01*
X001693Y023677D01*
X001633Y023737D02*
X001693Y023797D01*
X001693Y023861D02*
X001573Y023861D01*
X001513Y023921D01*
X001573Y023981D01*
X001693Y023981D01*
X001603Y023981D02*
X001603Y023861D01*
X001150Y024900D02*
X000963Y024900D01*
X001150Y025087D01*
X001150Y025133D01*
X001103Y025180D01*
X001010Y025180D01*
X000963Y025133D01*
X001057Y022830D02*
X000963Y022737D01*
X001057Y022830D02*
X001057Y022550D01*
X001150Y022550D02*
X000963Y022550D01*
X003776Y026525D02*
X003815Y026525D01*
X003853Y026563D01*
X003853Y026640D01*
X003892Y026678D01*
X003930Y026678D01*
X003968Y026640D01*
X003968Y026563D01*
X003930Y026525D01*
X003776Y026525D02*
X003738Y026563D01*
X003738Y026640D01*
X003776Y026678D01*
X003738Y026755D02*
X003738Y026908D01*
X003738Y026832D02*
X003968Y026832D01*
X003968Y026985D02*
X003815Y026985D01*
X003738Y027062D01*
X003815Y027139D01*
X003968Y027139D01*
X003853Y027139D02*
X003853Y026985D01*
X003738Y027215D02*
X003738Y027369D01*
X003738Y027445D02*
X003930Y027445D01*
X003968Y027484D01*
X003968Y027561D01*
X003930Y027599D01*
X003738Y027599D01*
X003776Y027676D02*
X003815Y027676D01*
X003853Y027714D01*
X003853Y027791D01*
X003892Y027829D01*
X003930Y027829D01*
X003968Y027791D01*
X003968Y027714D01*
X003930Y027676D01*
X003776Y027676D02*
X003738Y027714D01*
X003738Y027791D01*
X003776Y027829D01*
X003738Y027292D02*
X003968Y027292D01*
X006023Y026099D02*
X006023Y025868D01*
X006023Y025945D02*
X006139Y025945D01*
X006177Y025983D01*
X006177Y026060D01*
X006139Y026099D01*
X006023Y026099D01*
X006100Y025945D02*
X006177Y025868D01*
X006254Y025868D02*
X006407Y025868D01*
X006330Y025868D02*
X006330Y026099D01*
X006254Y026022D01*
X006484Y026022D02*
X006522Y025983D01*
X006637Y025983D01*
X006637Y025907D02*
X006637Y026060D01*
X006599Y026099D01*
X006522Y026099D01*
X006484Y026060D01*
X006484Y026022D01*
X006484Y025907D02*
X006522Y025868D01*
X006599Y025868D01*
X006637Y025907D01*
X006611Y024711D02*
X006573Y024673D01*
X006611Y024711D02*
X006688Y024711D01*
X006726Y024673D01*
X006726Y024635D01*
X006573Y024481D01*
X006726Y024481D01*
X006496Y024481D02*
X006343Y024481D01*
X006496Y024635D01*
X006496Y024673D01*
X006458Y024711D01*
X006381Y024711D01*
X006343Y024673D01*
X006266Y024673D02*
X006266Y024596D01*
X006228Y024558D01*
X006112Y024558D01*
X006112Y024481D02*
X006112Y024711D01*
X006228Y024711D01*
X006266Y024673D01*
X006189Y024558D02*
X006266Y024481D01*
X007120Y023213D02*
X007082Y023174D01*
X007082Y023098D01*
X007120Y023059D01*
X007120Y022983D02*
X007082Y022944D01*
X007082Y022868D01*
X007120Y022829D01*
X007273Y022829D01*
X007312Y022868D01*
X007312Y022944D01*
X007273Y022983D01*
X007312Y023059D02*
X007158Y023213D01*
X007120Y023213D01*
X007312Y023213D02*
X007312Y023059D01*
X008016Y023770D02*
X008062Y023723D01*
X008156Y023723D01*
X008203Y023770D01*
X008292Y023770D02*
X008339Y023723D01*
X008432Y023723D01*
X008479Y023770D01*
X008479Y023957D01*
X008432Y024003D01*
X008339Y024003D01*
X008292Y023957D01*
X008292Y023770D01*
X008203Y023957D02*
X008156Y024003D01*
X008062Y024003D01*
X008016Y023957D01*
X008016Y023770D01*
X008568Y023723D02*
X008568Y024003D01*
X008662Y023910D01*
X008755Y024003D01*
X008755Y023723D01*
X008844Y023723D02*
X008844Y024003D01*
X008938Y023910D01*
X009031Y024003D01*
X009031Y023723D01*
X010345Y024748D02*
X010383Y024710D01*
X010536Y024710D01*
X010575Y024748D01*
X010575Y024825D01*
X010536Y024864D01*
X010575Y024940D02*
X010575Y025094D01*
X010575Y025017D02*
X010345Y025017D01*
X010421Y024940D01*
X010383Y024864D02*
X010345Y024825D01*
X010345Y024748D01*
X011552Y026000D02*
X011458Y026093D01*
X011458Y026280D01*
X011645Y026280D02*
X011645Y026093D01*
X011552Y026000D01*
X011735Y026000D02*
X011735Y026280D01*
X011875Y026280D01*
X011921Y026233D01*
X011921Y026140D01*
X011875Y026093D01*
X011735Y026093D01*
X011828Y026093D02*
X011921Y026000D01*
X012011Y026000D02*
X012011Y026280D01*
X012198Y026280D01*
X012287Y026233D02*
X012287Y026047D01*
X012334Y026000D01*
X012427Y026000D01*
X012474Y026047D01*
X012474Y026140D01*
X012380Y026140D01*
X012287Y026233D02*
X012334Y026280D01*
X012427Y026280D01*
X012474Y026233D01*
X012198Y026000D02*
X012011Y026000D01*
X012011Y026140D02*
X012104Y026140D01*
X011943Y026377D02*
X011943Y026467D01*
X011913Y026497D01*
X011883Y026497D01*
X011853Y026467D01*
X011853Y026377D01*
X011853Y026467D02*
X011823Y026497D01*
X011793Y026497D01*
X011763Y026467D01*
X011763Y026377D01*
X011943Y026377D01*
X011913Y026561D02*
X011943Y026591D01*
X011943Y026651D01*
X011913Y026681D01*
X011763Y026681D01*
X011793Y026745D02*
X011823Y026745D01*
X011853Y026775D01*
X011853Y026835D01*
X011883Y026865D01*
X011913Y026865D01*
X011943Y026835D01*
X011943Y026775D01*
X011913Y026745D01*
X011793Y026745D02*
X011763Y026775D01*
X011763Y026835D01*
X011793Y026865D01*
X011973Y026929D02*
X011973Y027049D01*
X011943Y027173D02*
X011763Y027173D01*
X011763Y027113D02*
X011763Y027233D01*
X011763Y027297D02*
X011943Y027297D01*
X011943Y027417D01*
X011943Y027481D02*
X011763Y027481D01*
X011763Y027571D01*
X011793Y027601D01*
X011853Y027601D01*
X011883Y027571D01*
X011883Y027481D01*
X011883Y027541D02*
X011943Y027601D01*
X011943Y027666D02*
X011763Y027666D01*
X011823Y027726D01*
X011763Y027786D01*
X011943Y027786D01*
X011763Y027417D02*
X011763Y027297D01*
X011853Y027297D02*
X011853Y027357D01*
X011913Y026561D02*
X011763Y026561D01*
X013232Y025624D02*
X013270Y025663D01*
X013308Y025663D01*
X013347Y025624D01*
X013385Y025663D01*
X013423Y025663D01*
X013462Y025624D01*
X013462Y025548D01*
X013423Y025509D01*
X013423Y025433D02*
X013462Y025394D01*
X013462Y025318D01*
X013423Y025279D01*
X013270Y025279D01*
X013232Y025318D01*
X013232Y025394D01*
X013270Y025433D01*
X013270Y025509D02*
X013232Y025548D01*
X013232Y025624D01*
X013347Y025624D02*
X013347Y025586D01*
X013898Y025124D02*
X014014Y025124D01*
X014052Y025085D01*
X014052Y025008D01*
X014014Y024970D01*
X013898Y024970D01*
X013898Y024893D02*
X013898Y025124D01*
X013975Y024970D02*
X014052Y024893D01*
X014129Y024893D02*
X014282Y024893D01*
X014205Y024893D02*
X014205Y025124D01*
X014129Y025047D01*
X008775Y019985D02*
X008775Y019909D01*
X008736Y019870D01*
X008660Y019870D01*
X008660Y019985D01*
X008698Y020024D01*
X008736Y020024D01*
X008775Y019985D01*
X008660Y019870D02*
X008583Y019947D01*
X008545Y020024D01*
X008545Y019717D02*
X008775Y019717D01*
X008775Y019640D02*
X008775Y019794D01*
X008621Y019640D02*
X008545Y019717D01*
X008583Y019564D02*
X008660Y019564D01*
X008698Y019525D01*
X008698Y019410D01*
X008775Y019410D02*
X008545Y019410D01*
X008545Y019525D01*
X008583Y019564D01*
X008698Y019487D02*
X008775Y019564D01*
X008025Y019564D02*
X007948Y019487D01*
X007948Y019525D02*
X007948Y019410D01*
X008025Y019410D02*
X007795Y019410D01*
X007795Y019525D01*
X007833Y019564D01*
X007910Y019564D01*
X007948Y019525D01*
X007871Y019640D02*
X007795Y019717D01*
X008025Y019717D01*
X008025Y019640D02*
X008025Y019794D01*
X007986Y019870D02*
X007833Y020024D01*
X007986Y020024D01*
X008025Y019985D01*
X008025Y019909D01*
X007986Y019870D01*
X007833Y019870D01*
X007795Y019909D01*
X007795Y019985D01*
X007833Y020024D01*
D16*
X008253Y020040D03*
X008253Y019540D03*
X009003Y019540D03*
X009003Y020040D03*
X006853Y022640D03*
X006853Y023140D03*
X010803Y024840D03*
X010803Y025340D03*
X013003Y025590D03*
X013003Y025090D03*
D17*
X012489Y024724D02*
X011269Y024724D01*
X011269Y025590D01*
X012489Y025590D01*
X012489Y024724D01*
X012205Y025393D02*
X012207Y025411D01*
X012213Y025429D01*
X012222Y025445D01*
X012234Y025458D01*
X012249Y025469D01*
X012266Y025477D01*
X012284Y025481D01*
X012302Y025481D01*
X012320Y025477D01*
X012337Y025469D01*
X012352Y025458D01*
X012364Y025445D01*
X012373Y025429D01*
X012379Y025411D01*
X012381Y025393D01*
X012379Y025375D01*
X012373Y025357D01*
X012364Y025341D01*
X012352Y025328D01*
X012337Y025317D01*
X012320Y025309D01*
X012302Y025305D01*
X012284Y025305D01*
X012266Y025309D01*
X012249Y025317D01*
X012234Y025328D01*
X012222Y025341D01*
X012213Y025357D01*
X012207Y025375D01*
X012205Y025393D01*
X011103Y024190D02*
X014103Y024190D01*
X014103Y020990D01*
X011103Y020990D01*
X011103Y024190D01*
X013803Y021190D02*
X013805Y021210D01*
X013811Y021228D01*
X013820Y021246D01*
X013832Y021261D01*
X013847Y021273D01*
X013865Y021282D01*
X013883Y021288D01*
X013903Y021290D01*
X013923Y021288D01*
X013941Y021282D01*
X013959Y021273D01*
X013974Y021261D01*
X013986Y021246D01*
X013995Y021228D01*
X014001Y021210D01*
X014003Y021190D01*
X014001Y021170D01*
X013995Y021152D01*
X013986Y021134D01*
X013974Y021119D01*
X013959Y021107D01*
X013941Y021098D01*
X013923Y021092D01*
X013903Y021090D01*
X013883Y021092D01*
X013865Y021098D01*
X013847Y021107D01*
X013832Y021119D01*
X013820Y021134D01*
X013811Y021152D01*
X013805Y021170D01*
X013803Y021190D01*
X015271Y018556D02*
X015273Y018578D01*
X015278Y018598D01*
X015288Y018618D01*
X015300Y018636D01*
X015315Y018651D01*
X015333Y018663D01*
X015353Y018673D01*
X015373Y018678D01*
X015395Y018680D01*
X015417Y018678D01*
X015437Y018673D01*
X015457Y018663D01*
X015475Y018651D01*
X015490Y018636D01*
X015502Y018618D01*
X015512Y018598D01*
X015517Y018578D01*
X015519Y018556D01*
X015517Y018534D01*
X015512Y018514D01*
X015502Y018494D01*
X015490Y018476D01*
X015475Y018461D01*
X015457Y018449D01*
X015437Y018439D01*
X015417Y018434D01*
X015395Y018432D01*
X015373Y018434D01*
X015353Y018439D01*
X015333Y018449D01*
X015315Y018461D01*
X015300Y018476D01*
X015288Y018494D01*
X015278Y018514D01*
X015273Y018534D01*
X015271Y018556D01*
X015632Y019029D02*
X015828Y018832D01*
X015828Y012887D01*
X015632Y012690D01*
X009214Y012690D01*
X009017Y012887D01*
X009017Y018832D01*
X009214Y019029D01*
X015632Y019029D01*
X013227Y011087D02*
X011101Y011087D01*
X010550Y010536D01*
X010550Y007544D01*
X013817Y007544D01*
X013817Y010497D01*
X013227Y011087D01*
X007628Y012887D02*
X007628Y018832D01*
X007432Y019029D01*
X001014Y019029D01*
X000817Y018832D01*
X000817Y012887D01*
X001014Y012690D01*
X007432Y012690D01*
X007628Y012887D01*
X005777Y011087D02*
X006367Y010497D01*
X006367Y007544D01*
X003100Y007544D01*
X003100Y010536D01*
X003651Y011087D01*
X005777Y011087D01*
X007071Y018556D02*
X007073Y018578D01*
X007078Y018598D01*
X007088Y018618D01*
X007100Y018636D01*
X007115Y018651D01*
X007133Y018663D01*
X007153Y018673D01*
X007173Y018678D01*
X007195Y018680D01*
X007217Y018678D01*
X007237Y018673D01*
X007257Y018663D01*
X007275Y018651D01*
X007290Y018636D01*
X007302Y018618D01*
X007312Y018598D01*
X007317Y018578D01*
X007319Y018556D01*
X007317Y018534D01*
X007312Y018514D01*
X007302Y018494D01*
X007290Y018476D01*
X007275Y018461D01*
X007257Y018449D01*
X007237Y018439D01*
X007217Y018434D01*
X007195Y018432D01*
X007173Y018434D01*
X007153Y018439D01*
X007133Y018449D01*
X007115Y018461D01*
X007100Y018476D01*
X007088Y018494D01*
X007078Y018514D01*
X007073Y018534D01*
X007071Y018556D01*
X002302Y020394D02*
X000845Y020394D01*
X000845Y021615D01*
X002302Y021615D01*
X002302Y020394D01*
D18*
X006153Y024940D03*
X006153Y025640D03*
X006653Y025640D03*
X006653Y024940D03*
X014028Y024665D03*
X014528Y024665D03*
D19*
X012453Y027090D03*
X001003Y023865D03*
D20*
X004208Y027336D03*
X004749Y027336D03*
D21*
X004478Y027184D03*
M02*
