G75*
G70*
%OFA0B0*%
%FSLAX24Y24*%
%IPPOS*%
%LPD*%
%AMOC8*
5,1,8,0,0,1.08239X$1,22.5*
%
%ADD10R,0.0394X0.0276*%
%ADD11R,0.0394X0.0098*%
%ADD12R,0.0276X0.0394*%
%ADD13R,0.0591X0.1181*%
%ADD14R,0.2362X0.2559*%
D10*
X001303Y016414D03*
X001303Y016965D03*
X003253Y018914D03*
X003253Y019465D03*
X004403Y019465D03*
X004403Y018914D03*
X005203Y018914D03*
X005203Y019465D03*
X006153Y019465D03*
X006153Y018914D03*
X006853Y018914D03*
X006853Y019465D03*
X007903Y018965D03*
X007903Y018414D03*
X008653Y018414D03*
X008653Y018965D03*
X009303Y019064D03*
X009303Y019615D03*
X010053Y019615D03*
X010053Y019064D03*
X011503Y018914D03*
X011503Y019465D03*
X012603Y019465D03*
X012603Y018914D03*
X013603Y018914D03*
X013603Y019465D03*
X014253Y019465D03*
X014253Y018914D03*
X014953Y018914D03*
X014953Y019465D03*
X015503Y017115D03*
X015503Y016564D03*
X010653Y026414D03*
X010653Y026965D03*
X006203Y027064D03*
X006203Y027615D03*
X005503Y027615D03*
X005503Y027064D03*
X005553Y026165D03*
X005553Y025614D03*
X006203Y025614D03*
X006203Y026165D03*
X004753Y027064D03*
X004753Y027615D03*
X003803Y027605D03*
X003803Y027054D03*
X002678Y024840D03*
X002678Y024289D03*
D11*
X006949Y026543D03*
X006949Y026740D03*
X006949Y026937D03*
X006949Y027134D03*
X006949Y027331D03*
X008613Y027331D03*
X008613Y027134D03*
X008613Y026937D03*
X008613Y026740D03*
X008613Y026543D03*
D12*
X009378Y020240D03*
X009929Y020240D03*
X008579Y019690D03*
X008028Y019690D03*
D13*
X007348Y011140D03*
X009159Y011140D03*
D14*
X008253Y013675D03*
M02*
