G75*
G70*
%OFA0B0*%
%FSLAX24Y24*%
%IPPOS*%
%LPD*%
%AMOC8*
5,1,8,0,0,1.08239X$1,22.5*
%
%ADD10C,0.0082*%
%ADD11C,0.1175*%
%ADD12C,0.0674*%
%ADD13C,0.1365*%
%ADD14C,0.0730*%
%ADD15C,0.0080*%
%ADD16C,0.0740*%
%ADD17C,0.0080*%
%ADD18C,0.0098*%
%ADD19C,0.0440*%
%ADD20C,0.0437*%
D10*
X001499Y016277D02*
X001499Y016551D01*
X001499Y016277D02*
X001107Y016277D01*
X001107Y016551D01*
X001499Y016551D01*
X001499Y016358D02*
X001107Y016358D01*
X001107Y016439D02*
X001499Y016439D01*
X001499Y016520D02*
X001107Y016520D01*
X001499Y016828D02*
X001499Y017102D01*
X001499Y016828D02*
X001107Y016828D01*
X001107Y017102D01*
X001499Y017102D01*
X001499Y016909D02*
X001107Y016909D01*
X001107Y016990D02*
X001499Y016990D01*
X001499Y017071D02*
X001107Y017071D01*
X003449Y018777D02*
X003449Y019051D01*
X003449Y018777D02*
X003057Y018777D01*
X003057Y019051D01*
X003449Y019051D01*
X003449Y018858D02*
X003057Y018858D01*
X003057Y018939D02*
X003449Y018939D01*
X003449Y019020D02*
X003057Y019020D01*
X003449Y019328D02*
X003449Y019602D01*
X003449Y019328D02*
X003057Y019328D01*
X003057Y019602D01*
X003449Y019602D01*
X003449Y019409D02*
X003057Y019409D01*
X003057Y019490D02*
X003449Y019490D01*
X003449Y019571D02*
X003057Y019571D01*
X004599Y019602D02*
X004599Y019328D01*
X004207Y019328D01*
X004207Y019602D01*
X004599Y019602D01*
X004599Y019409D02*
X004207Y019409D01*
X004207Y019490D02*
X004599Y019490D01*
X004599Y019571D02*
X004207Y019571D01*
X004599Y019051D02*
X004599Y018777D01*
X004207Y018777D01*
X004207Y019051D01*
X004599Y019051D01*
X004599Y018858D02*
X004207Y018858D01*
X004207Y018939D02*
X004599Y018939D01*
X004599Y019020D02*
X004207Y019020D01*
X005399Y019051D02*
X005399Y018777D01*
X005007Y018777D01*
X005007Y019051D01*
X005399Y019051D01*
X005399Y018858D02*
X005007Y018858D01*
X005007Y018939D02*
X005399Y018939D01*
X005399Y019020D02*
X005007Y019020D01*
X005399Y019328D02*
X005399Y019602D01*
X005399Y019328D02*
X005007Y019328D01*
X005007Y019602D01*
X005399Y019602D01*
X005399Y019409D02*
X005007Y019409D01*
X005007Y019490D02*
X005399Y019490D01*
X005399Y019571D02*
X005007Y019571D01*
X005957Y019602D02*
X005957Y019328D01*
X005957Y019602D02*
X006349Y019602D01*
X006349Y019328D01*
X005957Y019328D01*
X005957Y019409D02*
X006349Y019409D01*
X006349Y019490D02*
X005957Y019490D01*
X005957Y019571D02*
X006349Y019571D01*
X005957Y019051D02*
X005957Y018777D01*
X005957Y019051D02*
X006349Y019051D01*
X006349Y018777D01*
X005957Y018777D01*
X005957Y018858D02*
X006349Y018858D01*
X006349Y018939D02*
X005957Y018939D01*
X005957Y019020D02*
X006349Y019020D01*
X007049Y019051D02*
X007049Y018777D01*
X006657Y018777D01*
X006657Y019051D01*
X007049Y019051D01*
X007049Y018858D02*
X006657Y018858D01*
X006657Y018939D02*
X007049Y018939D01*
X007049Y019020D02*
X006657Y019020D01*
X007049Y019328D02*
X007049Y019602D01*
X007049Y019328D02*
X006657Y019328D01*
X006657Y019602D01*
X007049Y019602D01*
X007049Y019409D02*
X006657Y019409D01*
X006657Y019490D02*
X007049Y019490D01*
X007049Y019571D02*
X006657Y019571D01*
X007707Y019102D02*
X007707Y018828D01*
X007707Y019102D02*
X008099Y019102D01*
X008099Y018828D01*
X007707Y018828D01*
X007707Y018909D02*
X008099Y018909D01*
X008099Y018990D02*
X007707Y018990D01*
X007707Y019071D02*
X008099Y019071D01*
X007707Y018551D02*
X007707Y018277D01*
X007707Y018551D02*
X008099Y018551D01*
X008099Y018277D01*
X007707Y018277D01*
X007707Y018358D02*
X008099Y018358D01*
X008099Y018439D02*
X007707Y018439D01*
X007707Y018520D02*
X008099Y018520D01*
X008457Y018551D02*
X008457Y018277D01*
X008457Y018551D02*
X008849Y018551D01*
X008849Y018277D01*
X008457Y018277D01*
X008457Y018358D02*
X008849Y018358D01*
X008849Y018439D02*
X008457Y018439D01*
X008457Y018520D02*
X008849Y018520D01*
X008457Y018828D02*
X008457Y019102D01*
X008849Y019102D01*
X008849Y018828D01*
X008457Y018828D01*
X008457Y018909D02*
X008849Y018909D01*
X008849Y018990D02*
X008457Y018990D01*
X008457Y019071D02*
X008849Y019071D01*
X009107Y019201D02*
X009107Y018927D01*
X009107Y019201D02*
X009499Y019201D01*
X009499Y018927D01*
X009107Y018927D01*
X009107Y019008D02*
X009499Y019008D01*
X009499Y019089D02*
X009107Y019089D01*
X009107Y019170D02*
X009499Y019170D01*
X009107Y019478D02*
X009107Y019752D01*
X009499Y019752D01*
X009499Y019478D01*
X009107Y019478D01*
X009107Y019559D02*
X009499Y019559D01*
X009499Y019640D02*
X009107Y019640D01*
X009107Y019721D02*
X009499Y019721D01*
X009515Y020436D02*
X009241Y020436D01*
X009515Y020436D02*
X009515Y020044D01*
X009241Y020044D01*
X009241Y020436D01*
X009241Y020125D02*
X009515Y020125D01*
X009515Y020206D02*
X009241Y020206D01*
X009241Y020287D02*
X009515Y020287D01*
X009515Y020368D02*
X009241Y020368D01*
X009792Y020436D02*
X010066Y020436D01*
X010066Y020044D01*
X009792Y020044D01*
X009792Y020436D01*
X009792Y020125D02*
X010066Y020125D01*
X010066Y020206D02*
X009792Y020206D01*
X009792Y020287D02*
X010066Y020287D01*
X010066Y020368D02*
X009792Y020368D01*
X009857Y019752D02*
X009857Y019478D01*
X009857Y019752D02*
X010249Y019752D01*
X010249Y019478D01*
X009857Y019478D01*
X009857Y019559D02*
X010249Y019559D01*
X010249Y019640D02*
X009857Y019640D01*
X009857Y019721D02*
X010249Y019721D01*
X009857Y019201D02*
X009857Y018927D01*
X009857Y019201D02*
X010249Y019201D01*
X010249Y018927D01*
X009857Y018927D01*
X009857Y019008D02*
X010249Y019008D01*
X010249Y019089D02*
X009857Y019089D01*
X009857Y019170D02*
X010249Y019170D01*
X011699Y019051D02*
X011699Y018777D01*
X011307Y018777D01*
X011307Y019051D01*
X011699Y019051D01*
X011699Y018858D02*
X011307Y018858D01*
X011307Y018939D02*
X011699Y018939D01*
X011699Y019020D02*
X011307Y019020D01*
X011699Y019328D02*
X011699Y019602D01*
X011699Y019328D02*
X011307Y019328D01*
X011307Y019602D01*
X011699Y019602D01*
X011699Y019409D02*
X011307Y019409D01*
X011307Y019490D02*
X011699Y019490D01*
X011699Y019571D02*
X011307Y019571D01*
X012799Y019602D02*
X012799Y019328D01*
X012407Y019328D01*
X012407Y019602D01*
X012799Y019602D01*
X012799Y019409D02*
X012407Y019409D01*
X012407Y019490D02*
X012799Y019490D01*
X012799Y019571D02*
X012407Y019571D01*
X012799Y019051D02*
X012799Y018777D01*
X012407Y018777D01*
X012407Y019051D01*
X012799Y019051D01*
X012799Y018858D02*
X012407Y018858D01*
X012407Y018939D02*
X012799Y018939D01*
X012799Y019020D02*
X012407Y019020D01*
X013407Y019051D02*
X013407Y018777D01*
X013407Y019051D02*
X013799Y019051D01*
X013799Y018777D01*
X013407Y018777D01*
X013407Y018858D02*
X013799Y018858D01*
X013799Y018939D02*
X013407Y018939D01*
X013407Y019020D02*
X013799Y019020D01*
X013407Y019328D02*
X013407Y019602D01*
X013799Y019602D01*
X013799Y019328D01*
X013407Y019328D01*
X013407Y019409D02*
X013799Y019409D01*
X013799Y019490D02*
X013407Y019490D01*
X013407Y019571D02*
X013799Y019571D01*
X014449Y019602D02*
X014449Y019328D01*
X014057Y019328D01*
X014057Y019602D01*
X014449Y019602D01*
X014449Y019409D02*
X014057Y019409D01*
X014057Y019490D02*
X014449Y019490D01*
X014449Y019571D02*
X014057Y019571D01*
X014449Y019051D02*
X014449Y018777D01*
X014057Y018777D01*
X014057Y019051D01*
X014449Y019051D01*
X014449Y018858D02*
X014057Y018858D01*
X014057Y018939D02*
X014449Y018939D01*
X014449Y019020D02*
X014057Y019020D01*
X015149Y019051D02*
X015149Y018777D01*
X014757Y018777D01*
X014757Y019051D01*
X015149Y019051D01*
X015149Y018858D02*
X014757Y018858D01*
X014757Y018939D02*
X015149Y018939D01*
X015149Y019020D02*
X014757Y019020D01*
X015149Y019328D02*
X015149Y019602D01*
X015149Y019328D02*
X014757Y019328D01*
X014757Y019602D01*
X015149Y019602D01*
X015149Y019409D02*
X014757Y019409D01*
X014757Y019490D02*
X015149Y019490D01*
X015149Y019571D02*
X014757Y019571D01*
X015699Y017252D02*
X015699Y016978D01*
X015307Y016978D01*
X015307Y017252D01*
X015699Y017252D01*
X015699Y017059D02*
X015307Y017059D01*
X015307Y017140D02*
X015699Y017140D01*
X015699Y017221D02*
X015307Y017221D01*
X015699Y016701D02*
X015699Y016427D01*
X015307Y016427D01*
X015307Y016701D01*
X015699Y016701D01*
X015699Y016508D02*
X015307Y016508D01*
X015307Y016589D02*
X015699Y016589D01*
X015699Y016670D02*
X015307Y016670D01*
X010849Y026277D02*
X010849Y026551D01*
X010849Y026277D02*
X010457Y026277D01*
X010457Y026551D01*
X010849Y026551D01*
X010849Y026358D02*
X010457Y026358D01*
X010457Y026439D02*
X010849Y026439D01*
X010849Y026520D02*
X010457Y026520D01*
X010849Y026828D02*
X010849Y027102D01*
X010849Y026828D02*
X010457Y026828D01*
X010457Y027102D01*
X010849Y027102D01*
X010849Y026909D02*
X010457Y026909D01*
X010457Y026990D02*
X010849Y026990D01*
X010849Y027071D02*
X010457Y027071D01*
X006399Y027201D02*
X006399Y026927D01*
X006007Y026927D01*
X006007Y027201D01*
X006399Y027201D01*
X006399Y027008D02*
X006007Y027008D01*
X006007Y027089D02*
X006399Y027089D01*
X006399Y027170D02*
X006007Y027170D01*
X006399Y027478D02*
X006399Y027752D01*
X006399Y027478D02*
X006007Y027478D01*
X006007Y027752D01*
X006399Y027752D01*
X006399Y027559D02*
X006007Y027559D01*
X006007Y027640D02*
X006399Y027640D01*
X006399Y027721D02*
X006007Y027721D01*
X005699Y027752D02*
X005699Y027478D01*
X005307Y027478D01*
X005307Y027752D01*
X005699Y027752D01*
X005699Y027559D02*
X005307Y027559D01*
X005307Y027640D02*
X005699Y027640D01*
X005699Y027721D02*
X005307Y027721D01*
X005699Y027201D02*
X005699Y026927D01*
X005307Y026927D01*
X005307Y027201D01*
X005699Y027201D01*
X005699Y027008D02*
X005307Y027008D01*
X005307Y027089D02*
X005699Y027089D01*
X005699Y027170D02*
X005307Y027170D01*
X004557Y027201D02*
X004557Y026927D01*
X004557Y027201D02*
X004949Y027201D01*
X004949Y026927D01*
X004557Y026927D01*
X004557Y027008D02*
X004949Y027008D01*
X004949Y027089D02*
X004557Y027089D01*
X004557Y027170D02*
X004949Y027170D01*
X004557Y027478D02*
X004557Y027752D01*
X004949Y027752D01*
X004949Y027478D01*
X004557Y027478D01*
X004557Y027559D02*
X004949Y027559D01*
X004949Y027640D02*
X004557Y027640D01*
X004557Y027721D02*
X004949Y027721D01*
X005357Y026302D02*
X005357Y026028D01*
X005357Y026302D02*
X005749Y026302D01*
X005749Y026028D01*
X005357Y026028D01*
X005357Y026109D02*
X005749Y026109D01*
X005749Y026190D02*
X005357Y026190D01*
X005357Y026271D02*
X005749Y026271D01*
X005357Y025751D02*
X005357Y025477D01*
X005357Y025751D02*
X005749Y025751D01*
X005749Y025477D01*
X005357Y025477D01*
X005357Y025558D02*
X005749Y025558D01*
X005749Y025639D02*
X005357Y025639D01*
X005357Y025720D02*
X005749Y025720D01*
X006007Y025751D02*
X006007Y025477D01*
X006007Y025751D02*
X006399Y025751D01*
X006399Y025477D01*
X006007Y025477D01*
X006007Y025558D02*
X006399Y025558D01*
X006399Y025639D02*
X006007Y025639D01*
X006007Y025720D02*
X006399Y025720D01*
X006007Y026028D02*
X006007Y026302D01*
X006399Y026302D01*
X006399Y026028D01*
X006007Y026028D01*
X006007Y026109D02*
X006399Y026109D01*
X006399Y026190D02*
X006007Y026190D01*
X006007Y026271D02*
X006399Y026271D01*
X003999Y026917D02*
X003999Y027191D01*
X003999Y026917D02*
X003607Y026917D01*
X003607Y027191D01*
X003999Y027191D01*
X003999Y026998D02*
X003607Y026998D01*
X003607Y027079D02*
X003999Y027079D01*
X003999Y027160D02*
X003607Y027160D01*
X003999Y027468D02*
X003999Y027742D01*
X003999Y027468D02*
X003607Y027468D01*
X003607Y027742D01*
X003999Y027742D01*
X003999Y027549D02*
X003607Y027549D01*
X003607Y027630D02*
X003999Y027630D01*
X003999Y027711D02*
X003607Y027711D01*
X002482Y024977D02*
X002482Y024703D01*
X002482Y024977D02*
X002874Y024977D01*
X002874Y024703D01*
X002482Y024703D01*
X002482Y024784D02*
X002874Y024784D01*
X002874Y024865D02*
X002482Y024865D01*
X002482Y024946D02*
X002874Y024946D01*
X002482Y024426D02*
X002482Y024152D01*
X002482Y024426D02*
X002874Y024426D01*
X002874Y024152D01*
X002482Y024152D01*
X002482Y024233D02*
X002874Y024233D01*
X002874Y024314D02*
X002482Y024314D01*
X002482Y024395D02*
X002874Y024395D01*
X007891Y019494D02*
X008165Y019494D01*
X007891Y019494D02*
X007891Y019886D01*
X008165Y019886D01*
X008165Y019494D01*
X008165Y019575D02*
X007891Y019575D01*
X007891Y019656D02*
X008165Y019656D01*
X008165Y019737D02*
X007891Y019737D01*
X007891Y019818D02*
X008165Y019818D01*
X008442Y019494D02*
X008716Y019494D01*
X008442Y019494D02*
X008442Y019886D01*
X008716Y019886D01*
X008716Y019494D01*
X008716Y019575D02*
X008442Y019575D01*
X008442Y019656D02*
X008716Y019656D01*
X008716Y019737D02*
X008442Y019737D01*
X008442Y019818D02*
X008716Y019818D01*
D11*
X009253Y005960D03*
X009253Y003990D03*
X007703Y003990D03*
X007703Y005960D03*
X004753Y005960D03*
X004753Y003990D03*
X012203Y003990D03*
X012203Y005960D03*
D12*
X009453Y024540D03*
X009453Y025540D03*
X008453Y025540D03*
X008453Y024540D03*
X007453Y024540D03*
X007453Y025540D03*
D13*
X002153Y026590D03*
X008453Y008767D03*
X014753Y026590D03*
D14*
X001603Y002690D03*
X001603Y003690D03*
X001603Y004690D03*
X001603Y005690D03*
X001603Y006690D03*
X001603Y007690D03*
X001603Y008690D03*
X001603Y009690D03*
X001603Y010690D03*
X002553Y011590D03*
X005903Y011540D03*
X010753Y011490D03*
X013653Y011490D03*
X015323Y010690D03*
X015323Y009690D03*
X015323Y008690D03*
X015323Y007690D03*
X015323Y006690D03*
X015323Y005690D03*
X015323Y004690D03*
X015323Y003690D03*
X015323Y002690D03*
D15*
X008416Y026494D02*
X008416Y026592D01*
X008810Y026592D01*
X008810Y026494D01*
X008416Y026494D01*
X008416Y026573D02*
X008810Y026573D01*
X008416Y026691D02*
X008416Y026789D01*
X008810Y026789D01*
X008810Y026691D01*
X008416Y026691D01*
X008416Y026770D02*
X008810Y026770D01*
X008416Y026888D02*
X008416Y026986D01*
X008810Y026986D01*
X008810Y026888D01*
X008416Y026888D01*
X008416Y026967D02*
X008810Y026967D01*
X008416Y027085D02*
X008416Y027183D01*
X008810Y027183D01*
X008810Y027085D01*
X008416Y027085D01*
X008416Y027164D02*
X008810Y027164D01*
X008416Y027282D02*
X008416Y027380D01*
X008810Y027380D01*
X008810Y027282D01*
X008416Y027282D01*
X008416Y027361D02*
X008810Y027361D01*
X007146Y027380D02*
X007146Y027282D01*
X006752Y027282D01*
X006752Y027380D01*
X007146Y027380D01*
X007146Y027361D02*
X006752Y027361D01*
X007146Y027183D02*
X007146Y027085D01*
X006752Y027085D01*
X006752Y027183D01*
X007146Y027183D01*
X007146Y027164D02*
X006752Y027164D01*
X007146Y026986D02*
X007146Y026888D01*
X006752Y026888D01*
X006752Y026986D01*
X007146Y026986D01*
X007146Y026967D02*
X006752Y026967D01*
X007146Y026789D02*
X007146Y026691D01*
X006752Y026691D01*
X006752Y026789D01*
X007146Y026789D01*
X007146Y026770D02*
X006752Y026770D01*
X007146Y026592D02*
X007146Y026494D01*
X006752Y026494D01*
X006752Y026592D01*
X007146Y026592D01*
X007146Y026573D02*
X006752Y026573D01*
D16*
X012453Y026590D03*
X012453Y027590D03*
X001003Y024365D03*
X001003Y023365D03*
D17*
X007643Y011730D02*
X007643Y010550D01*
X007053Y010550D01*
X007053Y011730D01*
X007643Y011730D01*
X007643Y010629D02*
X007053Y010629D01*
X007053Y010708D02*
X007643Y010708D01*
X007643Y010787D02*
X007053Y010787D01*
X007053Y010866D02*
X007643Y010866D01*
X007643Y010945D02*
X007053Y010945D01*
X007053Y011024D02*
X007643Y011024D01*
X007643Y011103D02*
X007053Y011103D01*
X007053Y011182D02*
X007643Y011182D01*
X007643Y011261D02*
X007053Y011261D01*
X007053Y011340D02*
X007643Y011340D01*
X007643Y011419D02*
X007053Y011419D01*
X007053Y011498D02*
X007643Y011498D01*
X007643Y011577D02*
X007053Y011577D01*
X007053Y011656D02*
X007643Y011656D01*
X009454Y011730D02*
X009454Y010550D01*
X008864Y010550D01*
X008864Y011730D01*
X009454Y011730D01*
X009454Y010629D02*
X008864Y010629D01*
X008864Y010708D02*
X009454Y010708D01*
X009454Y010787D02*
X008864Y010787D01*
X008864Y010866D02*
X009454Y010866D01*
X009454Y010945D02*
X008864Y010945D01*
X008864Y011024D02*
X009454Y011024D01*
X009454Y011103D02*
X008864Y011103D01*
X008864Y011182D02*
X009454Y011182D01*
X009454Y011261D02*
X008864Y011261D01*
X008864Y011340D02*
X009454Y011340D01*
X009454Y011419D02*
X008864Y011419D01*
X008864Y011498D02*
X009454Y011498D01*
X009454Y011577D02*
X008864Y011577D01*
X008864Y011656D02*
X009454Y011656D01*
D18*
X009425Y012405D02*
X009425Y014945D01*
X009425Y012405D02*
X007081Y012405D01*
X007081Y014945D01*
X009425Y014945D01*
X009425Y012502D02*
X007081Y012502D01*
X007081Y012599D02*
X009425Y012599D01*
X009425Y012696D02*
X007081Y012696D01*
X007081Y012793D02*
X009425Y012793D01*
X009425Y012890D02*
X007081Y012890D01*
X007081Y012987D02*
X009425Y012987D01*
X009425Y013084D02*
X007081Y013084D01*
X007081Y013181D02*
X009425Y013181D01*
X009425Y013278D02*
X007081Y013278D01*
X007081Y013375D02*
X009425Y013375D01*
X009425Y013472D02*
X007081Y013472D01*
X007081Y013569D02*
X009425Y013569D01*
X009425Y013666D02*
X007081Y013666D01*
X007081Y013763D02*
X009425Y013763D01*
X009425Y013860D02*
X007081Y013860D01*
X007081Y013957D02*
X009425Y013957D01*
X009425Y014054D02*
X007081Y014054D01*
X007081Y014151D02*
X009425Y014151D01*
X009425Y014248D02*
X007081Y014248D01*
X007081Y014345D02*
X009425Y014345D01*
X009425Y014442D02*
X007081Y014442D01*
X007081Y014539D02*
X009425Y014539D01*
X009425Y014636D02*
X007081Y014636D01*
X007081Y014733D02*
X009425Y014733D01*
X009425Y014830D02*
X007081Y014830D01*
X007081Y014927D02*
X009425Y014927D01*
D19*
X010293Y025140D03*
X011613Y026400D03*
D20*
X012703Y024240D03*
X014203Y020640D03*
X013553Y020115D03*
X012903Y020190D03*
X012903Y018390D03*
X012403Y018390D03*
X012503Y017640D03*
X012203Y017240D03*
X012503Y016840D03*
X012203Y016440D03*
X012503Y016040D03*
X012803Y016440D03*
X013103Y016840D03*
X012803Y017240D03*
X013103Y017640D03*
X013403Y017240D03*
X013703Y017640D03*
X014003Y017240D03*
X013703Y016840D03*
X013403Y016440D03*
X013103Y016040D03*
X013353Y015590D03*
X013003Y015190D03*
X013353Y014790D03*
X013003Y014390D03*
X013353Y013990D03*
X013003Y013590D03*
X013353Y013190D03*
X013703Y013590D03*
X014003Y013190D03*
X014303Y013590D03*
X014003Y013990D03*
X013703Y014390D03*
X014003Y014790D03*
X013703Y015190D03*
X014003Y015590D03*
X014303Y015190D03*
X014653Y015590D03*
X014903Y016040D03*
X014603Y016440D03*
X014303Y016840D03*
X014003Y016440D03*
X013703Y016040D03*
X014303Y016040D03*
X014903Y016840D03*
X014603Y017240D03*
X014303Y017640D03*
X014903Y017640D03*
X015503Y018890D03*
X015478Y021440D03*
X015478Y021890D03*
X015153Y025190D03*
X011503Y020090D03*
X010653Y020140D03*
X009653Y020940D03*
X010503Y022340D03*
X010553Y022965D03*
X010103Y022640D03*
X009003Y022640D03*
X008153Y022390D03*
X008503Y020590D03*
X007603Y020590D03*
X006853Y020040D03*
X006153Y019990D03*
X006603Y021440D03*
X006703Y023740D03*
X006053Y024240D03*
X005553Y025090D03*
X004653Y025390D03*
X004603Y024940D03*
X003853Y023590D03*
X004603Y023290D03*
X005053Y023140D03*
X004603Y022640D03*
X004203Y021615D03*
X003803Y021890D03*
X004478Y020140D03*
X005128Y021540D03*
X003353Y020040D03*
X003503Y018415D03*
X003078Y018365D03*
X002628Y018390D03*
X002353Y017640D03*
X002103Y017240D03*
X002353Y016840D03*
X002603Y017240D03*
X002903Y017640D03*
X003203Y017240D03*
X002953Y016840D03*
X002653Y016440D03*
X002353Y016040D03*
X002053Y016440D03*
X001753Y016840D03*
X001853Y017640D03*
X001553Y018040D03*
X002953Y016040D03*
X003253Y016440D03*
X003503Y016040D03*
X003803Y016440D03*
X003503Y016840D03*
X003803Y017240D03*
X003503Y017640D03*
X004103Y017640D03*
X004403Y017240D03*
X004703Y017640D03*
X005003Y017240D03*
X004703Y016840D03*
X004403Y016440D03*
X004703Y016040D03*
X005003Y016440D03*
X005303Y016840D03*
X005603Y017240D03*
X005903Y017640D03*
X006203Y017240D03*
X005903Y016840D03*
X005603Y016440D03*
X005903Y016040D03*
X006203Y016440D03*
X006503Y016840D03*
X006803Y017240D03*
X006503Y017640D03*
X007103Y017640D03*
X007403Y017240D03*
X007103Y016840D03*
X006803Y016440D03*
X006503Y016040D03*
X006603Y015540D03*
X006303Y015140D03*
X006003Y015540D03*
X005703Y015140D03*
X005403Y015540D03*
X005103Y015140D03*
X004803Y015540D03*
X004303Y015540D03*
X004053Y015140D03*
X004303Y014740D03*
X004053Y014340D03*
X004303Y013940D03*
X004053Y013540D03*
X003353Y013890D03*
X003053Y014290D03*
X003353Y014690D03*
X003053Y015090D03*
X003353Y015490D03*
X002753Y015490D03*
X002453Y015090D03*
X002153Y015490D03*
X001853Y015090D03*
X001553Y015490D03*
X001553Y014690D03*
X001853Y014290D03*
X001553Y013890D03*
X001853Y013490D03*
X001553Y013090D03*
X002153Y013890D03*
X002453Y014290D03*
X002153Y014690D03*
X002753Y014690D03*
X002753Y013890D03*
X002453Y013490D03*
X002753Y013090D03*
X003053Y013490D03*
X003353Y013090D03*
X004803Y013140D03*
X005103Y013540D03*
X005403Y013140D03*
X005703Y013540D03*
X005403Y013940D03*
X005103Y014340D03*
X005403Y014740D03*
X005703Y014340D03*
X006003Y014740D03*
X006303Y014340D03*
X006003Y013940D03*
X006303Y013540D03*
X006003Y013140D03*
X006603Y013140D03*
X006603Y013940D03*
X006603Y014740D03*
X007103Y016040D03*
X007403Y016440D03*
X007703Y016840D03*
X008003Y017240D03*
X007703Y017640D03*
X008303Y017640D03*
X008603Y017240D03*
X008303Y016840D03*
X008003Y016440D03*
X007703Y016040D03*
X008003Y015640D03*
X007703Y015240D03*
X008303Y015240D03*
X008603Y015640D03*
X008303Y016040D03*
X008603Y016440D03*
X008903Y016840D03*
X009203Y017240D03*
X008903Y017640D03*
X009503Y017640D03*
X009803Y017240D03*
X009503Y016840D03*
X009203Y016440D03*
X008903Y016040D03*
X008903Y015240D03*
X009503Y016040D03*
X009803Y016440D03*
X010103Y016840D03*
X010403Y017240D03*
X010103Y017640D03*
X010703Y017640D03*
X011003Y017240D03*
X011303Y017640D03*
X011603Y017240D03*
X011303Y016840D03*
X011003Y016440D03*
X011303Y016040D03*
X011603Y016440D03*
X011903Y016840D03*
X011903Y017640D03*
X011778Y018390D03*
X011303Y018390D03*
X010853Y018390D03*
X010703Y016840D03*
X010403Y016440D03*
X010103Y016040D03*
X010003Y015440D03*
X010303Y015090D03*
X010603Y015440D03*
X010903Y015090D03*
X011203Y015440D03*
X011503Y015090D03*
X011753Y015440D03*
X011903Y016040D03*
X012303Y015440D03*
X012503Y014990D03*
X012253Y014590D03*
X012503Y014190D03*
X012253Y013790D03*
X012503Y013390D03*
X011753Y013040D03*
X011453Y013440D03*
X011153Y013840D03*
X010853Y013440D03*
X011153Y013040D03*
X010503Y013040D03*
X010203Y013440D03*
X009903Y013840D03*
X010203Y014240D03*
X009903Y014640D03*
X009703Y015090D03*
X010503Y014640D03*
X010853Y014240D03*
X011153Y014640D03*
X011453Y014240D03*
X011753Y014640D03*
X011753Y013840D03*
X010503Y013840D03*
X009903Y013040D03*
X010703Y016040D03*
X013603Y018390D03*
X015303Y015590D03*
X015003Y015190D03*
X015303Y014790D03*
X015003Y014390D03*
X015303Y013990D03*
X015003Y013590D03*
X015303Y013190D03*
X014653Y013190D03*
X014653Y013990D03*
X014303Y014390D03*
X014653Y014790D03*
X009103Y026615D03*
X007603Y026740D03*
X007603Y027290D03*
X005053Y026540D03*
X003703Y025440D03*
X003653Y024940D03*
X002678Y025440D03*
X003203Y027390D03*
X002653Y027740D03*
X002103Y023115D03*
X001853Y022490D03*
X001253Y022140D03*
X004103Y016840D03*
X004103Y016040D03*
X004803Y014740D03*
X004803Y013940D03*
X005303Y016040D03*
X005303Y017640D03*
X005303Y018390D03*
X004853Y018390D03*
X004403Y018390D03*
X005753Y018390D03*
M02*
