G75*
G70*
%OFA0B0*%
%FSLAX24Y24*%
%IPPOS*%
%LPD*%
%AMOC8*
5,1,8,0,0,1.08239X$1,22.5*
%
%ADD10C,0.0060*%
%ADD11C,0.0070*%
%ADD12C,0.0030*%
%ADD13C,0.0000*%
%ADD14C,0.0020*%
%ADD15R,0.0340X0.0160*%
%ADD16C,0.0050*%
%ADD17C,0.0080*%
%ADD18R,0.0160X0.0340*%
%ADD19R,0.2677X0.2441*%
%ADD20R,0.0394X0.1339*%
D10*
X005943Y004003D02*
X006157Y004217D01*
X006584Y004217D01*
X006477Y004434D02*
X006050Y004434D01*
X005943Y004541D01*
X005943Y004755D01*
X006050Y004861D01*
X006050Y005079D02*
X005943Y005186D01*
X005943Y005399D01*
X006050Y005506D01*
X006050Y005079D02*
X006477Y005079D01*
X006584Y005186D01*
X006584Y005399D01*
X006477Y005506D01*
X006477Y004861D02*
X006584Y004755D01*
X006584Y004541D01*
X006477Y004434D01*
X006584Y003790D02*
X006157Y003790D01*
X005943Y004003D01*
X010393Y004281D02*
X010393Y004495D01*
X010500Y004601D01*
X010713Y004601D01*
X010713Y004388D01*
X010500Y004174D02*
X010393Y004281D01*
X010500Y004174D02*
X010927Y004174D01*
X011034Y004281D01*
X011034Y004495D01*
X010927Y004601D01*
X011034Y004819D02*
X010393Y005246D01*
X011034Y005246D01*
X011034Y005463D02*
X011034Y005784D01*
X010927Y005890D01*
X010500Y005890D01*
X010393Y005784D01*
X010393Y005463D01*
X011034Y005463D01*
X011034Y004819D02*
X010393Y004819D01*
X010713Y003957D02*
X010607Y003850D01*
X010607Y003530D01*
X010393Y003530D02*
X011034Y003530D01*
X011034Y003850D01*
X010927Y003957D01*
X010713Y003957D01*
X015363Y016670D02*
X015363Y017010D01*
X015643Y017010D02*
X015643Y016670D01*
X015093Y019020D02*
X015093Y019360D01*
X014813Y019360D02*
X014813Y019020D01*
X014393Y019020D02*
X014393Y019360D01*
X014113Y019360D02*
X014113Y019020D01*
X013743Y019020D02*
X013743Y019360D01*
X013463Y019360D02*
X013463Y019020D01*
X012743Y019020D02*
X012743Y019360D01*
X012463Y019360D02*
X012463Y019020D01*
X011643Y019020D02*
X011643Y019360D01*
X011363Y019360D02*
X011363Y019020D01*
X010193Y019170D02*
X010193Y019510D01*
X009913Y019510D02*
X009913Y019170D01*
X009443Y019170D02*
X009443Y019510D01*
X009163Y019510D02*
X009163Y019170D01*
X008793Y018860D02*
X008793Y018520D01*
X008513Y018520D02*
X008513Y018860D01*
X008473Y019550D02*
X008133Y019550D01*
X008133Y019830D02*
X008473Y019830D01*
X008043Y018860D02*
X008043Y018520D01*
X007763Y018520D02*
X007763Y018860D01*
X006993Y019020D02*
X006993Y019360D01*
X006713Y019360D02*
X006713Y019020D01*
X006293Y019020D02*
X006293Y019360D01*
X006013Y019360D02*
X006013Y019020D01*
X005343Y019020D02*
X005343Y019360D01*
X005063Y019360D02*
X005063Y019020D01*
X004543Y019020D02*
X004543Y019360D01*
X004263Y019360D02*
X004263Y019020D01*
X003393Y019020D02*
X003393Y019360D01*
X003113Y019360D02*
X003113Y019020D01*
X001443Y016860D02*
X001443Y016520D01*
X001163Y016520D02*
X001163Y016860D01*
X002538Y024395D02*
X002538Y024735D01*
X002818Y024735D02*
X002818Y024395D01*
X003663Y027160D02*
X003663Y027500D01*
X003943Y027500D02*
X003943Y027160D01*
X004613Y027170D02*
X004613Y027510D01*
X004893Y027510D02*
X004893Y027170D01*
X005363Y027170D02*
X005363Y027510D01*
X005643Y027510D02*
X005643Y027170D01*
X006063Y027170D02*
X006063Y027510D01*
X006343Y027510D02*
X006343Y027170D01*
X006343Y026060D02*
X006343Y025720D01*
X006063Y025720D02*
X006063Y026060D01*
X005693Y026060D02*
X005693Y025720D01*
X005413Y025720D02*
X005413Y026060D01*
X009483Y020380D02*
X009823Y020380D01*
X009823Y020100D02*
X009483Y020100D01*
X010513Y026520D02*
X010513Y026860D01*
X010793Y026860D02*
X010793Y026520D01*
D11*
X015341Y012406D02*
X015064Y012129D01*
X015064Y011575D01*
X015064Y011990D02*
X015618Y011990D01*
X015618Y012129D02*
X015341Y012406D01*
X015618Y012129D02*
X015618Y011575D01*
X001868Y011625D02*
X001453Y011625D01*
X001314Y011763D01*
X001314Y011902D01*
X001453Y012040D01*
X001868Y012040D01*
X001868Y011625D02*
X001868Y012456D01*
X001453Y012456D01*
X001314Y012317D01*
X001314Y012179D01*
X001453Y012040D01*
D12*
X003048Y010813D02*
X003048Y010752D01*
X003110Y010690D01*
X003295Y010690D01*
X003295Y010505D02*
X003110Y010505D01*
X003048Y010567D01*
X003048Y010628D01*
X003110Y010690D01*
X003048Y010813D02*
X003110Y010875D01*
X003295Y010875D01*
X003295Y010505D01*
X003416Y010505D02*
X003416Y010875D01*
X003540Y010752D01*
X003663Y010875D01*
X003663Y010505D01*
X003663Y009850D02*
X003540Y009727D01*
X003416Y009850D01*
X003416Y009480D01*
X003295Y009480D02*
X003110Y009480D01*
X003048Y009542D01*
X003048Y009603D01*
X003110Y009665D01*
X003295Y009665D01*
X003295Y009850D02*
X003110Y009850D01*
X003048Y009788D01*
X003048Y009727D01*
X003110Y009665D01*
X003295Y009480D02*
X003295Y009850D01*
X003663Y009850D02*
X003663Y009480D01*
X003663Y008875D02*
X003540Y008752D01*
X003416Y008875D01*
X003416Y008505D01*
X003295Y008505D02*
X003295Y008752D01*
X003171Y008875D01*
X003048Y008752D01*
X003048Y008505D01*
X003048Y008690D02*
X003295Y008690D01*
X003663Y008505D02*
X003663Y008875D01*
X003688Y007875D02*
X003565Y007752D01*
X003441Y007875D01*
X003441Y007505D01*
X003320Y007505D02*
X003320Y007752D01*
X003196Y007875D01*
X003073Y007752D01*
X003073Y007505D01*
X003073Y007690D02*
X003320Y007690D01*
X003688Y007505D02*
X003688Y007875D01*
X003695Y006925D02*
X003448Y006555D01*
X003448Y006925D01*
X003327Y006925D02*
X003327Y006555D01*
X003141Y006555D01*
X003080Y006617D01*
X003080Y006863D01*
X003141Y006925D01*
X003327Y006925D01*
X003695Y006925D02*
X003695Y006555D01*
X003816Y006617D02*
X003816Y006740D01*
X003940Y006740D01*
X004063Y006863D02*
X004002Y006925D01*
X003878Y006925D01*
X003816Y006863D01*
X003816Y006617D02*
X003878Y006555D01*
X004002Y006555D01*
X004063Y006617D01*
X004063Y006863D01*
X003765Y005863D02*
X003765Y005617D01*
X003888Y005740D02*
X003641Y005740D01*
X003520Y005740D02*
X003396Y005802D01*
X003335Y005802D01*
X003273Y005740D01*
X003273Y005617D01*
X003335Y005555D01*
X003458Y005555D01*
X003520Y005617D01*
X003520Y005740D02*
X003520Y005925D01*
X003273Y005925D01*
X003152Y005925D02*
X003152Y005678D01*
X003028Y005555D01*
X002905Y005678D01*
X002905Y005925D01*
X003085Y004825D02*
X003023Y004763D01*
X003023Y004702D01*
X003085Y004640D01*
X003270Y004640D01*
X003270Y004825D02*
X003085Y004825D01*
X003270Y004825D02*
X003270Y004455D01*
X003085Y004455D01*
X003023Y004517D01*
X003023Y004578D01*
X003085Y004640D01*
X003391Y004455D02*
X003638Y004455D01*
X003638Y004825D01*
X003391Y004825D01*
X003515Y004640D02*
X003638Y004640D01*
X003638Y003825D02*
X003391Y003825D01*
X003270Y003702D02*
X003146Y003825D01*
X003023Y003702D01*
X003023Y003455D01*
X003023Y003640D02*
X003270Y003640D01*
X003270Y003702D02*
X003270Y003455D01*
X003391Y003455D02*
X003638Y003455D01*
X003638Y003825D01*
X003638Y003640D02*
X003515Y003640D01*
X003485Y002875D02*
X003423Y002813D01*
X003423Y002567D01*
X003485Y002505D01*
X003608Y002505D01*
X003670Y002567D01*
X003670Y002813D01*
X003608Y002875D01*
X003485Y002875D01*
X003302Y002875D02*
X003055Y002875D01*
X003178Y002875D02*
X003178Y002505D01*
X003791Y002690D02*
X003853Y002628D01*
X004038Y002628D01*
X004038Y002505D02*
X004038Y002875D01*
X003853Y002875D01*
X003791Y002813D01*
X003791Y002690D01*
X013005Y006642D02*
X013005Y006888D01*
X013066Y006950D01*
X013252Y006950D01*
X013252Y006580D01*
X013066Y006580D01*
X013005Y006642D01*
X013373Y006580D02*
X013373Y006950D01*
X013620Y006950D02*
X013373Y006580D01*
X013620Y006580D02*
X013620Y006950D01*
X013741Y006888D02*
X013803Y006950D01*
X013927Y006950D01*
X013988Y006888D01*
X013988Y006642D01*
X013927Y006580D01*
X013803Y006580D01*
X013741Y006642D01*
X013741Y006765D01*
X013865Y006765D01*
X013583Y007555D02*
X013460Y007555D01*
X013398Y007617D01*
X013398Y007740D01*
X013460Y007802D01*
X013521Y007802D01*
X013645Y007740D01*
X013645Y007925D01*
X013398Y007925D01*
X013277Y007925D02*
X013277Y007678D01*
X013153Y007555D01*
X013030Y007678D01*
X013030Y007925D01*
X013435Y008530D02*
X013620Y008530D01*
X013620Y008900D01*
X013435Y008900D01*
X013373Y008838D01*
X013373Y008777D01*
X013435Y008715D01*
X013620Y008715D01*
X013435Y008715D02*
X013373Y008653D01*
X013373Y008592D01*
X013435Y008530D01*
X013741Y008530D02*
X013988Y008530D01*
X013988Y008900D01*
X013741Y008900D01*
X013865Y008715D02*
X013988Y008715D01*
X013988Y009530D02*
X013741Y009530D01*
X013620Y009530D02*
X013620Y009777D01*
X013496Y009900D01*
X013373Y009777D01*
X013373Y009530D01*
X013373Y009715D02*
X013620Y009715D01*
X013741Y009900D02*
X013988Y009900D01*
X013988Y009530D01*
X013988Y009715D02*
X013865Y009715D01*
X013988Y010505D02*
X013988Y010875D01*
X013803Y010875D01*
X013741Y010813D01*
X013741Y010690D01*
X013803Y010628D01*
X013988Y010628D01*
X013620Y010567D02*
X013558Y010505D01*
X013435Y010505D01*
X013373Y010567D01*
X013373Y010813D01*
X013435Y010875D01*
X013558Y010875D01*
X013620Y010813D01*
X013620Y010567D01*
X013252Y010875D02*
X013005Y010875D01*
X013128Y010875D02*
X013128Y010505D01*
X013890Y007863D02*
X013890Y007617D01*
X014013Y007740D02*
X013766Y007740D01*
X013645Y007617D02*
X013583Y007555D01*
X013521Y005875D02*
X013398Y005752D01*
X013398Y005505D01*
X013398Y005690D02*
X013645Y005690D01*
X013645Y005752D02*
X013521Y005875D01*
X013645Y005752D02*
X013645Y005505D01*
X013766Y005505D02*
X013766Y005875D01*
X013890Y005752D01*
X014013Y005875D01*
X014013Y005505D01*
X014013Y004900D02*
X013890Y004777D01*
X013766Y004900D01*
X013766Y004530D01*
X013645Y004530D02*
X013645Y004777D01*
X013521Y004900D01*
X013398Y004777D01*
X013398Y004530D01*
X013398Y004715D02*
X013645Y004715D01*
X014013Y004530D02*
X014013Y004900D01*
X014038Y003825D02*
X013915Y003702D01*
X013791Y003825D01*
X013791Y003455D01*
X013670Y003455D02*
X013485Y003455D01*
X013423Y003517D01*
X013423Y003578D01*
X013485Y003640D01*
X013670Y003640D01*
X013670Y003825D02*
X013485Y003825D01*
X013423Y003763D01*
X013423Y003702D01*
X013485Y003640D01*
X013670Y003455D02*
X013670Y003825D01*
X014038Y003825D02*
X014038Y003455D01*
X013963Y002825D02*
X013840Y002702D01*
X013716Y002825D01*
X013716Y002455D01*
X013595Y002455D02*
X013595Y002825D01*
X013410Y002825D01*
X013348Y002763D01*
X013348Y002702D01*
X013410Y002640D01*
X013595Y002640D01*
X013595Y002455D02*
X013410Y002455D01*
X013348Y002517D01*
X013348Y002578D01*
X013410Y002640D01*
X013963Y002455D02*
X013963Y002825D01*
D13*
X000103Y002040D02*
X000103Y028440D01*
X016803Y028440D01*
X016803Y002040D01*
X000103Y002040D01*
X007811Y008767D02*
X007813Y008817D01*
X007819Y008867D01*
X007829Y008917D01*
X007842Y008965D01*
X007860Y009013D01*
X007881Y009058D01*
X007906Y009102D01*
X007934Y009144D01*
X007965Y009184D01*
X007999Y009221D01*
X008036Y009255D01*
X008076Y009286D01*
X008118Y009314D01*
X008162Y009339D01*
X008207Y009360D01*
X008255Y009378D01*
X008303Y009391D01*
X008353Y009401D01*
X008403Y009407D01*
X008453Y009409D01*
X008503Y009407D01*
X008553Y009401D01*
X008603Y009391D01*
X008651Y009378D01*
X008699Y009360D01*
X008744Y009339D01*
X008788Y009314D01*
X008830Y009286D01*
X008870Y009255D01*
X008907Y009221D01*
X008941Y009184D01*
X008972Y009144D01*
X009000Y009102D01*
X009025Y009058D01*
X009046Y009013D01*
X009064Y008965D01*
X009077Y008917D01*
X009087Y008867D01*
X009093Y008817D01*
X009095Y008767D01*
X009093Y008717D01*
X009087Y008667D01*
X009077Y008617D01*
X009064Y008569D01*
X009046Y008521D01*
X009025Y008476D01*
X009000Y008432D01*
X008972Y008390D01*
X008941Y008350D01*
X008907Y008313D01*
X008870Y008279D01*
X008830Y008248D01*
X008788Y008220D01*
X008744Y008195D01*
X008699Y008174D01*
X008651Y008156D01*
X008603Y008143D01*
X008553Y008133D01*
X008503Y008127D01*
X008453Y008125D01*
X008403Y008127D01*
X008353Y008133D01*
X008303Y008143D01*
X008255Y008156D01*
X008207Y008174D01*
X008162Y008195D01*
X008118Y008220D01*
X008076Y008248D01*
X008036Y008279D01*
X007999Y008313D01*
X007965Y008350D01*
X007934Y008390D01*
X007906Y008432D01*
X007881Y008476D01*
X007860Y008521D01*
X007842Y008569D01*
X007829Y008617D01*
X007819Y008667D01*
X007813Y008717D01*
X007811Y008767D01*
X001511Y026590D02*
X001513Y026640D01*
X001519Y026690D01*
X001529Y026740D01*
X001542Y026788D01*
X001560Y026836D01*
X001581Y026881D01*
X001606Y026925D01*
X001634Y026967D01*
X001665Y027007D01*
X001699Y027044D01*
X001736Y027078D01*
X001776Y027109D01*
X001818Y027137D01*
X001862Y027162D01*
X001907Y027183D01*
X001955Y027201D01*
X002003Y027214D01*
X002053Y027224D01*
X002103Y027230D01*
X002153Y027232D01*
X002203Y027230D01*
X002253Y027224D01*
X002303Y027214D01*
X002351Y027201D01*
X002399Y027183D01*
X002444Y027162D01*
X002488Y027137D01*
X002530Y027109D01*
X002570Y027078D01*
X002607Y027044D01*
X002641Y027007D01*
X002672Y026967D01*
X002700Y026925D01*
X002725Y026881D01*
X002746Y026836D01*
X002764Y026788D01*
X002777Y026740D01*
X002787Y026690D01*
X002793Y026640D01*
X002795Y026590D01*
X002793Y026540D01*
X002787Y026490D01*
X002777Y026440D01*
X002764Y026392D01*
X002746Y026344D01*
X002725Y026299D01*
X002700Y026255D01*
X002672Y026213D01*
X002641Y026173D01*
X002607Y026136D01*
X002570Y026102D01*
X002530Y026071D01*
X002488Y026043D01*
X002444Y026018D01*
X002399Y025997D01*
X002351Y025979D01*
X002303Y025966D01*
X002253Y025956D01*
X002203Y025950D01*
X002153Y025948D01*
X002103Y025950D01*
X002053Y025956D01*
X002003Y025966D01*
X001955Y025979D01*
X001907Y025997D01*
X001862Y026018D01*
X001818Y026043D01*
X001776Y026071D01*
X001736Y026102D01*
X001699Y026136D01*
X001665Y026173D01*
X001634Y026213D01*
X001606Y026255D01*
X001581Y026299D01*
X001560Y026344D01*
X001542Y026392D01*
X001529Y026440D01*
X001519Y026490D01*
X001513Y026540D01*
X001511Y026590D01*
X014111Y026590D02*
X014113Y026640D01*
X014119Y026690D01*
X014129Y026740D01*
X014142Y026788D01*
X014160Y026836D01*
X014181Y026881D01*
X014206Y026925D01*
X014234Y026967D01*
X014265Y027007D01*
X014299Y027044D01*
X014336Y027078D01*
X014376Y027109D01*
X014418Y027137D01*
X014462Y027162D01*
X014507Y027183D01*
X014555Y027201D01*
X014603Y027214D01*
X014653Y027224D01*
X014703Y027230D01*
X014753Y027232D01*
X014803Y027230D01*
X014853Y027224D01*
X014903Y027214D01*
X014951Y027201D01*
X014999Y027183D01*
X015044Y027162D01*
X015088Y027137D01*
X015130Y027109D01*
X015170Y027078D01*
X015207Y027044D01*
X015241Y027007D01*
X015272Y026967D01*
X015300Y026925D01*
X015325Y026881D01*
X015346Y026836D01*
X015364Y026788D01*
X015377Y026740D01*
X015387Y026690D01*
X015393Y026640D01*
X015395Y026590D01*
X015393Y026540D01*
X015387Y026490D01*
X015377Y026440D01*
X015364Y026392D01*
X015346Y026344D01*
X015325Y026299D01*
X015300Y026255D01*
X015272Y026213D01*
X015241Y026173D01*
X015207Y026136D01*
X015170Y026102D01*
X015130Y026071D01*
X015088Y026043D01*
X015044Y026018D01*
X014999Y025997D01*
X014951Y025979D01*
X014903Y025966D01*
X014853Y025956D01*
X014803Y025950D01*
X014753Y025948D01*
X014703Y025950D01*
X014653Y025956D01*
X014603Y025966D01*
X014555Y025979D01*
X014507Y025997D01*
X014462Y026018D01*
X014418Y026043D01*
X014376Y026071D01*
X014336Y026102D01*
X014299Y026136D01*
X014265Y026173D01*
X014234Y026213D01*
X014206Y026255D01*
X014181Y026299D01*
X014160Y026344D01*
X014142Y026392D01*
X014129Y026440D01*
X014119Y026490D01*
X014113Y026540D01*
X014111Y026590D01*
D14*
X011112Y026425D02*
X011112Y026310D01*
X010882Y026310D01*
X010958Y026310D02*
X010958Y026425D01*
X010997Y026464D01*
X011074Y026464D01*
X011112Y026425D01*
X010958Y026387D02*
X010882Y026464D01*
X010843Y026540D02*
X010843Y026694D01*
X010882Y026847D02*
X011112Y026847D01*
X011112Y026770D02*
X011112Y026924D01*
X011112Y027001D02*
X010882Y027001D01*
X010882Y027154D01*
X010882Y027231D02*
X011112Y027231D01*
X011112Y027346D01*
X011074Y027384D01*
X010997Y027384D01*
X010958Y027346D01*
X010958Y027231D01*
X010958Y027307D02*
X010882Y027384D01*
X010882Y027461D02*
X011112Y027461D01*
X011035Y027538D01*
X011112Y027614D01*
X010882Y027614D01*
X011112Y027154D02*
X011112Y027001D01*
X010997Y027001D02*
X010997Y027077D01*
X010033Y020699D02*
X009918Y020699D01*
X009880Y020660D01*
X009880Y020583D01*
X009918Y020545D01*
X010033Y020545D01*
X010033Y020468D02*
X010033Y020699D01*
X009956Y020545D02*
X009880Y020468D01*
X009803Y020468D02*
X009649Y020468D01*
X009573Y020468D02*
X009419Y020622D01*
X009419Y020660D01*
X009458Y020699D01*
X009534Y020699D01*
X009573Y020660D01*
X009726Y020699D02*
X009726Y020468D01*
X009573Y020468D02*
X009419Y020468D01*
X009726Y020699D02*
X009803Y020622D01*
X009595Y019663D02*
X009595Y019509D01*
X009595Y019433D02*
X009595Y019279D01*
X009595Y019202D02*
X009671Y019126D01*
X009671Y019164D02*
X009671Y019049D01*
X009595Y019049D02*
X009825Y019049D01*
X009825Y019164D01*
X009787Y019202D01*
X009710Y019202D01*
X009671Y019164D01*
X009748Y019279D02*
X009825Y019356D01*
X009595Y019356D01*
X009748Y019509D02*
X009825Y019586D01*
X009595Y019586D01*
X009075Y019624D02*
X008960Y019509D01*
X008960Y019663D01*
X008845Y019624D02*
X009075Y019624D01*
X009037Y019433D02*
X009075Y019394D01*
X009075Y019318D01*
X009037Y019279D01*
X008883Y019279D01*
X008845Y019318D01*
X008845Y019394D01*
X008883Y019433D01*
X008594Y019461D02*
X008594Y019231D01*
X008594Y019308D02*
X008479Y019308D01*
X008441Y019346D01*
X008441Y019423D01*
X008479Y019461D01*
X008594Y019461D01*
X008517Y019308D02*
X008441Y019231D01*
X008364Y019231D02*
X008210Y019385D01*
X008210Y019423D01*
X008249Y019461D01*
X008326Y019461D01*
X008364Y019423D01*
X008364Y019231D02*
X008210Y019231D01*
X008134Y019231D02*
X007980Y019231D01*
X008057Y019231D02*
X008057Y019461D01*
X008134Y019385D01*
X008233Y019013D02*
X008271Y019013D01*
X008310Y018974D01*
X008310Y018859D01*
X008233Y018859D01*
X008195Y018898D01*
X008195Y018974D01*
X008233Y019013D01*
X008387Y018936D02*
X008310Y018859D01*
X008387Y018783D02*
X008425Y018744D01*
X008425Y018668D01*
X008387Y018629D01*
X008233Y018629D01*
X008195Y018668D01*
X008195Y018744D01*
X008233Y018783D01*
X008387Y018936D02*
X008425Y019013D01*
X007675Y018974D02*
X007637Y019013D01*
X007483Y018859D01*
X007445Y018898D01*
X007445Y018974D01*
X007483Y019013D01*
X007637Y019013D01*
X007675Y018974D02*
X007675Y018898D01*
X007637Y018859D01*
X007483Y018859D01*
X007445Y018783D02*
X007445Y018629D01*
X007598Y018783D01*
X007637Y018783D01*
X007675Y018744D01*
X007675Y018668D01*
X007637Y018629D01*
X007637Y018552D02*
X007560Y018552D01*
X007521Y018514D01*
X007521Y018399D01*
X007445Y018399D02*
X007675Y018399D01*
X007675Y018514D01*
X007637Y018552D01*
X007521Y018476D02*
X007445Y018552D01*
X007312Y018810D02*
X007312Y018925D01*
X007274Y018964D01*
X007197Y018964D01*
X007158Y018925D01*
X007158Y018810D01*
X007082Y018810D02*
X007312Y018810D01*
X007158Y018887D02*
X007082Y018964D01*
X007082Y019040D02*
X007082Y019194D01*
X007082Y019117D02*
X007312Y019117D01*
X007235Y019040D01*
X007274Y019270D02*
X007312Y019309D01*
X007312Y019385D01*
X007274Y019424D01*
X007235Y019424D01*
X007197Y019385D01*
X007158Y019424D01*
X007120Y019424D01*
X007082Y019385D01*
X007082Y019309D01*
X007120Y019270D01*
X007197Y019347D02*
X007197Y019385D01*
X005925Y019398D02*
X005925Y019474D01*
X005887Y019513D01*
X005848Y019513D01*
X005810Y019474D01*
X005810Y019398D01*
X005848Y019359D01*
X005887Y019359D01*
X005925Y019398D01*
X005810Y019398D02*
X005771Y019359D01*
X005733Y019359D01*
X005695Y019398D01*
X005695Y019474D01*
X005733Y019513D01*
X005771Y019513D01*
X005810Y019474D01*
X005662Y019424D02*
X005662Y019270D01*
X005547Y019270D01*
X005585Y019347D01*
X005585Y019385D01*
X005547Y019424D01*
X005470Y019424D01*
X005432Y019385D01*
X005432Y019309D01*
X005470Y019270D01*
X005432Y019194D02*
X005432Y019040D01*
X005432Y018964D02*
X005508Y018887D01*
X005508Y018925D02*
X005508Y018810D01*
X005432Y018810D02*
X005662Y018810D01*
X005662Y018925D01*
X005624Y018964D01*
X005547Y018964D01*
X005508Y018925D01*
X005585Y019040D02*
X005662Y019117D01*
X005432Y019117D01*
X005695Y019129D02*
X005695Y019283D01*
X005695Y019206D02*
X005925Y019206D01*
X005848Y019129D01*
X005810Y019052D02*
X005771Y019014D01*
X005771Y018899D01*
X005695Y018899D02*
X005925Y018899D01*
X005925Y019014D01*
X005887Y019052D01*
X005810Y019052D01*
X005771Y018976D02*
X005695Y019052D01*
X004862Y019117D02*
X004785Y019040D01*
X004747Y018964D02*
X004708Y018925D01*
X004708Y018810D01*
X004632Y018810D02*
X004862Y018810D01*
X004862Y018925D01*
X004824Y018964D01*
X004747Y018964D01*
X004708Y018887D02*
X004632Y018964D01*
X004632Y019040D02*
X004632Y019194D01*
X004632Y019270D02*
X004670Y019270D01*
X004824Y019424D01*
X004862Y019424D01*
X004862Y019270D01*
X004862Y019117D02*
X004632Y019117D01*
X003712Y019117D02*
X003635Y019040D01*
X003597Y018964D02*
X003558Y018925D01*
X003558Y018810D01*
X003482Y018810D02*
X003712Y018810D01*
X003712Y018925D01*
X003674Y018964D01*
X003597Y018964D01*
X003558Y018887D02*
X003482Y018964D01*
X003482Y019040D02*
X003482Y019194D01*
X003482Y019117D02*
X003712Y019117D01*
X003597Y019270D02*
X003597Y019424D01*
X003712Y019385D02*
X003597Y019270D01*
X003482Y019385D02*
X003712Y019385D01*
X001762Y016694D02*
X001762Y016540D01*
X001647Y016540D01*
X001685Y016617D01*
X001685Y016655D01*
X001647Y016694D01*
X001570Y016694D01*
X001532Y016655D01*
X001532Y016579D01*
X001570Y016540D01*
X001570Y016464D02*
X001532Y016425D01*
X001532Y016348D01*
X001570Y016310D01*
X001724Y016310D01*
X001762Y016348D01*
X001762Y016425D01*
X001724Y016464D01*
X002220Y024504D02*
X002450Y024504D01*
X002450Y024619D01*
X002412Y024658D01*
X002335Y024658D01*
X002296Y024619D01*
X002296Y024504D01*
X002296Y024581D02*
X002220Y024658D01*
X002220Y024734D02*
X002258Y024734D01*
X002412Y024888D01*
X002450Y024888D01*
X002450Y024734D01*
X004070Y026950D02*
X004032Y026988D01*
X004032Y027027D01*
X004070Y027065D01*
X004262Y027065D01*
X004262Y027027D02*
X004262Y027104D01*
X004262Y027180D02*
X004262Y027295D01*
X004224Y027334D01*
X004147Y027334D01*
X004108Y027295D01*
X004108Y027180D01*
X004032Y027180D02*
X004262Y027180D01*
X004295Y027279D02*
X004525Y027279D01*
X004525Y027394D01*
X004487Y027433D01*
X004410Y027433D01*
X004371Y027394D01*
X004371Y027279D01*
X004371Y027356D02*
X004295Y027433D01*
X004262Y027449D02*
X004262Y027525D01*
X004224Y027564D01*
X004070Y027410D01*
X004032Y027449D01*
X004032Y027525D01*
X004070Y027564D01*
X004224Y027564D01*
X004295Y027509D02*
X004448Y027663D01*
X004487Y027663D01*
X004525Y027624D01*
X004525Y027548D01*
X004487Y027509D01*
X004295Y027509D02*
X004295Y027663D01*
X004262Y027449D02*
X004224Y027410D01*
X004070Y027410D01*
X004032Y027334D02*
X004108Y027257D01*
X005095Y026213D02*
X005095Y026059D01*
X005095Y025983D02*
X005171Y025906D01*
X005171Y025944D02*
X005171Y025829D01*
X005095Y025829D02*
X005325Y025829D01*
X005325Y025944D01*
X005287Y025983D01*
X005210Y025983D01*
X005171Y025944D01*
X005248Y026059D02*
X005325Y026136D01*
X005095Y026136D01*
X005325Y025752D02*
X005325Y025676D01*
X005325Y025714D02*
X005133Y025714D01*
X005095Y025676D01*
X005095Y025637D01*
X005133Y025599D01*
X005745Y025637D02*
X005745Y025676D01*
X005783Y025714D01*
X005975Y025714D01*
X005975Y025676D02*
X005975Y025752D01*
X005975Y025829D02*
X005975Y025944D01*
X005937Y025983D01*
X005860Y025983D01*
X005821Y025944D01*
X005821Y025829D01*
X005745Y025829D02*
X005975Y025829D01*
X005821Y025906D02*
X005745Y025983D01*
X005783Y026059D02*
X005745Y026098D01*
X005745Y026174D01*
X005783Y026213D01*
X005821Y026213D01*
X005860Y026174D01*
X005860Y026136D01*
X005860Y026174D02*
X005898Y026213D01*
X005937Y026213D01*
X005975Y026174D01*
X005975Y026098D01*
X005937Y026059D01*
X005745Y025637D02*
X005783Y025599D01*
X005808Y026960D02*
X005808Y027075D01*
X005847Y027114D01*
X005924Y027114D01*
X005962Y027075D01*
X005962Y026960D01*
X005732Y026960D01*
X005808Y027037D02*
X005732Y027114D01*
X005770Y027190D02*
X005732Y027229D01*
X005732Y027305D01*
X005770Y027344D01*
X005808Y027344D01*
X005847Y027305D01*
X005847Y027267D01*
X005847Y027305D02*
X005885Y027344D01*
X005924Y027344D01*
X005962Y027305D01*
X005962Y027229D01*
X005924Y027190D01*
X006432Y027190D02*
X006662Y027190D01*
X006662Y027305D01*
X006624Y027344D01*
X006547Y027344D01*
X006508Y027305D01*
X006508Y027190D01*
X006508Y027267D02*
X006432Y027344D01*
X006432Y027420D02*
X006585Y027574D01*
X006624Y027574D01*
X006662Y027535D01*
X006662Y027459D01*
X006624Y027420D01*
X006432Y027420D02*
X006432Y027574D01*
X006470Y027075D02*
X006662Y027075D01*
X006662Y027037D02*
X006662Y027114D01*
X006470Y027075D02*
X006432Y027037D01*
X006432Y026998D01*
X006470Y026960D01*
X011770Y019194D02*
X011732Y019155D01*
X011732Y019079D01*
X011770Y019040D01*
X011847Y019040D02*
X011885Y019117D01*
X011885Y019155D01*
X011847Y019194D01*
X011770Y019194D01*
X011847Y019040D02*
X011962Y019040D01*
X011962Y019194D01*
X011924Y018964D02*
X011847Y018964D01*
X011808Y018925D01*
X011808Y018810D01*
X011732Y018810D02*
X011962Y018810D01*
X011962Y018925D01*
X011924Y018964D01*
X011808Y018887D02*
X011732Y018964D01*
X012832Y018964D02*
X012908Y018887D01*
X012908Y018925D02*
X012908Y018810D01*
X012832Y018810D02*
X013062Y018810D01*
X013062Y018925D01*
X013024Y018964D01*
X012947Y018964D01*
X012908Y018925D01*
X012908Y019040D02*
X012947Y019079D01*
X012947Y019155D01*
X012908Y019194D01*
X012870Y019194D01*
X012832Y019155D01*
X012832Y019079D01*
X012870Y019040D01*
X012908Y019040D01*
X012947Y019079D02*
X012985Y019040D01*
X013024Y019040D01*
X013062Y019079D01*
X013062Y019155D01*
X013024Y019194D01*
X012985Y019194D01*
X012947Y019155D01*
X013145Y019129D02*
X013375Y019129D01*
X013375Y019244D01*
X013337Y019283D01*
X013260Y019283D01*
X013221Y019244D01*
X013221Y019129D01*
X013221Y019206D02*
X013145Y019283D01*
X013183Y019359D02*
X013145Y019398D01*
X013145Y019474D01*
X013183Y019513D01*
X013337Y019513D01*
X013375Y019474D01*
X013375Y019398D01*
X013337Y019359D01*
X013298Y019359D01*
X013260Y019398D01*
X013260Y019513D01*
X014482Y019155D02*
X014482Y019079D01*
X014520Y019040D01*
X014597Y019040D01*
X014597Y019155D01*
X014558Y019194D01*
X014520Y019194D01*
X014482Y019155D01*
X014597Y019040D02*
X014674Y019117D01*
X014712Y019194D01*
X014674Y018964D02*
X014597Y018964D01*
X014558Y018925D01*
X014558Y018810D01*
X014482Y018810D02*
X014712Y018810D01*
X014712Y018925D01*
X014674Y018964D01*
X014558Y018887D02*
X014482Y018964D01*
X015182Y018964D02*
X015258Y018887D01*
X015258Y018925D02*
X015258Y018810D01*
X015182Y018810D02*
X015412Y018810D01*
X015412Y018925D01*
X015374Y018964D01*
X015297Y018964D01*
X015258Y018925D01*
X015297Y019040D02*
X015297Y019194D01*
X015412Y019155D02*
X015297Y019040D01*
X015182Y019155D02*
X015412Y019155D01*
X015924Y016844D02*
X015770Y016690D01*
X015732Y016690D01*
X015770Y016614D02*
X015732Y016575D01*
X015732Y016498D01*
X015770Y016460D01*
X015924Y016460D01*
X015962Y016498D01*
X015962Y016575D01*
X015924Y016614D01*
X015962Y016690D02*
X015962Y016844D01*
X015924Y016844D01*
D15*
X015503Y017090D03*
X015503Y016590D03*
X014953Y018940D03*
X014953Y019440D03*
X014253Y019440D03*
X014253Y018940D03*
X013603Y018940D03*
X013603Y019440D03*
X012603Y019440D03*
X012603Y018940D03*
X011503Y018940D03*
X011503Y019440D03*
X010053Y019590D03*
X010053Y019090D03*
X009303Y019090D03*
X009303Y019590D03*
X008653Y018940D03*
X008653Y018440D03*
X007903Y018440D03*
X007903Y018940D03*
X006853Y018940D03*
X006853Y019440D03*
X006153Y019440D03*
X006153Y018940D03*
X005203Y018940D03*
X005203Y019440D03*
X004403Y019440D03*
X004403Y018940D03*
X003253Y018940D03*
X003253Y019440D03*
X001303Y016940D03*
X001303Y016440D03*
X002678Y024315D03*
X002678Y024815D03*
X003803Y027080D03*
X003803Y027580D03*
X004753Y027590D03*
X004753Y027090D03*
X005503Y027090D03*
X005503Y027590D03*
X006203Y027590D03*
X006203Y027090D03*
X006203Y026140D03*
X006203Y025640D03*
X005553Y025640D03*
X005553Y026140D03*
X010653Y026440D03*
X010653Y026940D03*
D16*
X009058Y026112D02*
X009058Y025662D01*
X009058Y025812D02*
X008833Y025812D01*
X008758Y025887D01*
X008758Y026037D01*
X008833Y026112D01*
X009058Y026112D01*
X008908Y025812D02*
X008758Y025662D01*
X008598Y025737D02*
X008523Y025662D01*
X008373Y025662D01*
X008298Y025737D01*
X008298Y025812D01*
X008373Y025887D01*
X008523Y025887D01*
X008598Y025962D01*
X008598Y026037D01*
X008523Y026112D01*
X008373Y026112D01*
X008298Y026037D01*
X008137Y025887D02*
X007837Y025887D01*
X007677Y025812D02*
X007677Y025737D01*
X007602Y025662D01*
X007452Y025662D01*
X007377Y025737D01*
X007377Y025812D01*
X007452Y025887D01*
X007602Y025887D01*
X007677Y025962D01*
X007677Y026037D01*
X007602Y026112D01*
X007452Y026112D01*
X007377Y026037D01*
X007377Y025962D01*
X007452Y025887D01*
X007602Y025887D02*
X007677Y025812D01*
X007912Y025662D02*
X007912Y026112D01*
X008137Y025887D01*
X007217Y025887D02*
X007067Y025962D01*
X006992Y025962D01*
X006916Y025887D01*
X006916Y025737D01*
X006992Y025662D01*
X007142Y025662D01*
X007217Y025737D01*
X007217Y025887D02*
X007217Y026112D01*
X006916Y026112D01*
D17*
X007230Y026386D02*
X008332Y026386D01*
X008332Y027488D01*
X007230Y027488D01*
X007230Y026386D01*
X007348Y026622D02*
X007584Y026622D01*
X007582Y026602D01*
X007577Y026582D01*
X007568Y026563D01*
X007556Y026546D01*
X007542Y026532D01*
X007525Y026520D01*
X007506Y026511D01*
X007486Y026506D01*
X007466Y026504D01*
X007446Y026506D01*
X007426Y026511D01*
X007407Y026520D01*
X007390Y026532D01*
X007376Y026546D01*
X007364Y026563D01*
X007355Y026582D01*
X007350Y026602D01*
X007348Y026622D01*
D18*
X009403Y020240D03*
X009903Y020240D03*
X008553Y019690D03*
X008053Y019690D03*
D19*
X008253Y013305D03*
D20*
X007348Y011415D03*
X009159Y011415D03*
M02*
